<svg width="43" height="42" viewBox="0 0 43 42" fill="none" xmlns="http://www.w3.org/2000/svg">
<circle cx="21.304" cy="21.0811" r="20.9146" fill="#F8FDFF"/>
<g clip-path="url(#clip0_25_613)">
<path d="M21.3033 12.1675C16.3747 12.1675 12.3796 16.1626 12.3796 21.0911C12.3796 25.5449 15.643 29.2366 19.9094 29.9068V23.67H17.6428V21.0911H19.9094V19.1252C19.9094 16.889 21.2408 15.6539 23.2798 15.6539C24.2561 15.6539 25.2769 15.828 25.2769 15.828V18.0232H24.1526C23.0434 18.0232 22.698 18.7112 22.698 19.417V21.0911H25.1725L24.7772 23.67H22.698V29.9068C26.9635 29.2375 30.2269 25.544 30.2269 21.0911C30.2269 16.1626 26.2318 12.1675 21.3033 12.1675Z" fill="#03171C"/>
</g>
<defs>
<clipPath id="clip0_25_613">
<rect width="17.9268" height="17.9268" fill="white" transform="translate(12.3406 12.1187)"/>
</clipPath>
</defs>
</svg>
