<svg width="188" height="61" viewBox="0 0 188 61" fill="none" xmlns="http://www.w3.org/2000/svg">
<g clip-path="url(#clip0_25_566)">
<path d="M55.258 13.9256C53.0226 10.4247 48.2157 8.97039 41.7388 9.80511C41.51 9.83194 41.2675 9.87244 41.0387 9.89926C40.9446 9.68414 40.8504 9.46849 40.7426 9.25336C37.9555 3.34192 34.1448 0.0834961 29.9974 0.0834961C25.8501 0.0834961 22.0263 3.34192 19.2523 9.25336C19.1581 9.46849 19.0503 9.68414 18.9562 9.89926C18.7137 9.85929 18.4849 9.83194 18.2561 9.80511C11.7661 8.95671 6.97231 10.4247 4.73691 13.9256C2.50204 17.4265 3.18844 22.3949 6.66251 27.9155C7.12064 28.643 7.61874 29.3699 8.15734 30.0836C7.61874 30.8105 7.12064 31.5242 6.66251 32.2511C3.18844 37.7718 2.50204 42.7538 4.73691 46.2416C6.55469 49.0961 10.0829 50.5909 14.8357 50.5909C15.9749 50.5846 17.1126 50.5083 18.2424 50.3616C18.4712 50.3347 18.7137 50.2942 18.9425 50.2674C19.0372 50.4831 19.1313 50.6982 19.2391 50.9138C22.0263 56.8248 25.837 60.0837 29.9838 60.0837C34.1311 60.0837 37.9555 56.8248 40.7289 50.9138C40.8231 50.6982 40.9309 50.4831 41.0251 50.2674C41.2675 50.3079 41.4963 50.3347 41.7257 50.3616C42.8544 50.5146 43.9926 50.5909 45.1319 50.5909C49.8851 50.5909 53.4129 49.0961 55.2306 46.2416C57.466 42.7407 56.7791 37.7718 53.3056 32.2511C52.8474 31.5242 52.3493 30.7973 51.8107 30.0836C52.3493 29.3562 52.8474 28.643 53.3056 27.9155C56.8196 22.3817 57.5065 17.4128 55.258 13.9256ZM21.6897 10.3979C23.965 5.55049 26.9947 2.77649 29.9974 2.77649C33.0002 2.77649 36.0299 5.55049 38.3052 10.3979C38.3068 10.4079 38.3116 10.4173 38.3189 10.4247C35.4587 11.1127 32.6689 12.0637 29.9838 13.2655C27.3018 12.0579 24.511 11.1064 21.6492 10.4247C21.676 10.4247 21.676 10.411 21.6897 10.3979ZM42.1296 30.0836C42.1301 32.238 42.0134 34.3913 41.7793 36.5331C40.1009 37.8875 38.3478 39.1462 36.528 40.3033C34.4277 41.6519 32.2418 42.8622 29.9838 43.9257C27.7305 42.8538 25.5445 41.644 23.4401 40.3033C21.6223 39.143 19.8693 37.8844 18.1888 36.5331C17.7217 32.2459 17.7217 27.9208 18.1888 23.6336C21.818 20.717 25.777 18.236 29.9838 16.2415C32.2376 17.3129 34.423 18.5226 36.528 19.8634C38.3457 21.0237 40.0988 22.2823 41.7793 23.6336C42.0134 25.7759 42.1301 27.9287 42.1296 30.0836ZM44.7011 26.1651C46.0197 27.3932 47.261 28.7019 48.4177 30.0836C47.261 31.4648 46.0197 32.7734 44.7011 34.0016C44.7821 32.7093 44.8226 31.4033 44.8226 30.0836C44.8226 28.7639 44.7821 27.4579 44.7011 26.1651ZM41.227 40.3575C40.8021 42.6886 40.1851 44.9808 39.3824 47.211C37.2912 46.7386 35.2388 46.1085 33.2427 45.3259C34.8312 44.4911 36.4201 43.5754 37.9954 42.5792C39.1 41.8655 40.1772 41.1249 41.227 40.3575ZM26.7522 45.3259C24.7598 46.1185 22.7064 46.7492 20.6125 47.211C19.8098 44.9808 19.1928 42.6886 18.7679 40.3575C19.8046 41.1249 20.8818 41.8655 21.9995 42.5655C23.5748 43.5754 25.1637 44.4911 26.7522 45.3259ZM15.2938 34.0016C13.9752 32.7734 12.7344 31.4648 11.5772 30.0836C12.7344 28.7019 13.9752 27.3932 15.2938 26.1651C15.2128 27.4579 15.1723 28.7639 15.1723 30.0836C15.1723 31.4033 15.2128 32.7093 15.2938 34.0016ZM18.7679 19.8097C19.1928 17.4781 19.8098 15.1859 20.6125 12.9562C22.7037 13.428 24.7566 14.0582 26.7522 14.8413C25.1637 15.6761 23.5748 16.5918 21.9995 17.588C20.8949 18.3017 19.8177 19.0423 18.7679 19.8097ZM37.9823 17.588C36.4201 16.5918 34.8312 15.6624 33.229 14.8413C35.2214 14.0487 37.2749 13.418 39.3693 12.9562C40.1714 15.1859 40.7884 17.4781 41.2139 19.8097C40.1772 19.0423 39.1 18.3017 37.9823 17.588ZM8.93841 26.4749C6.08341 21.9504 5.38334 17.8978 6.99914 15.3663C8.29199 13.3465 11.0928 12.2556 14.8762 12.2556C15.8892 12.2598 16.9012 12.3277 17.9058 12.4576H17.9326C16.8433 15.625 16.0854 18.8966 15.6709 22.2197C13.5959 23.9507 11.664 25.8469 9.89411 27.8887C9.55749 27.4311 9.23454 26.9598 8.93841 26.4749ZM17.8926 47.6959C16.888 47.8264 15.876 47.8937 14.863 47.8979C11.0791 47.8979 8.27831 46.8207 6.98599 44.7873C5.37019 42.2557 6.07026 38.2031 8.92474 33.6786C9.22086 33.2074 9.54434 32.7224 9.88096 32.2511C11.6503 34.2935 13.5823 36.1891 15.6572 37.9201C16.0722 41.2438 16.8302 44.5153 17.9195 47.6822C17.9195 47.6959 17.9058 47.6959 17.8926 47.6959ZM38.3052 49.7693C36.0299 54.6167 33.0002 57.3907 29.9974 57.3907C26.9947 57.3907 23.965 54.6167 21.6897 49.7693C21.6881 49.7593 21.6833 49.7498 21.676 49.7425C24.5362 49.0545 27.326 48.1035 30.0111 46.9012C32.6931 48.1093 35.4839 49.0608 38.3457 49.7425C38.3189 49.7425 38.3189 49.7556 38.3052 49.7693ZM51.0565 33.6923C53.9115 38.2162 54.6116 42.2694 52.9958 44.8009C51.38 47.3319 47.4078 48.396 42.1023 47.6959H42.0754C43.1647 44.5285 43.9232 41.2569 44.3377 37.9338C46.4126 36.2028 48.3446 34.3067 50.1139 32.2648C50.4374 32.7361 50.7604 33.2074 51.0565 33.6923ZM44.324 22.2334C43.9095 18.9098 43.1516 15.6382 42.0623 12.4713H42.0891C47.3941 11.7844 51.3663 12.8347 52.9821 15.3663C54.5979 17.8978 53.8978 21.9504 51.0433 26.4749C50.7472 26.9462 50.4237 27.4311 50.0871 27.9024C48.3256 25.8569 46.3979 23.9607 44.324 22.2334Z" fill="#7432FF"/>
<path d="M29.9974 24.7515C27.0524 24.7515 24.665 27.1389 24.665 30.0838C24.665 33.0288 27.0524 35.4156 29.9974 35.4156C32.9423 35.4156 35.3297 33.0288 35.3297 30.0838C35.3276 27.1394 32.9413 24.7536 29.9974 24.7515ZM29.9974 32.7226C28.5399 32.7226 27.358 31.5413 27.358 30.0838C27.358 28.6263 28.5399 27.4445 29.9974 27.4445C31.4549 27.4445 32.6367 28.6263 32.6367 30.0838C32.6341 31.5402 31.4538 32.7205 29.9974 32.7226Z" fill="#7432FF"/>
</g>
<path d="M76.0471 11.8599C76.0471 13.3599 75.1471 14.454 73.1353 14.454H70.6471V9.31867H73.1176C75.2 9.31867 76.0471 10.3069 76.0471 11.8599ZM69.4118 8.2775V20.6128H70.6471V15.4599H72.9235L75.9765 20.6128H77.4588L74.2824 15.3716C76.3647 14.9834 77.3176 13.554 77.3176 11.8599C77.3176 9.83044 75.9765 8.2775 73.1176 8.2775H69.4118ZM83.8808 11.8951C85.6632 11.8951 87.2867 13.0246 87.2338 15.2657H80.4573C80.5985 13.0246 82.1338 11.8951 83.8808 11.8951ZM88.3455 17.5599H87.0397C86.6867 18.8481 85.575 19.7128 83.9338 19.7128C82.1338 19.7128 80.5632 18.5304 80.4573 16.2716H88.4514C88.4867 15.9363 88.4867 15.6893 88.4867 15.301C88.4867 12.8481 86.7573 10.8363 83.9338 10.8363C81.1632 10.8363 79.2044 12.7246 79.2044 15.7951C79.2044 18.8481 81.1985 20.754 83.9338 20.754C86.3514 20.754 87.9044 19.3775 88.3455 17.5599ZM90.1821 15.7775C90.1821 18.7951 92.1409 20.754 94.7703 20.754C96.6938 20.754 98.035 19.7128 98.5997 18.4775V20.6128H99.835V10.9775H98.5997V13.0951C98.0527 11.8775 96.7291 10.8363 94.788 10.8363C92.1409 10.8363 90.1821 12.7599 90.1821 15.7775ZM98.5997 15.7951C98.5997 18.1951 96.9938 19.6775 95.0174 19.6775C92.988 19.6775 91.435 18.2128 91.435 15.7775C91.435 13.3246 92.988 11.9128 95.0174 11.9128C96.9938 11.9128 98.5997 13.3951 98.5997 15.7951ZM102.09 15.7951C102.09 18.8481 104.049 20.754 106.767 20.754C109.185 20.754 110.755 19.3951 111.196 17.4716H109.873C109.537 18.8834 108.39 19.7128 106.767 19.7128C104.879 19.7128 103.343 18.4069 103.343 15.7951C103.343 13.1834 104.879 11.8951 106.767 11.8951C108.39 11.8951 109.555 12.7422 109.873 14.1187H111.196C110.755 12.1246 109.185 10.8363 106.767 10.8363C104.049 10.8363 102.09 12.7422 102.09 15.7951ZM113.831 18.001C113.831 19.9246 114.731 20.6128 116.407 20.6128H117.731V19.554H116.601C115.489 19.554 115.084 19.1834 115.084 18.001V12.0187H117.731V10.9775H115.084V8.55985H113.831V10.9775H112.489V12.0187H113.831V18.001ZM132.675 8.2775V18.6363L125.846 8.2775H124.611V20.6128H125.846V10.2363L132.675 20.6128H133.911V8.2775H132.675ZM136.144 15.7775C136.144 18.7951 138.103 20.754 140.732 20.754C142.655 20.754 143.997 19.7128 144.561 18.4775V20.6128H145.797V10.9775H144.561V13.0951C144.014 11.8775 142.691 10.8363 140.75 10.8363C138.103 10.8363 136.144 12.7599 136.144 15.7775ZM144.561 15.7951C144.561 18.1951 142.955 19.6775 140.979 19.6775C138.95 19.6775 137.397 18.2128 137.397 15.7775C137.397 13.3246 138.95 11.9128 140.979 11.9128C142.955 11.9128 144.561 13.3951 144.561 15.7951ZM148.97 18.001C148.97 19.9246 149.87 20.6128 151.546 20.6128H152.87V19.554H151.74C150.628 19.554 150.223 19.1834 150.223 18.001V12.0187H152.87V10.9775H150.223V8.55985H148.97V10.9775H147.628V12.0187H148.97V18.001ZM154.907 20.6128H156.142V10.9775H154.907V20.6128ZM155.525 9.15985C156.019 9.15985 156.425 8.77162 156.425 8.2422C156.425 7.71279 156.019 7.3422 155.525 7.3422C155.03 7.3422 154.625 7.71279 154.625 8.2422C154.625 8.77162 155.03 9.15985 155.525 9.15985ZM157.793 10.9775L161.657 20.6128H163.051L166.916 10.9775H165.61L162.363 19.4128L159.116 10.9775H157.793ZM172.702 11.8951C174.484 11.8951 176.108 13.0246 176.055 15.2657H169.279C169.42 13.0246 170.955 11.8951 172.702 11.8951ZM177.167 17.5599H175.861C175.508 18.8481 174.396 19.7128 172.755 19.7128C170.955 19.7128 169.384 18.5304 169.279 16.2716H177.273C177.308 15.9363 177.308 15.6893 177.308 15.301C177.308 12.8481 175.579 10.8363 172.755 10.8363C169.984 10.8363 168.026 12.7246 168.026 15.7951C168.026 18.8481 170.02 20.754 172.755 20.754C175.173 20.754 176.726 19.3775 177.167 17.5599ZM82.5379 29.8697H69.832V50.6128H82.5379V46.5646H74.8848V42.0142H81.6514V38.1137H74.8848V33.9179H82.5379V29.8697ZM95.5693 50.6128H101.243L95.5693 42.4278L101.095 34.1247H95.6284L92.969 38.6752L89.8073 34.1247H84.134L89.7187 42.1915L84.2817 50.6128H89.7482L92.4076 46.0328L95.5693 50.6128ZM108.242 36.459V34.1247H103.19V58.4727H108.242V48.308C109.158 49.6968 110.902 50.8492 113.325 50.8492C117.373 50.8492 120.594 47.5397 120.594 42.3392C120.594 37.1386 117.373 33.8883 113.325 33.8883C110.902 33.8883 109.158 35.0112 108.242 36.459ZM115.452 42.3392C115.452 44.969 113.738 46.4464 111.818 46.4464C109.927 46.4464 108.213 44.9986 108.213 42.3687C108.213 39.7389 109.927 38.291 111.818 38.291C113.738 38.291 115.452 39.7094 115.452 42.3392ZM130.513 37.9365C132.198 37.9365 133.616 38.9707 133.616 40.7731H127.293C127.588 38.9411 128.859 37.9365 130.513 37.9365ZM138.403 45.1463H133.025C132.611 46.0328 131.814 46.7419 130.395 46.7419C128.77 46.7419 127.44 45.7373 127.263 43.5802H138.698C138.758 43.0779 138.787 42.5756 138.787 42.1028C138.787 37.0795 135.389 33.8883 130.573 33.8883C125.667 33.8883 122.24 37.1386 122.24 42.3687C122.24 47.5988 125.727 50.8492 130.573 50.8492C134.68 50.8492 137.605 48.3671 138.403 45.1463ZM146.505 42.9597C146.505 40.1231 147.894 39.2957 150.288 39.2957H151.676V33.9474C149.46 33.9474 147.658 35.1293 146.505 36.8727V34.1247H141.453V50.6128H146.505V42.9597ZM154.889 44.8804C154.889 49.1649 157.283 50.6128 160.71 50.6128H163.281V46.3283H161.479C160.356 46.3283 159.942 45.9146 159.942 44.9395V38.3206H163.252V34.1247H159.942V30.1061H154.889V34.1247H152.88V38.3206H154.889V44.8804ZM179.481 45.8259C179.393 39.6798 170.469 41.5414 170.469 38.9116C170.469 38.1137 171.119 37.641 172.301 37.641C173.719 37.641 174.576 38.3797 174.724 39.5025H179.393C179.068 36.2522 176.704 33.8883 172.449 33.8883C168.135 33.8883 165.741 36.1931 165.741 39.0002C165.741 45.0577 174.724 43.137 174.724 45.7964C174.724 46.5351 174.044 47.1261 172.744 47.1261C171.355 47.1261 170.321 46.3578 170.203 45.2054H165.209C165.446 48.3967 168.4 50.8492 172.803 50.8492C176.94 50.8492 179.481 48.6921 179.481 45.8259Z" fill="#142032"/>
<defs>
<clipPath id="clip0_25_566">
<rect width="60" height="60" fill="white" transform="translate(0 0.0834961)"/>
</clipPath>
</defs>
</svg>
