<svg width="514" height="472" viewBox="0 0 514 472" fill="none" xmlns="http://www.w3.org/2000/svg">
<path d="M430.118 327.739H85.4322C42.4724 327.739 22.7683 278.982 55.6626 253.9C55.9357 253.686 56.2175 253.49 56.4907 253.276C63.9864 247.633 68.8868 239.395 68.8868 227.348C71.8066 211.546 55.6881 207.337 51.3768 179.949C43.7871 131.807 69.604 100.177 98.4686 84.0838C194.693 30.4096 377.314 30.4096 455.934 82.3509C471.071 92.3564 479.079 120.64 472.958 133.985C435.274 216.182 455.695 238.387 471.481 267.371C486.626 295.169 464.275 327.739 430.118 327.739Z" fill="url(#paint0_linear_25_1184)"/>
<path d="M474.658 371.33V372.459C474.522 396.117 440.338 407.899 320.201 407.326C304.441 407.257 287.981 406.958 271.265 406.47C262.352 418.688 213.715 427.826 155.098 427.552C90.206 427.235 37.6759 415.488 37.7698 401.311C37.7783 399.634 38.5211 397.991 39.9382 396.408C46.0424 389.615 45.5558 380.203 39.6053 373.307C37.586 370.966 37.6489 369.515 37.7186 367.737C38.4869 345.32 57.2348 327.72 79.6197 327.737L430.443 327.916C454.519 327.925 474.368 347.219 474.658 371.33Z" fill="url(#paint1_linear_25_1184)"/>
<path d="M441.655 245.673C441.655 251.528 436.918 256.265 431.064 256.265H423.798V49.6348H431.099C436.58 49.6348 441.084 53.8088 441.603 59.1609C441.702 60.1471 441.637 51.3428 441.655 245.673Z" fill="url(#paint2_linear_25_1184)"/>
<path d="M437.163 60.242V245.675C437.163 251.53 432.429 256.265 426.573 256.265H231.488C225.633 256.265 220.888 251.53 220.888 245.675V60.242C220.888 54.3865 225.633 49.6426 231.488 49.6426H426.573C432.429 49.6426 437.163 54.3865 437.163 60.242Z" fill="white"/>
<path opacity="0.03" d="M419.906 222.62V256.264H272.521V222.62C272.521 218.639 275.748 215.412 279.729 215.412H412.698C416.679 215.412 419.906 218.639 419.906 222.62ZM434.956 85.29V199.797H322.116C317.932 199.797 314.543 196.4 314.543 192.215V92.8629C314.543 88.6784 317.932 85.29 322.116 85.29H434.956Z" fill="black"/>
<path d="M437.17 60.2022V71.0705H220.894V60.2022C220.894 54.3651 225.614 49.6367 231.451 49.6367H426.614C432.442 49.6367 437.17 54.3651 437.17 60.2022Z" fill="url(#paint3_linear_25_1184)"/>
<path d="M235.046 60.874C235.046 62.7357 233.539 64.2431 231.677 64.2431C229.82 64.2431 228.312 62.7357 228.312 60.874C228.312 59.0123 229.82 57.5049 231.677 57.5049C233.539 57.5049 235.046 59.0123 235.046 60.874ZM244.215 60.874C244.215 62.7357 242.708 64.2431 240.846 64.2431C238.988 64.2431 237.481 62.7357 237.481 60.874C237.481 59.0123 238.988 57.5049 240.846 57.5049C242.708 57.5049 244.215 59.0123 244.215 60.874ZM253.383 60.874C253.383 62.7357 251.876 64.2431 250.014 64.2431C248.157 64.2431 246.65 62.7357 246.65 60.874C246.65 59.0123 248.157 57.5049 250.014 57.5049C251.876 57.5049 253.383 59.0123 253.383 60.874Z" fill="white"/>
<path d="M264.726 109.39L264.725 109.392L264.728 109.394L264.726 109.39Z" fill="url(#paint4_linear_25_1184)"/>
<path d="M264.732 192.884L264.733 192.882L264.73 192.88L264.732 192.884Z" fill="url(#paint5_linear_25_1184)"/>
<path d="M255.982 176.415V125.858H244.119L244.123 125.855H244.116V176.418H244.123L244.119 176.415H255.982Z" fill="url(#paint6_linear_25_1184)"/>
<path d="M273.473 125.858V176.415H273.474H285.338V125.858H273.473Z" fill="url(#paint7_linear_25_1184)"/>
<path d="M273.473 125.855H285.334L264.728 109.393L273.471 125.855H273.473Z" fill="url(#paint8_linear_25_1184)"/>
<path d="M255.986 125.855L264.725 109.391L264.724 109.39L244.123 125.855H255.982H255.986Z" fill="url(#paint9_linear_25_1184)"/>
<path d="M273.473 176.415V125.858H255.983H255.982V176.415H255.985H273.473Z" fill="url(#paint10_linear_25_1184)"/>
<path d="M273.471 125.855L264.728 109.393L264.725 109.392L255.986 125.855H273.471Z" fill="url(#paint11_linear_25_1184)"/>
<path d="M273.472 176.418L264.733 192.881L264.735 192.883L285.334 176.418H273.473H273.472Z" fill="url(#paint12_linear_25_1184)"/>
<path d="M255.982 176.418H244.123L264.731 192.88L255.987 176.418H255.982Z" fill="url(#paint13_linear_25_1184)"/>
<path d="M255.987 176.418L264.73 192.88L264.733 192.881L273.472 176.418H255.987Z" fill="url(#paint14_linear_25_1184)"/>
<path d="M446.867 82.0527H437.295V196.555H446.867C451.052 196.555 454.446 193.161 454.446 188.977V89.6223C454.446 85.4377 451.052 82.0527 446.867 82.0527Z" fill="url(#paint15_linear_25_1184)"/>
<path d="M450.575 89.6223V188.977C450.575 193.161 447.181 196.555 442.996 196.555H325.358C321.173 196.555 317.78 193.161 317.78 188.977V89.6223C317.78 85.4377 321.173 82.0527 325.358 82.0527H442.996C447.181 82.0527 450.575 85.4377 450.575 89.6223Z" fill="url(#paint16_linear_25_1184)"/>
<path d="M390.261 98.3413H327.204V101.843H390.261V98.3413Z" fill="white"/>
<path d="M346.241 106.494H327.204V109.996H346.241V106.494Z" fill="white"/>
<path d="M411.045 106.494H395.327V109.996H411.045V106.494Z" fill="white"/>
<path d="M441.15 106.494H416.847V109.996H441.15V106.494Z" fill="white"/>
<path d="M383.479 106.494H354.463V109.996H383.479V106.494Z" fill="white"/>
<path d="M358.332 114.646H327.204V118.148H358.332V114.646Z" fill="white"/>
<path d="M386.147 114.646H367.055V118.148H386.147V114.646Z" fill="white"/>
<path d="M362.118 122.795H342.038V126.298H362.118V122.795Z" fill="white"/>
<path d="M378.905 122.795H369.853V126.298H378.905V122.795Z" fill="white"/>
<path d="M403.263 122.795H384.83V126.298H403.263V122.795Z" fill="white"/>
<path d="M420.71 122.795H411.164V126.298H420.71V122.795Z" fill="white"/>
<path d="M441.15 122.795H426.634V126.298H441.15V122.795Z" fill="white"/>
<path d="M356.192 130.948H343.684V134.451H356.192V130.948Z" fill="white"/>
<path d="M385.818 130.948H363.764V134.451H385.818V130.948Z" fill="white"/>
<path d="M377.425 139.1H357.51V142.603H377.425V139.1Z" fill="white"/>
<path d="M359.473 156.843H342.017V160.345H359.473V156.843Z" fill="white"/>
<path d="M376.652 156.843H367.444V160.345H376.652V156.843Z" fill="white"/>
<path d="M418.572 156.843H406.203V160.345H418.572V156.843Z" fill="white"/>
<path d="M438.227 156.843H423.245V160.345H438.227V156.843Z" fill="white"/>
<path d="M400.568 156.843H384.212V160.345H400.568V156.843Z" fill="white"/>
<path d="M385.586 164.995H367.444V168.498H385.586V164.995Z" fill="white"/>
<path d="M422.558 164.995H404.416V168.498H422.558V164.995Z" fill="white"/>
<path d="M359.473 164.995H342.017V168.498H359.473V164.995Z" fill="white"/>
<path d="M378.989 173.146H367.444V176.649H378.989V173.146Z" fill="white"/>
<path d="M439.876 173.146H425.169V176.649H439.876V173.146Z" fill="white"/>
<path d="M421.733 173.146H412.662V176.649H421.733V173.146Z" fill="white"/>
<path d="M403.453 173.146H385.311V176.649H403.453V173.146Z" fill="white"/>
<path d="M359.473 173.146H342.017V176.649H359.473V173.146Z" fill="white"/>
<path d="M359.473 181.297H342.017V184.8H359.473V181.297Z" fill="white"/>
<path d="M402.904 181.297H367.444V184.8H402.904V181.297Z" fill="white"/>
<path d="M427.918 181.297H407.989V184.8H427.918V181.297Z" fill="white"/>
<path d="M232.98 89.9583C232.98 92.33 234.226 94.5881 231.819 94.5881H231.698V95.835H231.819C234.21 95.835 232.98 98.2425 232.98 100.386C232.98 102.232 234.01 103.207 235.959 103.207H236.493V101.882H236.018C235.038 101.882 234.582 101.375 234.582 100.287C234.582 98.7362 235.629 95.9866 233.646 95.1995C235.629 94.395 234.582 91.7393 234.582 90.1555C234.582 89.0515 235.011 88.5806 236.018 88.5806H236.493V87.2549H235.959C234.038 87.2549 232.98 88.215 232.98 89.9583Z" fill="url(#paint17_linear_25_1184)"/>
<path d="M258.633 94.5881C256.226 94.5881 257.473 92.329 257.473 89.9583C257.473 88.24 256.38 87.2549 254.474 87.2549H253.959V88.5806H254.433C255.441 88.5981 255.871 89.069 255.871 90.1555C255.871 91.7446 254.798 94.3754 256.792 95.1995C254.787 96.0092 255.871 98.7465 255.871 100.287C255.871 102.248 254.201 101.817 253.959 101.882V103.207C254.53 103.128 257.473 103.559 257.473 100.386C257.473 98.2487 256.241 95.835 258.633 95.835H258.754V94.5881H258.633Z" fill="url(#paint18_linear_25_1184)"/>
<path d="M251.952 90.5532H238.482V92.067H251.952V90.5532Z" fill="url(#paint19_linear_25_1184)"/>
<path d="M251.952 93.9888H238.482V95.5025H251.952V93.9888Z" fill="url(#paint20_linear_25_1184)"/>
<path d="M243.2 97.4238H238.482V98.9376H243.2V97.4238Z" fill="url(#paint21_linear_25_1184)"/>
<path d="M249.541 97.4238H245.495V98.9376H249.541V97.4238Z" fill="url(#paint22_linear_25_1184)"/>
<path d="M284.731 197.116L283.504 200.832H281.927L285.941 189.017H287.782L291.814 200.832H290.183L288.921 197.116H284.731ZM288.605 195.924C287.447 192.384 287.476 192.872 286.835 190.366H286.8C286.183 192.837 285.901 193.294 285.047 195.924H288.605Z" fill="url(#paint23_linear_25_1184)"/>
<path d="M293.379 200.832C293.507 198.699 293.421 197.593 293.448 188.385H294.974V193.714H295.009C295.552 192.768 296.534 192.154 297.901 192.154C300.005 192.154 301.495 193.907 301.478 196.484C301.478 199.517 299.567 201.025 297.673 201.025C296.446 201.025 295.464 200.551 294.834 199.429H294.781L294.711 200.832H293.379ZM294.974 197.431C294.974 198.621 295.946 199.798 297.358 199.798C298.971 199.798 299.935 198.483 299.935 196.537C299.935 194.836 299.058 193.381 297.411 193.381C296.041 193.381 294.974 194.584 294.974 195.906V197.431Z" fill="url(#paint24_linear_25_1184)"/>
<path d="M309.475 200.517C309.072 200.727 308.178 201.008 307.038 201.008C304.479 201.008 302.813 199.272 302.813 196.678C302.813 194.065 304.601 192.172 307.371 192.172C308.283 192.172 309.089 192.4 309.51 192.61L309.159 193.803C308.791 193.592 308.212 193.4 307.371 193.4C305.425 193.4 304.373 194.837 304.373 196.608C304.373 198.571 305.636 199.78 307.318 199.78C308.195 199.78 308.773 199.552 309.212 199.36L309.475 200.517Z" fill="url(#paint25_linear_25_1184)"/>
<path d="M422.418 218.687V264.816C422.418 268.797 419.191 272.024 415.21 272.024H282.242C278.261 272.024 275.034 268.797 275.034 264.816V218.687C275.034 214.706 278.261 211.479 282.242 211.479H415.21C419.191 211.479 422.418 214.706 422.418 218.687Z" fill="url(#paint26_linear_25_1184)"/>
<path d="M307.416 222.045V239.913C307.416 240.93 306.592 241.754 305.575 241.754H287.707C286.69 241.754 285.866 240.93 285.866 239.913V222.045C285.866 221.028 286.69 220.204 287.707 220.204H305.575C306.592 220.204 307.416 221.028 307.416 222.045Z" fill="url(#paint27_linear_25_1184)"/>
<path d="M411.586 224.257H316.552V226.874H411.586V224.257Z" fill="url(#paint28_linear_25_1184)"/>
<path d="M411.586 231.542H316.552V234.16H411.586V231.542Z" fill="url(#paint29_linear_25_1184)"/>
<path d="M411.586 238.827H316.552V241.444H411.586V238.827Z" fill="url(#paint30_linear_25_1184)"/>
<path d="M411.586 246.112H286.259V248.729H411.586V246.112Z" fill="url(#paint31_linear_25_1184)"/>
<path d="M411.586 253.397H286.259V256.014H411.586V253.397Z" fill="url(#paint32_linear_25_1184)"/>
<path d="M411.586 260.681H286.259V263.298H411.586V260.681Z" fill="url(#paint33_linear_25_1184)"/>
<path d="M404.579 136.16C404.189 135.771 403.658 135.621 403.015 135.866L393.818 139.992C393.159 140.303 392.712 140.882 392.712 141.626V141.81C392.712 142.558 393.161 143.136 393.827 143.448L403.015 147.57L403.042 147.581C403.564 147.778 404.163 147.692 404.58 147.275C405.306 146.547 405.011 145.351 404.077 144.961L396.78 141.718L404.066 138.48C405.053 138.069 405.279 136.865 404.579 136.16ZM412.565 131.43L406.461 149.28C406.113 150.336 406.851 151.205 407.795 151.205C408.474 151.205 408.966 150.784 409.15 150.233L415.254 132.383C415.45 131.789 415.313 131.265 414.948 130.883C414.269 130.176 412.924 130.351 412.565 131.43ZM427.865 139.987L418.67 135.862C417.793 135.488 416.707 136.09 416.707 137.158C416.707 137.749 417.106 138.263 417.615 138.475L424.912 141.718L417.625 144.957C416.639 145.371 416.414 146.578 417.114 147.276C417.554 147.716 418.208 147.773 418.677 147.57L427.873 143.445C428.532 143.135 428.98 142.553 428.98 141.81V141.626C428.98 140.881 428.536 140.305 427.865 139.987Z" fill="white"/>
<path d="M165.619 383.048L151.773 382.901L152.633 369.725L166.011 370.139L165.746 382.938C165.738 383.002 165.683 383.049 165.619 383.048Z" fill="#FFDAD9"/>
<path d="M151.445 382.494L149.048 392.51C148.636 394.624 150.209 396.604 152.361 396.676C161.198 396.972 178.57 396.679 181.777 396.651C182.033 396.648 182.237 396.447 182.248 396.191C182.392 393.126 180.356 391.178 177.358 389.672L165.797 381.886C165.775 381.873 165.751 381.867 165.726 381.868L151.445 382.494Z" fill="#373A50"/>
<path d="M110.122 376.061L98.6478 368.31L106.625 357.787L117.561 365.503L110.288 376.039C110.247 376.087 110.175 376.097 110.122 376.061Z" fill="#FFDAD9"/>
<path d="M98.599 367.79L91.0799 374.828C89.5719 376.365 89.7932 378.884 91.5497 380.13C98.7622 385.246 113.421 394.571 116.113 396.315C116.328 396.454 116.609 396.397 116.76 396.191C118.568 393.712 117.942 390.965 116.27 388.056L110.911 375.189C110.9 375.166 110.883 375.148 110.861 375.135L98.599 367.79Z" fill="#373A50"/>
<path d="M82.8217 313.741H80.4984V385.813H82.8217V313.741Z" fill="#373A50"/>
<path d="M124.741 303.891L102.163 361.113L114.6 371.182L143.778 325.043C138.747 312.661 133.38 301.642 124.741 303.891Z" fill="#3A4AC3"/>
<path d="M59.1479 274.836L56.882 293.069C56.6349 301.375 63.3014 308.243 71.6116 308.243H129.974L149.893 376.903C150.126 379.856 168.205 378.426 167.971 375.473C167.971 375.473 161.082 295.853 152.567 288.619C141.319 279.063 96.1064 275.189 96.1064 275.189L59.1479 274.836Z" fill="#3A4AC3"/>
<path d="M105.918 198.739C105.568 199.134 105.2 200.174 104.832 201.508C103.673 205.702 102.551 212.904 102.551 212.904L88.34 203.099C93.5554 195.63 95.3399 190.111 95.3399 190.111C95.3399 190.111 96.4161 190.387 97.897 190.874C101.917 192.227 108.962 195.188 105.918 198.739Z" fill="#FFDAD9"/>
<path d="M105.918 198.739C105.568 199.135 105.2 200.174 104.832 201.508C104.832 201.508 98.2189 195.005 97.1243 192.889C96.8023 192.273 97.1887 191.574 97.8969 190.875C101.917 192.227 108.962 195.188 105.918 198.739Z" fill="#FECDCB"/>
<path d="M121.417 187.802C121.417 188.777 119.237 188.979 119.237 188.979C119.237 188.979 119.136 190.571 118.823 192.567C118.481 194.71 117.738 198.335 116.183 199.824C114.822 201.13 100.555 200.45 95.3398 190.111L90.4095 183.433L93.9969 169.912C93.9969 169.912 103.775 166.656 112.826 166.821C121.895 166.977 119.191 183.203 119.191 183.203C119.191 183.203 121.417 186.938 121.417 187.802Z" fill="#FFDAD9"/>
<path d="M95.3434 190.112C95.3434 190.112 95.6943 188.156 94.7809 185.854C93.7603 183.282 92.9059 181.328 93.9537 179.934C96.6968 176.286 100.741 183.328 100.741 183.328L102.8 182.772L103.19 171.255C103.19 171.255 119.547 176.93 123.609 171.255C127.67 165.58 126.057 157.679 120.103 158.903C114.15 160.127 105.526 160.461 105.526 160.461C105.526 160.461 89.5026 158.848 88.1673 165.635C86.832 172.423 82.4899 182.429 95.3434 190.112Z" fill="#111228"/>
<path d="M171.096 236.569C171.096 236.569 174.272 242.365 172.479 243.595C168.748 246.156 159.502 245.029 159.502 245.029L162.985 236.569C162.985 236.569 164.59 227.4 166.955 228.356C169.32 229.304 168.492 233.308 168.492 233.308C168.492 233.308 179.77 227.613 181.076 229.637C182.391 231.66 171.096 236.569 171.096 236.569Z" fill="#FFDAD9"/>
<path d="M89.1281 229.487C95.1874 238.305 110.852 263.238 118.621 264.495C125.243 265.566 167.362 246.685 167.362 246.685L162.859 235.268L127.727 244.076C127.727 244.076 111.635 219.305 106.676 214.745C97.867 206.644 82.096 219.253 89.1281 229.487Z" fill="#EAC250"/>
<path d="M107.025 254.039L108.751 276.612C108.751 277.486 100.978 279.178 91.357 280.824C75.7384 283.483 56.8754 282.241 56.8754 280.824C56.8754 280.824 71.3301 207.295 89.1519 200.77C95.8431 198.321 105.145 210.774 106.676 215.872C110.555 228.785 107.025 254.039 107.025 254.039Z" fill="#FADF68"/>
<path d="M112.89 254.213C112.366 262.087 111.06 269.823 108.751 276.611C108.751 277.485 100.978 279.177 91.3571 280.824C94.2269 275.701 95.4503 269.648 94.4753 263.844C92.8196 254.002 85.6542 245.852 83.4374 236.111C81.5517 227.787 82.8303 221.89 88.1285 215.194C92.746 216.74 95.4963 221.523 96.9036 226.186C98.3017 230.859 98.8261 235.845 101.052 240.186C102.533 243.074 104.704 245.54 106.902 247.931C108.861 250.056 110.857 252.153 112.89 254.213Z" fill="#EAC250"/>
<path d="M166.635 268.49L161.843 266.043L150.226 266.199L150.741 258.74C150.741 258.74 155.46 253.938 157.63 255.879C159.7 257.728 157.253 259.08 157.032 259.2C157.594 259.08 168.25 258.941 168.215 261.655C168.141 267.394 166.635 268.49 166.635 268.49Z" fill="#FFDAD9"/>
<path d="M84.9433 223.146C87.3446 233.572 92.7685 262.514 99.5345 266.534C105.302 269.96 151.411 267.849 151.411 267.849V257.277L115.497 250.88C115.497 250.88 109.616 221.932 106.677 215.871C101.454 205.103 82.1565 211.046 84.9433 223.146Z" fill="#FADF68"/>
<path d="M124.075 310.779V313.525C124.075 314.942 122.926 316.091 121.508 316.091H54.8179C53.4005 316.091 52.2515 314.942 52.2515 313.525V310.779C52.2515 309.362 53.4005 308.213 54.8179 308.213H121.508C122.926 308.213 124.075 309.362 124.075 310.779Z" fill="#B2C7FF"/>
<path d="M57.5303 315.666L54.8178 316.091C53.4175 316.311 52.1044 315.353 51.885 313.953L39.2309 233.492C39.0115 232.092 39.9688 230.779 41.369 230.559L44.0816 230.134C45.4819 229.915 46.7949 230.872 47.0143 232.272L59.6685 312.734C59.8879 314.134 58.9306 315.447 57.5303 315.666Z" fill="#B2C7FF"/>
<path d="M108.302 396.594C108.053 395.151 106.863 394.002 105.356 393.872C94.0477 392.899 82.83 385.812 82.83 385.812H80.4981C80.4981 385.812 69.2804 392.899 57.9718 393.872C56.4649 394.002 55.2752 395.151 55.0255 396.594H108.302ZM188.739 272.901H152.089C152.089 271.847 152.512 270.887 153.204 270.205C153.896 269.503 154.846 269.08 155.899 269.08H184.928C187.035 269.08 188.739 270.794 188.739 272.901ZM131.015 396.594L149.171 291.048C150.368 284.087 156.363 279.035 163.426 279.035H236.441C243.504 279.035 249.499 284.087 250.696 291.048L268.852 396.594H271.996L253.749 290.523C252.296 282.071 245.016 275.937 236.441 275.937H163.426C154.851 275.937 147.571 282.071 146.118 290.522L127.871 396.594H131.015Z" fill="#373A50"/>
<path d="M253.291 274.85V277.091C253.291 278.165 252.423 279.033 251.339 279.033H148.524C147.45 279.033 146.572 278.165 146.572 277.091V274.85C146.572 273.776 147.45 272.898 148.524 272.898H251.339C252.423 272.898 253.291 273.776 253.291 274.85Z" fill="#B2C7FF"/>
<path d="M229.712 272.901L211.312 272.901C210.456 272.901 209.763 272.207 209.763 271.352C209.763 270.496 210.456 269.803 211.312 269.803L229.805 269.803C232.429 269.803 234.994 268.699 236.601 266.625C238.275 264.464 238.768 261.715 237.955 259.12L223.412 212.675L226.369 211.75L240.912 258.194C242.008 261.696 241.378 265.403 239.182 268.349C236.979 271.302 233.396 272.901 229.712 272.901Z" fill="black"/>
<path d="M228.835 200.511C229.926 197.789 234.084 199.302 233.331 202.135L222.866 241.48C222.816 241.671 222.754 241.856 222.683 242.035C221.595 244.759 217.433 243.247 218.186 240.413L228.651 201.065C228.702 200.874 228.764 200.689 228.835 200.511Z" fill="#111228"/>
<path d="M234.033 184.048L215.331 254.367C214.236 258.481 210.023 260.934 205.909 259.84L224.614 189.509C225.705 185.407 229.931 182.957 234.033 184.048Z" fill="#373A50"/>
<path d="M117.637 181.629C117.653 180.661 117.261 179.869 116.762 179.861C116.264 179.854 115.847 180.632 115.832 181.601C115.817 182.569 116.208 183.36 116.707 183.368C117.206 183.376 117.622 182.597 117.637 181.629Z" fill="#111228"/>
<path d="M118.305 179.249C117.168 179.338 116.939 178.995 116.008 179.465C115.766 179.591 115.499 179.758 115.164 179.861C115.234 179.521 115.357 179.229 115.569 178.96C116.026 178.356 116.816 178.197 117.565 178.596C117.859 178.752 118.108 178.961 118.305 179.249Z" fill="#111228"/>
<path d="M118.823 192.567C118.722 193.202 118.602 193.873 118.446 194.545H118.354C117.25 194.545 116.367 193.662 116.349 192.567H118.823Z" fill="white"/>
<path d="M206.765 147.998L207.592 153.132C207.688 153.805 207.111 154.401 206.438 154.285L200.439 153.324C196.998 155.304 192.998 156.439 188.749 156.439C175.789 156.439 165.272 145.94 165.272 132.981C165.272 120.021 175.789 109.503 188.749 109.503C201.708 109.503 212.207 120.021 212.207 132.981C212.207 138.691 210.149 143.94 206.765 147.998Z" fill="url(#paint34_linear_25_1184)"/>
<path d="M203.792 135.74V131.215H200.494C200.18 129.595 199.552 128.083 198.658 126.768L200.985 124.442L197.765 121.232L195.448 123.549C194.133 122.655 192.631 122.017 191.002 121.703V118.424H186.467V121.703C184.847 122.017 183.335 122.655 182.02 123.549L179.703 121.232L176.493 124.442L178.82 126.768C177.926 128.083 177.288 129.595 176.984 131.215H173.686V135.74H176.974C177.288 137.36 177.917 138.862 178.81 140.187L176.493 142.514L179.703 145.713L182.02 143.406C183.335 144.3 184.847 144.938 186.467 145.242V148.521H191.002V145.242C192.631 144.938 194.133 144.3 195.458 143.406L197.765 145.713L200.985 142.514L198.658 140.187C199.552 138.862 200.19 137.36 200.494 135.74H203.792ZM188.734 139.234C185.556 139.234 182.983 136.651 182.983 133.482C182.983 130.305 185.556 127.711 188.734 127.711C191.922 127.711 194.495 130.305 194.495 133.482C194.495 136.651 191.922 139.234 188.734 139.234Z" fill="white"/>
<path d="M360.723 348.542C360.723 348.542 384.158 328.015 383.992 323.777C383.826 319.538 374.934 322.447 374.352 319.622C373.77 316.796 387.649 305.41 385.654 303C383.66 300.59 378.424 307.156 377.593 303.998C376.762 300.84 386.914 284.664 375.765 283.637C361.531 282.325 367.696 301.277 365.376 301.754C362.416 302.363 357.94 297.366 353.29 301.512C345.089 308.826 360.723 348.542 360.723 348.542Z" fill="#3DCFA4"/>
<path d="M361.507 345.316C361.851 341.626 362.347 337.96 362.906 334.304C363.459 330.647 364.1 327.006 364.791 323.372C365.002 322.362 366.249 316.015 367.147 312.525C367.746 310.027 368.949 305.573 369.924 303.2L370.507 301.935L370.12 303.266C369.616 305.152 368.606 310.571 368.189 312.752L366.132 323.631C365.416 327.253 364.718 330.879 363.952 334.493C363.196 338.11 362.408 341.722 361.507 345.316Z" fill="#30BB93"/>
<path d="M366.997 318.226C367.574 316.772 368.702 315.189 369.718 314.001C370.737 312.809 372.135 311.452 373.477 310.666C372.903 312.118 371.77 313.711 370.756 314.89C369.743 316.07 368.348 317.432 366.997 318.226ZM363.487 336.766C364.37 335.451 365.824 334.122 367.077 333.163C368.336 332.199 370.006 331.147 371.497 330.646C370.621 331.955 369.166 333.289 367.907 334.249C366.655 335.203 364.991 336.258 363.487 336.766ZM364.046 331.01C362.552 329.176 360.979 326.452 359.961 324.43C358.948 322.436 357.681 319.529 357.097 317.236C358.568 319.037 360.152 321.76 361.182 323.815C362.21 325.848 363.459 328.718 364.046 331.01Z" fill="#30BB93"/>
<path d="M359.914 348.918C359.914 348.918 361.334 327.456 359.184 325.468C357.034 323.48 354.113 329.241 352.449 328.146C350.786 327.051 352.003 314.717 349.853 314.514C347.703 314.312 348.352 320.072 346.404 318.937C344.457 317.801 341.517 304.948 335.572 309.889C327.984 316.198 340.244 322.44 339.345 323.805C338.198 325.547 333.573 325.293 333.327 329.587C332.894 337.161 359.914 348.918 359.914 348.918Z" fill="#3DCFA4"/>
<path d="M358.722 346.96C357.089 344.991 355.541 342.958 354.03 340.901C352.514 338.846 351.05 336.755 349.613 334.644C347.726 331.759 345.741 328.886 343.55 324.875C341.777 321.464 342.314 322.222 341.938 321.389C343.14 323.466 342.996 323.204 343.947 324.637C344.25 325.11 343.941 324.648 350.394 334.116C351.813 336.233 353.242 338.344 354.633 340.483C356.029 342.618 357.408 344.765 358.722 346.96Z" fill="#30BB93"/>
<path d="M348.177 331.055C347.749 330.063 347.527 328.74 347.443 327.664C347.359 326.584 347.378 325.24 347.65 324.201C348.079 325.19 348.303 326.521 348.384 327.591C348.465 328.662 348.449 330.008 348.177 331.055ZM355.515 341.819C355.304 340.746 355.365 339.388 355.508 338.308C355.652 337.222 355.954 335.894 356.437 334.921C356.649 335.988 356.59 337.349 356.443 338.433C356.298 339.51 356.001 340.837 355.515 341.819ZM352.977 338.736C351.353 338.57 349.255 338.009 347.772 337.518C346.303 337.039 344.265 336.239 342.861 335.405C344.458 335.565 346.561 336.122 348.067 336.622C349.561 337.113 351.572 337.904 352.977 338.736Z" fill="#30BB93"/>
<path d="M372.091 345.217H346.371V350.266H372.091V345.217Z" fill="url(#paint35_linear_25_1184)"/>
<path d="M366.332 365.651H352.131L348.975 350.267H369.487L366.332 365.651Z" fill="url(#paint36_linear_25_1184)"/>
<defs>
<linearGradient id="paint0_linear_25_1184" x1="201.465" y1="44.3165" x2="315.849" y2="370.831" gradientUnits="userSpaceOnUse">
<stop stop-color="#CEDCF9" stop-opacity="0"/>
<stop offset="1" stop-color="#C3D2FF"/>
</linearGradient>
<linearGradient id="paint1_linear_25_1184" x1="255.536" y1="396.83" x2="257.319" y2="323.702" gradientUnits="userSpaceOnUse">
<stop stop-color="#CEDCF9" stop-opacity="0"/>
<stop offset="1" stop-color="#C3D2FF"/>
</linearGradient>
<linearGradient id="paint2_linear_25_1184" x1="423.798" y1="152.95" x2="441.659" y2="152.95" gradientUnits="userSpaceOnUse">
<stop stop-color="#D1DEFF"/>
<stop offset="1" stop-color="#B2C7FF"/>
</linearGradient>
<linearGradient id="paint3_linear_25_1184" x1="220.894" y1="60.3536" x2="437.171" y2="60.3536" gradientUnits="userSpaceOnUse">
<stop stop-color="#D1DEFF"/>
<stop offset="1" stop-color="#B2C7FF"/>
</linearGradient>
<linearGradient id="paint4_linear_25_1184" x1="254.552" y1="109.392" x2="274.905" y2="109.392" gradientUnits="userSpaceOnUse">
<stop stop-color="#EBF2FF"/>
<stop offset="1" stop-color="#E1E8FF"/>
</linearGradient>
<linearGradient id="paint5_linear_25_1184" x1="254.449" y1="192.882" x2="275.01" y2="192.882" gradientUnits="userSpaceOnUse">
<stop stop-color="#EBF2FF"/>
<stop offset="1" stop-color="#E1E8FF"/>
</linearGradient>
<linearGradient id="paint6_linear_25_1184" x1="248.666" y1="151.199" x2="256.837" y2="150.817" gradientUnits="userSpaceOnUse">
<stop stop-color="#D1DEFF"/>
<stop offset="1" stop-color="#B2C7FF"/>
</linearGradient>
<linearGradient id="paint7_linear_25_1184" x1="284.426" y1="150.464" x2="268.771" y2="152.56" gradientUnits="userSpaceOnUse">
<stop stop-color="#D1DEFF"/>
<stop offset="1" stop-color="#B2C7FF"/>
</linearGradient>
<linearGradient id="paint8_linear_25_1184" x1="244.122" y1="117.624" x2="285.334" y2="117.624" gradientUnits="userSpaceOnUse">
<stop stop-color="#EBF2FF"/>
<stop offset="1" stop-color="#E1E8FF"/>
</linearGradient>
<linearGradient id="paint9_linear_25_1184" x1="244.123" y1="117.622" x2="285.327" y2="117.622" gradientUnits="userSpaceOnUse">
<stop stop-color="#EBF2FF"/>
<stop offset="1" stop-color="#E1E8FF"/>
</linearGradient>
<linearGradient id="paint10_linear_25_1184" x1="255.982" y1="151.137" x2="273.473" y2="151.137" gradientUnits="userSpaceOnUse">
<stop stop-color="#EBF2FF"/>
<stop offset="1" stop-color="#E1E8FF"/>
</linearGradient>
<linearGradient id="paint11_linear_25_1184" x1="255.986" y1="117.623" x2="273.471" y2="117.623" gradientUnits="userSpaceOnUse">
<stop stop-color="#D1DEFF"/>
<stop offset="1" stop-color="#B2C7FF"/>
</linearGradient>
<linearGradient id="paint12_linear_25_1184" x1="244.131" y1="184.651" x2="285.334" y2="184.651" gradientUnits="userSpaceOnUse">
<stop stop-color="#EBF2FF"/>
<stop offset="1" stop-color="#E1E8FF"/>
</linearGradient>
<linearGradient id="paint13_linear_25_1184" x1="244.123" y1="184.649" x2="285.337" y2="184.649" gradientUnits="userSpaceOnUse">
<stop stop-color="#EBF2FF"/>
<stop offset="1" stop-color="#E1E8FF"/>
</linearGradient>
<linearGradient id="paint14_linear_25_1184" x1="255.987" y1="184.65" x2="273.472" y2="184.65" gradientUnits="userSpaceOnUse">
<stop stop-color="#D1DEFF"/>
<stop offset="1" stop-color="#B2C7FF"/>
</linearGradient>
<linearGradient id="paint15_linear_25_1184" x1="447.088" y1="139.304" x2="451.102" y2="139.304" gradientUnits="userSpaceOnUse">
<stop stop-color="#909EFF"/>
<stop offset="1" stop-color="#6977E3"/>
</linearGradient>
<linearGradient id="paint16_linear_25_1184" x1="407.313" y1="116.557" x2="340.879" y2="181.868" gradientUnits="userSpaceOnUse">
<stop stop-color="#909EFF"/>
<stop offset="1" stop-color="#6977E3"/>
</linearGradient>
<linearGradient id="paint17_linear_25_1184" x1="231.698" y1="95.2314" x2="236.493" y2="95.2314" gradientUnits="userSpaceOnUse">
<stop stop-color="#D1DEFF"/>
<stop offset="1" stop-color="#B2C7FF"/>
</linearGradient>
<linearGradient id="paint18_linear_25_1184" x1="253.96" y1="95.2314" x2="258.754" y2="95.2314" gradientUnits="userSpaceOnUse">
<stop stop-color="#D1DEFF"/>
<stop offset="1" stop-color="#B2C7FF"/>
</linearGradient>
<linearGradient id="paint19_linear_25_1184" x1="238.482" y1="91.3105" x2="251.952" y2="91.3105" gradientUnits="userSpaceOnUse">
<stop stop-color="#D1DEFF"/>
<stop offset="1" stop-color="#B2C7FF"/>
</linearGradient>
<linearGradient id="paint20_linear_25_1184" x1="238.482" y1="94.7452" x2="251.952" y2="94.7452" gradientUnits="userSpaceOnUse">
<stop stop-color="#D1DEFF"/>
<stop offset="1" stop-color="#B2C7FF"/>
</linearGradient>
<linearGradient id="paint21_linear_25_1184" x1="238.482" y1="98.1803" x2="251.952" y2="98.1803" gradientUnits="userSpaceOnUse">
<stop stop-color="#D1DEFF"/>
<stop offset="1" stop-color="#B2C7FF"/>
</linearGradient>
<linearGradient id="paint22_linear_25_1184" x1="241.1" y1="98.1803" x2="249.541" y2="98.1803" gradientUnits="userSpaceOnUse">
<stop stop-color="#D1DEFF"/>
<stop offset="1" stop-color="#B2C7FF"/>
</linearGradient>
<linearGradient id="paint23_linear_25_1184" x1="281.926" y1="194.924" x2="291.814" y2="194.924" gradientUnits="userSpaceOnUse">
<stop stop-color="#D1DEFF"/>
<stop offset="1" stop-color="#B2C7FF"/>
</linearGradient>
<linearGradient id="paint24_linear_25_1184" x1="293.378" y1="194.705" x2="301.478" y2="194.705" gradientUnits="userSpaceOnUse">
<stop stop-color="#D1DEFF"/>
<stop offset="1" stop-color="#B2C7FF"/>
</linearGradient>
<linearGradient id="paint25_linear_25_1184" x1="302.814" y1="196.59" x2="309.51" y2="196.59" gradientUnits="userSpaceOnUse">
<stop stop-color="#D1DEFF"/>
<stop offset="1" stop-color="#B2C7FF"/>
</linearGradient>
<linearGradient id="paint26_linear_25_1184" x1="348.726" y1="256.256" x2="348.726" y2="195.711" gradientUnits="userSpaceOnUse">
<stop stop-color="#EBF2FF"/>
<stop offset="0.627" stop-color="#E7EEFF"/>
<stop offset="1" stop-color="#E1E8FF"/>
</linearGradient>
<linearGradient id="paint27_linear_25_1184" x1="296.641" y1="241.754" x2="296.641" y2="220.204" gradientUnits="userSpaceOnUse">
<stop stop-color="#D1DEFF"/>
<stop offset="1" stop-color="#B2C7FF"/>
</linearGradient>
<linearGradient id="paint28_linear_25_1184" x1="364.069" y1="226.085" x2="364.069" y2="228.651" gradientUnits="userSpaceOnUse">
<stop stop-color="#D1DEFF"/>
<stop offset="1" stop-color="#B2C7FF"/>
</linearGradient>
<linearGradient id="paint29_linear_25_1184" x1="364.069" y1="233.37" x2="364.069" y2="235.936" gradientUnits="userSpaceOnUse">
<stop stop-color="#D1DEFF"/>
<stop offset="1" stop-color="#B2C7FF"/>
</linearGradient>
<linearGradient id="paint30_linear_25_1184" x1="364.069" y1="240.655" x2="364.069" y2="243.22" gradientUnits="userSpaceOnUse">
<stop stop-color="#D1DEFF"/>
<stop offset="1" stop-color="#B2C7FF"/>
</linearGradient>
<linearGradient id="paint31_linear_25_1184" x1="348.922" y1="247.94" x2="348.922" y2="250.506" gradientUnits="userSpaceOnUse">
<stop stop-color="#D1DEFF"/>
<stop offset="1" stop-color="#B2C7FF"/>
</linearGradient>
<linearGradient id="paint32_linear_25_1184" x1="348.922" y1="255.224" x2="348.922" y2="257.791" gradientUnits="userSpaceOnUse">
<stop stop-color="#D1DEFF"/>
<stop offset="1" stop-color="#B2C7FF"/>
</linearGradient>
<linearGradient id="paint33_linear_25_1184" x1="348.922" y1="262.509" x2="348.922" y2="265.075" gradientUnits="userSpaceOnUse">
<stop stop-color="#D1DEFF"/>
<stop offset="1" stop-color="#B2C7FF"/>
</linearGradient>
<linearGradient id="paint34_linear_25_1184" x1="212.207" y1="132.971" x2="165.272" y2="132.971" gradientUnits="userSpaceOnUse">
<stop stop-color="#D1DEFF"/>
<stop offset="1" stop-color="#B2C7FF"/>
</linearGradient>
<linearGradient id="paint35_linear_25_1184" x1="359.231" y1="347.062" x2="359.231" y2="348.654" gradientUnits="userSpaceOnUse">
<stop stop-color="#909EFF"/>
<stop offset="1" stop-color="#6977E3"/>
</linearGradient>
<linearGradient id="paint36_linear_25_1184" x1="359.231" y1="353.354" x2="359.231" y2="358.243" gradientUnits="userSpaceOnUse">
<stop stop-color="#909EFF"/>
<stop offset="1" stop-color="#6977E3"/>
</linearGradient>
</defs>
</svg>
