<svg width="43" height="42" viewBox="0 0 43 42" fill="none" xmlns="http://www.w3.org/2000/svg">
<circle cx="21.6947" cy="21.0811" r="20.9146" fill="#F8FDFF"/>
<g clip-path="url(#clip0_25_608)">
<path d="M21.6949 13.6128C23.7243 13.6128 23.9775 13.6203 24.7738 13.6576C25.5693 13.695 26.1108 13.8197 26.5874 14.0049C27.0804 14.1947 27.4957 14.4516 27.911 14.8662C28.2908 15.2396 28.5847 15.6913 28.7722 16.1898C28.9567 16.6656 29.0822 17.2079 29.1196 18.0034C29.1547 18.7996 29.1644 19.0528 29.1644 21.0823C29.1644 23.1118 29.1569 23.365 29.1196 24.1612C29.0822 24.9567 28.9567 25.4983 28.7722 25.9748C28.5852 26.4736 28.2913 26.9254 27.911 27.2984C27.5375 27.6781 27.0858 27.972 26.5874 28.1597C26.1116 28.3442 25.5693 28.4697 24.7738 28.507C23.9775 28.5421 23.7243 28.5518 21.6949 28.5518C19.6654 28.5518 19.4122 28.5444 18.6159 28.507C17.8204 28.4697 17.2789 28.3442 16.8023 28.1597C16.3036 27.9725 15.8518 27.6786 15.4787 27.2984C15.0988 26.9251 14.8049 26.4734 14.6175 25.9748C14.4322 25.499 14.3075 24.9567 14.2702 24.1612C14.2351 23.365 14.2253 23.1118 14.2253 21.0823C14.2253 19.0528 14.2328 18.7996 14.2702 18.0034C14.3075 17.2071 14.4322 16.6663 14.6175 16.1898C14.8044 15.6909 15.0984 15.2391 15.4787 14.8662C15.852 14.4862 16.3037 14.1922 16.8023 14.0049C17.2789 13.8197 17.8197 13.695 18.6159 13.6576C19.4122 13.6225 19.6654 13.6128 21.6949 13.6128ZM21.6949 17.3476C20.7043 17.3476 19.7544 17.741 19.054 18.4414C18.3536 19.1418 17.9601 20.0918 17.9601 21.0823C17.9601 22.0728 18.3536 23.0228 19.054 23.7232C19.7544 24.4236 20.7043 24.8171 21.6949 24.8171C22.6854 24.8171 23.6353 24.4236 24.3357 23.7232C25.0361 23.0228 25.4296 22.0728 25.4296 21.0823C25.4296 20.0918 25.0361 19.1418 24.3357 18.4414C23.6353 17.741 22.6854 17.3476 21.6949 17.3476ZM26.55 17.1608C26.55 16.9132 26.4517 16.6757 26.2766 16.5006C26.1015 16.3255 25.864 16.2271 25.6164 16.2271C25.3687 16.2271 25.1312 16.3255 24.9561 16.5006C24.781 16.6757 24.6827 16.9132 24.6827 17.1608C24.6827 17.4084 24.781 17.6459 24.9561 17.821C25.1312 17.9961 25.3687 18.0945 25.6164 18.0945C25.864 18.0945 26.1015 17.9961 26.2766 17.821C26.4517 17.6459 26.55 17.4084 26.55 17.1608ZM21.6949 18.8415C22.2892 18.8415 22.8591 19.0775 23.2794 19.4978C23.6996 19.918 23.9357 20.488 23.9357 21.0823C23.9357 21.6766 23.6996 22.2466 23.2794 22.6668C22.8591 23.0871 22.2892 23.3232 21.6949 23.3232C21.1005 23.3232 20.5306 23.0871 20.1103 22.6668C19.6901 22.2466 19.454 21.6766 19.454 21.0823C19.454 20.488 19.6901 19.918 20.1103 19.4978C20.5306 19.0775 21.1005 18.8415 21.6949 18.8415Z" fill="#03171C"/>
</g>
<defs>
<clipPath id="clip0_25_608">
<rect width="17.9268" height="17.9268" fill="white" transform="translate(12.7312 12.1187)"/>
</clipPath>
</defs>
</svg>
