<svg width="42" height="42" viewBox="0 0 42 42" fill="none" xmlns="http://www.w3.org/2000/svg">
<circle cx="21.0853" cy="21.0811" r="20.9146" fill="#F8FDFF"/>
<g clip-path="url(#clip0_25_603)">
<path d="M17.0463 15.528C17.0461 15.9489 16.8787 16.3526 16.5809 16.6501C16.283 16.9476 15.8792 17.1146 15.4583 17.1144C15.0373 17.1142 14.6337 16.9468 14.3362 16.649C14.0386 16.3512 13.8716 15.9473 13.8718 15.5264C13.872 15.1054 14.0395 14.7018 14.3373 14.4043C14.6351 14.1068 15.0389 13.9397 15.4599 13.9399C15.8808 13.9402 16.2845 14.1076 16.582 14.4054C16.8795 14.7032 17.0465 15.107 17.0463 15.528ZM17.0939 18.2898H13.9194V28.2259H17.0939V18.2898ZM22.1096 18.2898H18.951V28.2259H22.0779V23.0118C22.0779 20.1072 25.8634 19.8373 25.8634 23.0118V28.2259H28.9982V21.9325C28.9982 17.0359 23.3953 17.2184 22.0779 19.6231L22.1096 18.2898Z" fill="#03171C"/>
</g>
<defs>
<clipPath id="clip0_25_603">
<rect width="17.9268" height="17.9268" fill="white" transform="translate(12.1199 12.1187)"/>
</clipPath>
</defs>
</svg>
