<svg width="24" height="25" viewBox="0 0 24 25" fill="none" xmlns="http://www.w3.org/2000/svg">
<path fill-rule="evenodd" clip-rule="evenodd" d="M16.939 3.0835C18.28 3.0835 19.57 3.6135 20.519 4.5645C21.469 5.5135 22 6.7935 22 8.1335V16.0335C22 18.8235 19.73 21.0835 16.939 21.0835H7.06C4.269 21.0835 2 18.8235 2 16.0335V8.1335C2 5.3435 4.259 3.0835 7.06 3.0835H16.939ZM18.53 9.62334L18.61 9.54334C18.849 9.25334 18.849 8.83334 18.599 8.54334C18.46 8.39434 18.269 8.30334 18.07 8.28334C17.86 8.27234 17.66 8.34334 17.509 8.48334L13 12.0833C12.42 12.5643 11.589 12.5643 11 12.0833L6.49999 8.48334C6.18899 8.25334 5.75899 8.28334 5.49999 8.55334C5.22999 8.82334 5.19999 9.25334 5.42899 9.55334L5.55999 9.68334L10.11 13.2333C10.67 13.6733 11.349 13.9133 12.06 13.9133C12.769 13.9133 13.46 13.6733 14.019 13.2333L18.53 9.62334Z" fill="#7432FF"/>
</svg>
