<svg width="20" height="20" viewBox="0 0 20 20" fill="none" xmlns="http://www.w3.org/2000/svg">
<path d="M19.0239 12.0153C20.4159 5.7753 14.9439 0.111295 8.5119 1.1913C5.0319 -0.968705 0.399902 1.4793 0.399902 5.6313C0.399902 6.5913 0.663902 7.5033 1.1199 8.2713C-0.152097 14.5353 5.3439 20.1273 11.7759 18.9513C16.3119 21.3513 21.3039 16.5753 19.0239 12.0153ZM12.9279 15.7833C11.2479 16.4793 8.4639 16.4793 6.7839 15.5913C4.3839 14.3193 3.9759 11.4393 6.0399 11.4393C7.5999 11.4393 7.0959 13.2633 8.6799 13.9833C9.3999 14.3193 10.9599 14.3433 11.8479 13.7433C12.7359 13.1433 12.6639 12.2073 12.1839 11.7753C10.9119 10.5993 7.2399 11.0553 5.5599 8.9913C4.8399 8.1033 4.6959 6.5193 5.5839 5.3673C7.1439 3.3513 11.7279 3.2313 13.6959 4.7433C15.5199 6.1593 15.0159 8.0073 13.5519 8.0073C11.7999 8.0073 12.7119 5.7033 9.8559 5.7033C7.7919 5.7033 6.9759 7.1673 8.4399 7.8873C10.4079 8.8953 15.4239 8.5593 15.4239 12.3993C15.4239 13.9833 14.4399 15.1593 12.9279 15.7833Z" fill="#7432FF"/>
</svg>
