<svg width="215" height="31" viewBox="0 0 215 31" fill="none" xmlns="http://www.w3.org/2000/svg">
<path d="M48.7443 12.2651C48.6676 11.6173 48.3565 11.1145 47.8111 10.7565C47.2656 10.3986 46.5966 10.2196 45.804 10.2196C45.2244 10.2196 44.7173 10.3134 44.2827 10.5009C43.8523 10.6884 43.5156 10.9462 43.2727 11.2743C43.0341 11.6024 42.9148 11.9753 42.9148 12.3929C42.9148 12.7423 42.9979 13.0428 43.1641 13.2942C43.3345 13.5413 43.5518 13.748 43.8161 13.9142C44.0803 14.0761 44.3572 14.2104 44.647 14.3169C44.9368 14.4192 45.2031 14.5023 45.446 14.5662L46.7756 14.9242C47.1165 15.0136 47.4957 15.1372 47.9134 15.2949C48.3352 15.4526 48.7379 15.6678 49.1214 15.9405C49.5092 16.209 49.8288 16.5541 50.0803 16.976C50.3317 17.3979 50.4574 17.9156 50.4574 18.5293C50.4574 19.2367 50.272 19.8759 49.9013 20.4469C49.5348 21.0179 48.9979 21.4717 48.2905 21.8084C47.5874 22.145 46.733 22.3134 45.7273 22.3134C44.7898 22.3134 43.978 22.1621 43.2919 21.8595C42.6101 21.557 42.0732 21.1351 41.6811 20.5939C41.2933 20.0527 41.0739 19.4242 41.0227 18.7083H42.6591C42.7017 19.2026 42.8679 19.6117 43.1577 19.9355C43.4517 20.2551 43.8224 20.4938 44.2699 20.6514C44.7216 20.8048 45.2074 20.8815 45.7273 20.8815C46.3324 20.8815 46.8757 20.7835 47.3572 20.5875C47.8388 20.3872 48.2202 20.1102 48.5014 19.7565C48.7827 19.3986 48.9233 18.981 48.9233 18.5037C48.9233 18.069 48.8018 17.7154 48.5589 17.4426C48.3161 17.1699 47.9964 16.9483 47.6001 16.7779C47.2038 16.6074 46.7756 16.4583 46.3153 16.3304L44.7045 15.8702C43.6818 15.5761 42.8722 15.1564 42.2756 14.611C41.679 14.0655 41.3807 13.3517 41.3807 12.4696C41.3807 11.7367 41.5788 11.0975 41.9751 10.552C42.3757 10.0023 42.9126 9.57615 43.5859 9.27359C44.2635 8.96677 45.0199 8.81337 45.8551 8.81337C46.6989 8.81337 47.4489 8.96464 48.1051 9.2672C48.7614 9.5655 49.2813 9.97459 49.6648 10.4945C50.0526 11.0144 50.2571 11.6046 50.2784 12.2651H48.7443ZM54.2654 18.5037L54.2399 16.6372H54.5467L58.8422 12.2651H60.7086L56.1319 16.8929H56.0041L54.2654 18.5037ZM52.8592 22.0833V8.99234H54.3677V22.0833H52.8592ZM59.0978 22.0833L55.2626 17.2253L56.3365 16.177L61.0154 22.0833H59.0978ZM63.6218 25.7651C63.3661 25.7651 63.1381 25.7438 62.9379 25.7011C62.7376 25.6628 62.5991 25.6244 62.5224 25.5861L62.9059 24.2565C63.2724 24.3503 63.5962 24.3844 63.8775 24.3588C64.1587 24.3333 64.408 24.2075 64.6254 23.9817C64.8469 23.7601 65.0494 23.4 65.2326 22.9014L65.5138 22.1344L61.8832 12.2651H63.5195L66.2298 20.0889H66.332L69.0423 12.2651H70.6786L66.511 23.5151C66.3235 24.0222 66.0913 24.4419 65.8143 24.7743C65.5373 25.111 65.2156 25.3602 64.8491 25.5222C64.4869 25.6841 64.0778 25.7651 63.6218 25.7651ZM72.6697 25.7651V12.2651H74.1271V13.8247H74.3061C74.4169 13.6543 74.5703 13.4369 74.7663 13.1727C74.9666 12.9043 75.2521 12.6656 75.6229 12.4568C75.9979 12.2438 76.505 12.1372 77.1442 12.1372C77.9709 12.1372 78.6996 12.3439 79.3303 12.7573C79.9609 13.1706 80.4531 13.7565 80.8068 14.5151C81.1605 15.2736 81.3374 16.1685 81.3374 17.1997C81.3374 18.2395 81.1605 19.1408 80.8068 19.9036C80.4531 20.6621 79.9631 21.2502 79.3366 21.6678C78.7102 22.0811 77.9879 22.2878 77.1697 22.2878C76.5391 22.2878 76.0341 22.1834 75.6548 21.9746C75.2756 21.7615 74.9837 21.5208 74.7791 21.2523C74.5746 20.9796 74.4169 20.7537 74.3061 20.5747H74.1783V25.7651H72.6697ZM74.1527 17.1742C74.1527 17.9156 74.2614 18.5698 74.4787 19.1365C74.696 19.699 75.0135 20.1401 75.4311 20.4597C75.8487 20.775 76.3601 20.9327 76.9652 20.9327C77.5959 20.9327 78.1222 20.7665 78.544 20.4341C78.9702 20.0975 79.2898 19.6458 79.5028 19.079C79.7202 18.508 79.8288 17.873 79.8288 17.1742C79.8288 16.4838 79.7223 15.8617 79.5092 15.3077C79.3004 14.7494 78.983 14.3084 78.5568 13.9845C78.1349 13.6564 77.6044 13.4923 76.9652 13.4923C76.3516 13.4923 75.8359 13.6479 75.4183 13.959C75.0007 14.2658 74.6854 14.6962 74.4723 15.2502C74.2592 15.7999 74.1527 16.4412 74.1527 17.1742ZM87.755 22.2878C86.8089 22.2878 85.9929 22.079 85.3068 21.6614C84.625 21.2395 84.0987 20.6514 83.728 19.8972C83.3615 19.1386 83.1783 18.2565 83.1783 17.2509C83.1783 16.2452 83.3615 15.3588 83.728 14.5918C84.0987 13.8205 84.6143 13.2196 85.2749 12.7892C85.9396 12.3546 86.7152 12.1372 87.6016 12.1372C88.1129 12.1372 88.6179 12.2225 89.1165 12.3929C89.6151 12.5634 90.0689 12.8404 90.478 13.2239C90.8871 13.6031 91.2131 14.106 91.456 14.7324C91.6989 15.3588 91.8203 16.1301 91.8203 17.0463V17.6855H84.2521V16.3815H90.2862C90.2862 15.8276 90.1754 15.3333 89.9538 14.8986C89.7365 14.4639 89.4254 14.1209 89.0206 13.8695C88.62 13.6181 88.147 13.4923 87.6016 13.4923C87.0007 13.4923 86.4808 13.6415 86.0419 13.9398C85.6072 14.2338 85.2727 14.6173 85.0384 15.0904C84.804 15.5634 84.6868 16.0705 84.6868 16.6117V17.481C84.6868 18.2225 84.8146 18.851 85.0703 19.3666C85.3303 19.878 85.6903 20.2679 86.1506 20.5364C86.6108 20.8006 87.1456 20.9327 87.755 20.9327C88.1513 20.9327 88.5092 20.8773 88.8288 20.7665C89.1527 20.6514 89.4318 20.481 89.6662 20.2551C89.9006 20.025 90.0817 19.7395 90.2095 19.3986L91.6669 19.8077C91.5135 20.302 91.2557 20.7367 90.8935 21.1117C90.5313 21.4824 90.0838 21.7722 89.5511 21.981C89.0185 22.1855 88.4197 22.2878 87.755 22.2878ZM95.2145 22.1855C94.8991 22.1855 94.6286 22.0726 94.4027 21.8467C94.1768 21.6209 94.0639 21.3503 94.0639 21.035C94.0639 20.7196 94.1768 20.449 94.4027 20.2232C94.6286 19.9973 94.8991 19.8844 95.2145 19.8844C95.5298 19.8844 95.8004 19.9973 96.0263 20.2232C96.2521 20.449 96.3651 20.7196 96.3651 21.035C96.3651 21.2438 96.3118 21.4355 96.2053 21.6102C96.103 21.785 95.9645 21.9256 95.7898 22.0321C95.6193 22.1344 95.4276 22.1855 95.2145 22.1855ZM95.2145 14.8986C94.8991 14.8986 94.6286 14.7857 94.4027 14.5598C94.1768 14.334 94.0639 14.0634 94.0639 13.748C94.0639 13.4327 94.1768 13.1621 94.4027 12.9362C94.6286 12.7104 94.8991 12.5975 95.2145 12.5975C95.5298 12.5975 95.8004 12.7104 96.0263 12.9362C96.2521 13.1621 96.3651 13.4327 96.3651 13.748C96.3651 13.9568 96.3118 14.1486 96.2053 14.3233C96.103 14.498 95.9645 14.6386 95.7898 14.7452C95.6193 14.8475 95.4276 14.8986 95.2145 14.8986ZM99.0721 22.0833V12.2651H100.529V13.748H100.632C100.811 13.2622 101.135 12.8681 101.603 12.5655C102.072 12.2629 102.6 12.1117 103.189 12.1117C103.299 12.1117 103.438 12.1138 103.604 12.1181C103.77 12.1223 103.896 12.1287 103.981 12.1372V13.6713C103.93 13.6585 103.813 13.6394 103.63 13.6138C103.451 13.584 103.261 13.569 103.061 13.569C102.583 13.569 102.157 13.6692 101.782 13.8695C101.412 14.0655 101.118 14.3382 100.9 14.6877C100.687 15.0328 100.581 15.427 100.581 15.8702V22.0833H99.0721ZM109.587 22.2878C108.641 22.2878 107.825 22.079 107.139 21.6614C106.457 21.2395 105.931 20.6514 105.56 19.8972C105.194 19.1386 105.01 18.2565 105.01 17.2509C105.01 16.2452 105.194 15.3588 105.56 14.5918C105.931 13.8205 106.446 13.2196 107.107 12.7892C107.772 12.3546 108.547 12.1372 109.434 12.1372C109.945 12.1372 110.45 12.2225 110.949 12.3929C111.447 12.5634 111.901 12.8404 112.31 13.2239C112.719 13.6031 113.045 14.106 113.288 14.7324C113.531 15.3588 113.652 16.1301 113.652 17.0463V17.6855H106.084V16.3815H112.118C112.118 15.8276 112.007 15.3333 111.786 14.8986C111.569 14.4639 111.257 14.1209 110.853 13.8695C110.452 13.6181 109.979 13.4923 109.434 13.4923C108.833 13.4923 108.313 13.6415 107.874 13.9398C107.439 14.2338 107.105 14.6173 106.87 15.0904C106.636 15.5634 106.519 16.0705 106.519 16.6117V17.481C106.519 18.2225 106.647 18.851 106.902 19.3666C107.162 19.878 107.522 20.2679 107.983 20.5364C108.443 20.8006 108.978 20.9327 109.587 20.9327C109.983 20.9327 110.341 20.8773 110.661 20.7665C110.985 20.6514 111.264 20.481 111.498 20.2551C111.733 20.025 111.914 19.7395 112.042 19.3986L113.499 19.8077C113.346 20.302 113.088 20.7367 112.725 21.1117C112.363 21.4824 111.916 21.7722 111.383 21.981C110.85 22.1855 110.252 22.2878 109.587 22.2878ZM118.836 22.3134C118.214 22.3134 117.65 22.1962 117.142 21.9618C116.635 21.7232 116.233 21.3801 115.934 20.9327C115.636 20.481 115.487 19.9355 115.487 19.2963C115.487 18.7338 115.598 18.2779 115.819 17.9284C116.041 17.5747 116.337 17.2977 116.708 17.0975C117.078 16.8972 117.488 16.748 117.935 16.65C118.387 16.5477 118.841 16.4668 119.297 16.4071C119.893 16.3304 120.377 16.2729 120.748 16.2345C121.123 16.1919 121.395 16.1216 121.566 16.0236C121.74 15.9256 121.828 15.7551 121.828 15.5122V15.4611C121.828 14.8304 121.655 14.3404 121.31 13.9909C120.969 13.6415 120.451 13.4668 119.757 13.4668C119.037 13.4668 118.472 13.6244 118.063 13.9398C117.654 14.2551 117.366 14.5918 117.2 14.9497L115.768 14.4384C116.024 13.8418 116.365 13.3773 116.791 13.0449C117.221 12.7083 117.69 12.4739 118.197 12.3418C118.708 12.2054 119.211 12.1372 119.706 12.1372C120.021 12.1372 120.383 12.1756 120.792 12.2523C121.206 12.3247 121.604 12.476 121.988 12.7061C122.375 12.9362 122.697 13.2835 122.953 13.748C123.208 14.2125 123.336 14.8347 123.336 15.6145V22.0833H121.828V20.7537H121.751C121.649 20.9668 121.478 21.1948 121.24 21.4377C121.001 21.6806 120.684 21.8872 120.287 22.0577C119.891 22.2281 119.407 22.3134 118.836 22.3134ZM119.066 20.9583C119.663 20.9583 120.166 20.8411 120.575 20.6067C120.988 20.3723 121.299 20.0698 121.508 19.699C121.721 19.3283 121.828 18.9384 121.828 18.5293V17.1486C121.764 17.2253 121.623 17.2956 121.406 17.3595C121.193 17.4192 120.946 17.4725 120.664 17.5193C120.387 17.5619 120.117 17.6003 119.853 17.6344C119.593 17.6642 119.382 17.6898 119.22 17.7111C118.828 17.7622 118.461 17.8453 118.12 17.9604C117.784 18.0712 117.511 18.2395 117.302 18.4654C117.098 18.6869 116.995 18.9895 116.995 19.373C116.995 19.8972 117.189 20.2935 117.577 20.5619C117.969 20.8261 118.466 20.9583 119.066 20.9583ZM130.078 22.2878C129.158 22.2878 128.365 22.0705 127.7 21.6358C127.036 21.2011 126.524 20.6024 126.166 19.8396C125.808 19.0769 125.629 18.2054 125.629 17.2253C125.629 16.2281 125.813 15.3482 126.179 14.5854C126.55 13.8183 127.066 13.2196 127.726 12.7892C128.391 12.3546 129.166 12.1372 130.053 12.1372C130.743 12.1372 131.365 12.2651 131.919 12.5208C132.473 12.7764 132.927 13.1344 133.281 13.5946C133.634 14.0548 133.854 14.5918 133.939 15.2054H132.431C132.316 14.758 132.06 14.3617 131.664 14.0165C131.271 13.6671 130.743 13.4923 130.078 13.4923C129.49 13.4923 128.975 13.6458 128.531 13.9526C128.093 14.2551 127.749 14.6834 127.502 15.2374C127.259 15.7871 127.138 16.4327 127.138 17.1742C127.138 17.9327 127.257 18.5932 127.496 19.1557C127.739 19.7182 128.08 20.155 128.519 20.4661C128.962 20.7771 129.482 20.9327 130.078 20.9327C130.47 20.9327 130.826 20.8645 131.146 20.7281C131.465 20.5918 131.736 20.3958 131.958 20.1401C132.179 19.8844 132.337 19.5776 132.431 19.2196H133.939C133.854 19.7992 133.643 20.3212 133.306 20.7857C132.974 21.2459 132.533 21.6124 131.983 21.8851C131.438 22.1536 130.803 22.2878 130.078 22.2878ZM140.414 12.2651V13.5435H135.326V12.2651H140.414ZM136.809 9.9128H138.318V19.2708C138.318 19.6969 138.379 20.0165 138.503 20.2296C138.631 20.4384 138.793 20.579 138.989 20.6514C139.189 20.7196 139.4 20.7537 139.622 20.7537C139.788 20.7537 139.924 20.7452 140.031 20.7281C140.137 20.7068 140.222 20.6898 140.286 20.677L140.593 22.0321C140.491 22.0705 140.348 22.1088 140.165 22.1472C139.982 22.1898 139.749 22.2111 139.468 22.2111C139.042 22.2111 138.624 22.1195 138.215 21.9362C137.811 21.753 137.474 21.4739 137.205 21.0989C136.941 20.7239 136.809 20.2509 136.809 19.6798V9.9128ZM144.192 16.177V22.0833H142.683V12.2651H144.141V13.7992H144.269C144.499 13.3006 144.848 12.9 145.317 12.5975C145.786 12.2906 146.391 12.1372 147.132 12.1372C147.797 12.1372 148.379 12.2736 148.877 12.5463C149.376 12.8148 149.764 13.2239 150.041 13.7736C150.318 14.319 150.456 15.0094 150.456 15.8446V22.0833H148.948V15.9469C148.948 15.1756 148.747 14.5747 148.347 14.1443C147.946 13.7097 147.396 13.4923 146.698 13.4923C146.216 13.4923 145.786 13.5967 145.406 13.8056C145.031 14.0144 144.735 14.319 144.518 14.7196C144.301 15.1202 144.192 15.606 144.192 16.177ZM156.102 22.3134C155.48 22.3134 154.915 22.1962 154.408 21.9618C153.901 21.7232 153.498 21.3801 153.2 20.9327C152.902 20.481 152.752 19.9355 152.752 19.2963C152.752 18.7338 152.863 18.2779 153.085 17.9284C153.306 17.5747 153.603 17.2977 153.973 17.0975C154.344 16.8972 154.753 16.748 155.201 16.65C155.652 16.5477 156.106 16.4668 156.562 16.4071C157.159 16.3304 157.642 16.2729 158.013 16.2345C158.388 16.1919 158.661 16.1216 158.831 16.0236C159.006 15.9256 159.093 15.7551 159.093 15.5122V15.4611C159.093 14.8304 158.921 14.3404 158.576 13.9909C158.235 13.6415 157.717 13.4668 157.022 13.4668C156.302 13.4668 155.738 13.6244 155.328 13.9398C154.919 14.2551 154.632 14.5918 154.466 14.9497L153.034 14.4384C153.289 13.8418 153.63 13.3773 154.056 13.0449C154.487 12.7083 154.956 12.4739 155.463 12.3418C155.974 12.2054 156.477 12.1372 156.971 12.1372C157.287 12.1372 157.649 12.1756 158.058 12.2523C158.471 12.3247 158.87 12.476 159.253 12.7061C159.641 12.9362 159.963 13.2835 160.218 13.748C160.474 14.2125 160.602 14.8347 160.602 15.6145V22.0833H159.093V20.7537H159.017C158.914 20.9668 158.744 21.1948 158.505 21.4377C158.267 21.6806 157.949 21.8872 157.553 22.0577C157.157 22.2281 156.673 22.3134 156.102 22.3134ZM156.332 20.9583C156.929 20.9583 157.431 20.8411 157.841 20.6067C158.254 20.3723 158.565 20.0698 158.774 19.699C158.987 19.3283 159.093 18.9384 159.093 18.5293V17.1486C159.029 17.2253 158.889 17.2956 158.672 17.3595C158.458 17.4192 158.211 17.4725 157.93 17.5193C157.653 17.5619 157.382 17.6003 157.118 17.6344C156.858 17.6642 156.647 17.6898 156.485 17.7111C156.093 17.7622 155.727 17.8453 155.386 17.9604C155.049 18.0712 154.777 18.2395 154.568 18.4654C154.363 18.6869 154.261 18.9895 154.261 19.373C154.261 19.8972 154.455 20.2935 154.843 20.5619C155.235 20.8261 155.731 20.9583 156.332 20.9583ZM167.625 12.2651V13.5435H162.537V12.2651H167.625ZM164.02 9.9128H165.529V19.2708C165.529 19.6969 165.59 20.0165 165.714 20.2296C165.842 20.4384 166.004 20.579 166.2 20.6514C166.4 20.7196 166.611 20.7537 166.833 20.7537C166.999 20.7537 167.135 20.7452 167.242 20.7281C167.348 20.7068 167.433 20.6898 167.497 20.677L167.804 22.0321C167.702 22.0705 167.559 22.1088 167.376 22.1472C167.193 22.1898 166.96 22.2111 166.679 22.2111C166.253 22.2111 165.835 22.1195 165.426 21.9362C165.021 21.753 164.685 21.4739 164.416 21.0989C164.152 20.7239 164.02 20.2509 164.02 19.6798V9.9128ZM169.894 22.0833V12.2651H171.403V22.0833H169.894ZM170.661 10.6287C170.367 10.6287 170.114 10.5286 169.901 10.3283C169.692 10.128 169.588 9.88723 169.588 9.60598C169.588 9.32473 169.692 9.08396 169.901 8.88368C170.114 8.68339 170.367 8.58325 170.661 8.58325C170.955 8.58325 171.207 8.68339 171.416 8.88368C171.629 9.08396 171.735 9.32473 171.735 9.60598C171.735 9.88723 171.629 10.128 171.416 10.3283C171.207 10.5286 170.955 10.6287 170.661 10.6287ZM182.194 12.2651L178.564 22.0833H177.029L173.399 12.2651H175.035L177.745 20.0889H177.848L180.558 12.2651H182.194ZM187.95 22.2878C187.004 22.2878 186.188 22.079 185.502 21.6614C184.82 21.2395 184.294 20.6514 183.923 19.8972C183.557 19.1386 183.374 18.2565 183.374 17.2509C183.374 16.2452 183.557 15.3588 183.923 14.5918C184.294 13.8205 184.81 13.2196 185.47 12.7892C186.135 12.3546 186.911 12.1372 187.797 12.1372C188.308 12.1372 188.813 12.2225 189.312 12.3929C189.81 12.5634 190.264 12.8404 190.673 13.2239C191.082 13.6031 191.408 14.106 191.651 14.7324C191.894 15.3588 192.016 16.1301 192.016 17.0463V17.6855H184.447V16.3815H190.482C190.482 15.8276 190.371 15.3333 190.149 14.8986C189.932 14.4639 189.621 14.1209 189.216 13.8695C188.815 13.6181 188.342 13.4923 187.797 13.4923C187.196 13.4923 186.676 13.6415 186.237 13.9398C185.803 14.2338 185.468 14.6173 185.234 15.0904C184.999 15.5634 184.882 16.0705 184.882 16.6117V17.481C184.882 18.2225 185.01 18.851 185.266 19.3666C185.526 19.878 185.886 20.2679 186.346 20.5364C186.806 20.8006 187.341 20.9327 187.95 20.9327C188.347 20.9327 188.705 20.8773 189.024 20.7665C189.348 20.6514 189.627 20.481 189.862 20.2551C190.096 20.025 190.277 19.7395 190.405 19.3986L191.862 19.8077C191.709 20.302 191.451 20.7367 191.089 21.1117C190.727 21.4824 190.279 21.7722 189.746 21.981C189.214 22.1855 188.615 22.2878 187.95 22.2878ZM194.515 22.0833V8.99234H196.1V20.677H202.185V22.0833H194.515ZM211.799 12.2651C211.722 11.6173 211.411 11.1145 210.866 10.7565C210.32 10.3986 209.651 10.2196 208.859 10.2196C208.279 10.2196 207.772 10.3134 207.337 10.5009C206.907 10.6884 206.57 10.9462 206.327 11.2743C206.089 11.6024 205.969 11.9753 205.969 12.3929C205.969 12.7423 206.053 13.0428 206.219 13.2942C206.389 13.5413 206.607 13.748 206.871 13.9142C207.135 14.0761 207.412 14.2104 207.702 14.3169C207.991 14.4192 208.258 14.5023 208.501 14.5662L209.83 14.9242C210.171 15.0136 210.55 15.1372 210.968 15.2949C211.39 15.4526 211.793 15.6678 212.176 15.9405C212.564 16.209 212.884 16.5541 213.135 16.976C213.386 17.3979 213.512 17.9156 213.512 18.5293C213.512 19.2367 213.327 19.8759 212.956 20.4469C212.589 21.0179 212.053 21.4717 211.345 21.8084C210.642 22.145 209.788 22.3134 208.782 22.3134C207.844 22.3134 207.033 22.1621 206.347 21.8595C205.665 21.557 205.128 21.1351 204.736 20.5939C204.348 20.0527 204.129 19.4242 204.077 18.7083H205.714C205.756 19.2026 205.923 19.6117 206.212 19.9355C206.506 20.2551 206.877 20.4938 207.325 20.6514C207.776 20.8048 208.262 20.8815 208.782 20.8815C209.387 20.8815 209.93 20.7835 210.412 20.5875C210.893 20.3872 211.275 20.1102 211.556 19.7565C211.837 19.3986 211.978 18.981 211.978 18.5037C211.978 18.069 211.857 17.7154 211.614 17.4426C211.371 17.1699 211.051 16.9483 210.655 16.7779C210.259 16.6074 209.83 16.4583 209.37 16.3304L207.759 15.8702C206.737 15.5761 205.927 15.1564 205.33 14.611C204.734 14.0655 204.435 13.3517 204.435 12.4696C204.435 11.7367 204.634 11.0975 205.03 10.552C205.43 10.0023 205.967 9.57615 206.641 9.27359C207.318 8.96677 208.075 8.81337 208.91 8.81337C209.754 8.81337 210.504 8.96464 211.16 9.2672C211.816 9.5655 212.336 9.97459 212.719 10.4945C213.107 11.0144 213.312 11.6046 213.333 12.2651H211.799Z" fill="#142032"/>
<path d="M21.0239 18.0155C22.4159 11.7755 16.9439 6.11154 10.5119 7.19154C7.0319 5.03154 2.3999 7.47954 2.3999 11.6315C2.3999 12.5915 2.6639 13.5035 3.1199 14.2715C1.8479 20.5355 7.3439 26.1275 13.7759 24.9515C18.3119 27.3515 23.3039 22.5755 21.0239 18.0155ZM14.9279 21.7835C13.2479 22.4795 10.4639 22.4795 8.7839 21.5915C6.3839 20.3195 5.9759 17.4395 8.0399 17.4395C9.5999 17.4395 9.0959 19.2635 10.6799 19.9835C11.3999 20.3195 12.9599 20.3435 13.8479 19.7435C14.7359 19.1435 14.6639 18.2075 14.1839 17.7755C12.9119 16.5995 9.2399 17.0555 7.5599 14.9915C6.8399 14.1035 6.6959 12.5195 7.5839 11.3675C9.1439 9.35154 13.7279 9.23154 15.6959 10.7435C17.5199 12.1595 17.0159 14.0075 15.5519 14.0075C13.7999 14.0075 14.7119 11.7035 11.8559 11.7035C9.7919 11.7035 8.9759 13.1675 10.4399 13.8875C12.4079 14.8955 17.4239 14.5595 17.4239 18.3995C17.4239 19.9835 16.4399 21.1595 14.9279 21.7835Z" fill="#7432FF"/>
</svg>
