<svg width="43" height="42" viewBox="0 0 43 42" fill="none" xmlns="http://www.w3.org/2000/svg">
<circle cx="21.9134" cy="21.0811" r="20.9146" fill="#F8FDFF"/>
<g clip-path="url(#clip0_25_598)">
<path d="M30.9986 15.4176C30.3164 15.7194 29.593 15.9175 28.8523 16.0056C29.6331 15.5386 30.2174 14.8038 30.4964 13.938C29.7637 14.374 28.9605 14.6796 28.1232 14.8449C27.5609 14.2432 26.8154 13.8441 26.0029 13.7097C25.1903 13.5754 24.3561 13.7132 23.6299 14.1019C22.9038 14.4905 22.3264 15.1082 21.9875 15.8588C21.6486 16.6095 21.5672 17.4511 21.756 18.2528C20.2701 18.1783 18.8166 17.7922 17.4897 17.1195C16.1627 16.4468 14.9921 15.5026 14.0538 14.3481C13.7217 14.9186 13.5471 15.5671 13.5481 16.2272C13.5481 17.5228 14.2075 18.6674 15.21 19.3375C14.6167 19.3188 14.0365 19.1586 13.5177 18.8702V18.9167C13.5179 19.7795 13.8165 20.6158 14.3628 21.2837C14.9092 21.9515 15.6697 22.4099 16.5155 22.581C15.9647 22.7303 15.3872 22.7523 14.8267 22.6453C15.0652 23.3881 15.5299 24.0376 16.1559 24.5031C16.7819 24.9685 17.5378 25.2266 18.3177 25.241C17.5425 25.8498 16.655 26.2998 15.7058 26.5654C14.7566 26.8309 13.7644 26.9068 12.7859 26.7886C14.494 27.8871 16.4825 28.4703 18.5134 28.4684C25.3873 28.4684 29.1463 22.774 29.1463 17.8355C29.1463 17.6747 29.1418 17.5121 29.1347 17.353C29.8664 16.8242 30.4979 16.1691 30.9995 15.4185L30.9986 15.4176Z" fill="#03171C"/>
</g>
<defs>
<clipPath id="clip0_25_598">
<rect width="17.9268" height="17.9268" fill="white" transform="translate(12.95 12.1187)"/>
</clipPath>
</defs>
</svg>
