<svg width="100" height="140" viewBox="0 0 100 140" fill="none" xmlns="http://www.w3.org/2000/svg">
<g clip-path="url(#clip0_161_1537)">
<path d="M36.6578 48.2736C29.8294 48.4139 24.8033 46.3856 20.0842 43.6393C16.7764 41.7144 15.1215 38.571 14.9252 34.779C14.7583 31.5504 15.0131 28.3703 16.1998 25.2906C17.0943 22.9693 18.8217 21.4299 20.8157 20.1455C24.5228 17.7574 28.0935 14.9536 32.8078 14.8568C38.6946 14.7358 44.2315 15.9324 48.8793 19.769C50.847 21.393 52.1678 23.3211 51.7255 26.122C51.2863 28.9011 47.8556 30.0241 45.8004 30.0021C44.8489 29.9925 44.3701 29.2091 43.8113 28.7468C41.2688 26.643 38.0872 26.2149 35.1196 25.2209C34.5089 25.0166 34.3405 25.4318 34.2387 25.8938C33.5785 28.8913 33.7732 31.613 36.5433 33.6522C38.0111 34.7329 39.4031 35.9023 41.1136 36.6166C41.4941 36.7839 41.9043 36.8751 42.3207 36.885C42.7372 36.8948 43.1514 36.8232 43.5396 36.6741C44.566 36.3208 45.8297 35.6065 46.3912 37.3875C46.5059 37.7515 46.8202 37.6771 47.1205 37.5067C48.4353 36.7599 49.7153 37.1912 50.4087 38.5984C51.8128 41.449 49.247 45.8787 46.0407 46.1539C45.6971 46.1501 45.3577 46.2279 45.0511 46.3809C42.1289 48.3587 38.7242 47.9715 36.6578 48.2736ZM16.3559 31.8608C15.859 33.8583 16.181 35.9685 17.2519 37.7331C17.5012 35.7004 16.7737 33.8011 16.3559 31.8599L16.3559 31.8608Z" fill="#E5DBFF" fill-opacity="0.66"/>
<path d="M68.7338 78.4622C68.136 77.7809 68.4319 76.8343 67.5766 76.4319C67.1652 76.9633 67.7379 77.4518 67.637 77.9141C67.4945 78.5602 67.7252 79.8854 66.3226 78.8375C66.2191 78.76 66.1149 78.5792 66.005 78.7988C65.0972 80.6128 63.9295 79.2545 62.9412 78.97C61.9084 78.6722 60.9185 78.2167 59.8245 78.1929C58.2933 78.1592 56.7609 78.1446 55.2298 78.1649C53.3517 78.1899 53.1099 78.4777 53.2871 80.3155C53.5926 83.4855 55.9078 85.7103 59.1277 85.6331C61.7674 85.5697 64.2927 86.0874 66.8117 86.6739C68.1098 86.976 69.1501 87.7799 69.3982 89.2032C69.6902 90.8784 68.6459 93.3093 67.138 93.934C64.6022 94.9846 61.9788 95.9312 59.2536 96.3032C53.8728 97.0378 48.5049 96.8865 43.2313 95.3989C41.1712 94.8177 39.1634 94.0245 37.4634 92.7967C35.2295 91.1825 34.223 88.7581 33.9368 86.054C33.5745 82.6369 33.6883 79.3451 36.05 76.4891C36.5677 75.8635 37.2443 75.468 37.8414 75.0423C41.7759 72.2369 45.4719 68.8763 50.5436 68.2112C56.383 67.4454 61.9851 68.3303 67.1292 71.3007C68.9146 72.3311 70.255 73.7397 69.9942 76.0205C69.8867 76.9514 69.6062 77.8185 68.7338 78.4622ZM35.9123 87.4386C36.2117 85.8481 36.0129 84.2054 35.3424 82.7292C35.1365 84.3469 34.9532 85.9581 35.9123 87.4386Z" fill="#E5DBFF" fill-opacity="0.66"/>
<path d="M5.57595 83.2598C0.3564 83.4327 -4.7612 81.8064 -8.89741 78.6604C-10.6892 77.313 -11.9279 75.3727 -12.3857 73.1962C-13.2777 69.506 -12.8435 65.6248 -11.1573 62.2154C-10.1545 60.1681 -8.44609 58.8602 -6.64141 57.5233C-3.28684 55.0388 0.589987 53.8115 4.50757 52.7794C8.99029 51.5989 13.3118 52.433 17.4803 54.4719C18.913 55.1725 20.3554 55.6521 21.2137 57.1054C21.8673 58.2123 21.5841 59.2683 21.1917 60.3308C21.0975 60.5855 20.7901 60.9816 20.6277 60.9608C18.3304 60.6629 16.411 62.5961 14.068 62.009C13.1606 61.7817 12.2247 61.6575 11.2976 61.5145C8.72131 61.1172 6.82063 62.5008 6.53324 65.1116C6.25339 67.6534 7.0398 69.8836 9.14787 71.4516C10.8808 72.749 12.8701 73.6736 14.9876 74.1655C16.7651 74.5768 17.7212 75.9596 17.4501 77.7471C16.9996 80.7178 16.1924 81.4562 13.0558 81.7746C12.8584 81.7647 12.6619 81.8058 12.4855 81.8938C10.587 83.4591 8.26455 82.9801 5.57595 83.2598ZM-10.9276 66.528C-11.7167 68.0603 -11.6313 70.6685 -10.809 71.9106C-10.7084 70.1225 -10.5774 68.4145 -10.9276 66.528Z" fill="#E5DBFF" fill-opacity="0.66"/>
<path d="M81.2858 122.108C80.5951 124.298 79.2934 122.562 78.3002 122.57C77.8135 122.574 77.2629 122.018 76.7476 122.543C76.2452 123.054 76.2833 123.701 76.5363 124.327C77.6701 127.118 79.9545 128.628 82.7603 129.217C84.8218 129.649 86.7914 130.361 88.8457 130.796C90.6896 131.185 91.6659 133.04 91.2463 134.87C90.7446 137.056 89.5352 138.424 87.201 138.726C84.4267 139.087 81.7474 139.858 78.8665 139.777C72.1646 139.587 66.1477 137.716 60.8708 133.611C55.9485 129.783 55.7338 122.444 60.5991 118.503C62.177 117.225 63.988 116.04 66.187 115.809C66.5669 115.726 66.924 115.562 67.2336 115.329C72.648 111.963 78.2326 112.31 83.784 114.805C87.5835 116.513 87.4003 119.45 85.5901 121.838C85.3637 122.136 85.0935 122.55 84.6606 122.481C84.1046 122.391 84.3811 121.844 84.2655 121.509C84.1556 121.19 84.1417 120.75 83.6828 120.804C83.2037 120.86 83.3462 121.31 83.3121 121.632C83.2502 122.217 83.211 122.833 82.5109 123.059C81.7577 123.3 81.7556 122.455 81.2858 122.108ZM58.9046 124.161C58.6507 125.181 58.2356 126.199 59.0048 127.14C59.1074 126.133 59.3662 125.129 58.9046 124.161Z" fill="#E5DBFF" fill-opacity="0.66"/>
<path d="M-20.6422 25.0206C-21.1536 25.8689 -20.0942 26.0372 -20.1389 26.9332C-20.9811 25.8312 -22.1373 25.0021 -23.4597 24.552C-24.3282 24.2399 -24.8571 22.9394 -25.2686 22.1095C-26.7276 19.1704 -27.6991 16.0031 -27.7938 12.686C-27.8225 11.6822 -27.1843 10.7132 -27.1113 9.65842C-27.1063 9.57213 -27.0839 9.48769 -27.0454 9.41004C-27.0069 9.33239 -26.9532 9.26309 -26.8872 9.2062C-26.8213 9.14931 -26.7445 9.10597 -26.6613 9.07872C-26.5782 9.05146 -26.4904 9.04085 -26.4031 9.04749C-26.2995 9.05344 -26.109 9.23425 -26.1211 9.30902C-26.2192 9.91548 -26.1685 10.3405 -25.3763 10.0415C-25.0225 9.90804 -24.5311 9.95689 -24.3997 9.49131C-24.1676 8.67455 -25.3431 9.31557 -25.2885 8.68706C-25.8047 8.08685 -23.2658 8.87114 -24.8909 7.78182C-24.8354 7.71331 -24.794 7.61055 -24.7218 7.58106C-23.1415 6.93378 -22.2618 5.41702 -20.7813 4.57255C-19.3709 3.76829 -18.0945 2.73736 -16.5459 2.12999C-11.8923 0.306421 -7.10283 -0.270857 -2.17875 0.64242C0.382462 1.11902 1.42548 2.72157 0.97054 5.03604C0.922044 5.40133 0.783337 5.74927 0.56662 6.04927C0.349903 6.34928 0.0618114 6.59215 -0.27233 6.75655C-2.86282 7.94804 -5.2746 9.74748 -8.47248 8.81336C-9.46207 8.52442 -10.519 9.07846 -11.3277 9.7734C-11.8274 10.2023 -12.1244 10.7266 -11.7504 11.4522C-11.0331 12.8391 -10.3463 14.2171 -9.03339 15.1982C-8.09603 15.8991 -7.26252 16.7338 -6.35837 17.48C-5.11007 18.5103 -3.52516 18.7906 -2.02478 18.9071C0.262917 19.0825 1.33552 20.5367 0.371593 22.6436C-0.0208604 23.5003 -0.60561 24.3349 -1.46237 24.6962C-3.72652 25.6512 -5.90252 26.7378 -8.3964 27.2534C-10.7755 27.7391 -13.2087 27.9156 -15.6341 27.7783C-16.6929 27.725 -17.6154 27.0542 -18.7246 27.1471C-18.9298 27.1644 -19.354 26.6955 -19.3742 26.4286C-19.4373 25.5675 -20.215 25.5145 -20.6422 25.0206ZM-24.8665 18.1263C-24.5075 16.9822 -25.9016 15.6772 -24.0888 14.9775C-24.8719 14.9742 -26.0332 14.5206 -25.9865 15.4199C-25.9439 16.2408 -26.0166 17.4764 -24.8665 18.1263ZM-18.8589 20.0062C-19.3386 19.686 -19.7646 19.8871 -19.812 20.3637C-19.8868 21.1128 -19.322 20.6484 -19.0002 20.6737C-18.5416 20.7101 -18.8326 20.9213 -18.8752 21.1462C-18.9691 21.6409 -18.5021 21.6004 -18.3674 21.3982C-18.1198 21.0523 -17.9927 20.6365 -18.0052 20.2132C-18.0571 19.7637 -18.5069 19.8862 -18.8589 20.0062Z" fill="#E5DBFF" fill-opacity="0.66"/>
<path d="M34.2919 121.944C33.9637 122.706 33.5607 123.349 32.7782 123.466C32.1699 123.557 32.4821 122.858 32.0839 122.52C32.0465 124.135 30.6074 123.815 30.0105 123.644C28.4365 123.193 26.9328 123.765 25.395 123.583C24.3846 123.463 23.3615 123.234 22.3396 123.151C21.2797 123.065 22.7402 122.365 22.6638 121.822C22.3487 121.536 22.0175 121.557 21.8294 121.923C21.6365 122.297 21.6751 122.963 21.1399 122.911C20.4893 122.846 19.491 122.66 19.3059 122.242C18.8075 121.114 17.6736 121.376 17.149 121.445C16.0166 121.594 16.1551 121.085 16.3257 120.492C16.5717 119.634 16.2955 119.118 15.4502 118.946C14.3734 118.726 14.5506 117.532 13.7926 116.999C13.0493 116.476 12.5246 115.656 11.4122 115.727C11.5909 114.253 12.908 114.935 13.7065 114.349C11.0958 114.141 11.1405 112.238 10.9464 110.514C10.8818 109.942 11.1046 109.293 10.9065 108.789C10.4914 107.734 11.0089 107.811 11.984 108.079C10.822 107.49 10.4265 106.947 11.3923 106.119C11.7425 105.819 11.6884 105.322 11.7847 104.898C11.9625 104.114 12.147 104.018 13.1701 104.039C13.4578 104.045 13.4288 103.865 13.5097 103.691C14.3438 101.893 15.8693 101.113 17.8665 101.099C18.8175 101.093 20.3339 101.477 20.2348 99.6242C20.2213 99.3692 20.4184 99.3179 20.595 99.2369C24.2635 97.5361 27.7899 98.0898 31.1647 100.003C32.7215 100.886 33.4967 103.146 32.8854 104.864C32.6476 105.472 32.1899 105.972 31.6006 106.268C31.0623 106.506 30.8474 105.908 30.7764 105.363C30.7212 104.939 30.3538 105.07 30.0697 105.161C29.5973 105.312 29.4747 105.627 29.6419 106.073C30.0495 107.158 29.8668 107.403 28.5636 107.276C27.6087 107.183 27.2287 108.525 26.7115 109.277C26.361 109.786 27.1121 110.057 27.5435 110.208C27.8282 110.288 28.0694 110.476 28.2155 110.73C29.4496 113.108 31.8122 113.369 34.0794 113.739C35.1429 113.912 36.2892 113.938 37.2945 114.141C38.3145 114.347 39.3829 114.666 40.4341 114.928C42.1195 115.349 42.173 116.719 42.0981 118.032C41.9969 118.889 41.8006 119.733 41.5127 120.548C41.4545 120.749 41.1604 121.049 41.0083 121.03C39.6821 120.871 38.7351 122.404 37.2474 121.775C36.8712 121.616 36.1222 122.124 35.6353 122.455C34.7109 123.082 34.6816 123.105 34.2919 121.944ZM18.9597 110.092C18.9681 109.499 18.9488 108.808 18.128 108.712C17.1619 108.6 17.5979 109.478 17.3871 109.913C17.1257 110.452 17.6422 110.931 17.4853 111.378C17.3138 111.866 17.4584 112.162 17.8225 112.339C18.3517 112.595 18.7333 112.115 19.1302 111.899C19.549 111.672 19.2359 111.292 19.088 111.018C18.9364 110.737 18.5654 110.528 18.9597 110.092ZM12.9467 113.21C13.4795 112.652 13.1055 111.733 13.4708 111.447C14.7441 110.45 13.177 109.779 13.2755 108.938C13.2927 108.789 12.7393 108.225 12.3547 108.387C11.9622 108.552 11.6604 109.271 11.8415 109.48C12.7743 110.554 12.2222 112.013 12.9467 113.21ZM24.0483 110.905C23.1209 110.018 23.0315 109.756 23.6217 109.457C24.4208 109.053 24.6931 107.898 24.1144 107.302C24.0455 107.219 23.9595 107.151 23.8622 107.103C23.7648 107.055 23.6583 107.029 23.5496 107.025C23.441 107.021 23.3327 107.039 23.232 107.08C23.1313 107.12 23.0404 107.181 22.9654 107.259C22.4504 107.751 23.2833 110.635 24.0483 110.905Z" fill="#E5DBFF" fill-opacity="0.66"/>
<path d="M79.7806 53.6148C79.9895 54.7202 80.6561 55.2599 81.1675 55.8807C82.1601 57.0838 81.8437 58.0671 80.2455 58.423C79.5512 58.5773 79.1663 58.6157 78.974 59.546C78.7844 60.4634 77.4558 60.6684 76.5918 61.0845C73.9561 62.337 71.0358 62.8919 68.1172 62.6948C64.1897 62.4732 61.2433 60.5448 59.0537 57.3748C58.0499 55.9215 57.4576 54.4259 57.6768 52.5951C57.7809 51.723 58.3448 51.2213 58.6829 50.5493C59.8464 48.2379 60.8535 45.8513 62.3334 43.6938C63.9258 41.3725 69.8878 38.6708 73.0488 39.8027C75.0748 40.528 76.2959 41.7514 76.7249 43.7832C76.9713 44.9511 76.4798 45.4861 75.031 45.5704C75.4187 46.1384 76.0153 46.5351 76.6944 46.6764C78.3222 47.0895 79.8983 47.6805 81.3933 48.4383C83.1832 49.3355 84.0577 50.8252 84.4964 52.6604C84.6685 53.3803 84.5776 54.0988 83.9944 54.537C83.4283 54.962 82.7439 54.9257 82.0587 54.5391C81.4271 54.1828 80.7056 53.9814 79.7806 53.6148ZM61.8718 58.2529C61.3269 57.0644 60.7101 56.2274 59.6997 55.7282C60.3409 56.544 60.3415 57.9086 61.8718 58.2529Z" fill="#E5DBFF" fill-opacity="0.66"/>
<path d="M92.7724 87.2086C94.8587 88.1165 97.0127 88.5279 98.5339 90.1304C98.7956 90.3466 99.0242 90.5989 99.2129 90.8796C99.5513 91.5703 100.099 92.4467 99.5772 93.0442C99.1244 93.5622 98.1677 93.4767 97.3889 93.2128C97.0151 93.0862 96.5013 92.6147 96.2257 93.1556C95.9926 93.6128 96.5934 93.875 96.9022 94.1684C97.0803 94.3367 97.3022 94.4624 97.4695 94.6393C97.7813 94.9693 98.4572 95.1284 98.2082 95.7501C98.1276 96.01 97.9744 96.2422 97.7662 96.42C97.5579 96.5979 97.303 96.7142 97.0308 96.7557C96.4572 96.8233 95.9262 96.8182 96.3141 97.6976C96.511 98.1444 95.9217 98.4568 95.5896 98.6993C91.9214 101.377 88.1255 101.931 84.3869 98.4509C83.2443 97.3872 82.13 96.294 81.0009 95.216C80.38 94.6232 80.3881 93.9033 80.6465 93.1845C80.9381 92.3734 81.6056 93.2479 82.1396 92.8866C80.7957 92.0612 80.9741 91.2671 81.9434 90.2114C82.5442 89.5561 83.295 88.7727 82.7923 87.5416C82.607 87.0882 83.1178 86.2256 83.5129 85.6963C85.4906 83.0452 88.1092 81.448 91.5163 81.3846C92.8675 81.3596 94.0657 81.7971 94.6743 83.1456C94.7926 83.3974 94.8622 83.6687 94.8796 83.9457C93.4707 84.5623 94.034 86.3641 92.7724 87.2086Z" fill="#E5DBFF" fill-opacity="0.66"/>
</g>
<defs>
<clipPath id="clip0_161_1537">
<rect width="140" height="100" fill="white" transform="translate(100) rotate(90)"/>
</clipPath>
</defs>
</svg>
