<svg xmlns="http://www.w3.org/2000/svg" id="facebook-message" width="34.159" height="34.148" viewBox="0 0 34.159 34.148"><g id="Group_3" data-name="Group 3"><path id="Path_1" data-name="Path 1" d="M17.09.08C6.469.08,0,8.11,0,16.108c0,4.727,2.506,8.483,6.128,11.522v5.6a1,1,0,0,0,1.5.864l5.109-2.98a20.854,20.854,0,0,0,4.4.49c9.026,0,17.015-6.707,17.015-15.728C34.159,6.555,25.66.08,17.09.08ZM17.143,29.6a19.029,19.029,0,0,1-4.337-.526,1,1,0,0,0-.733.11l-3.944,2.3V27.158a1,1,0,0,0-.371-.778C3.884,23.247,2,19.887,2,16.108,2,9.213,7.645,2.081,17.09,2.081c7.277,0,15.068,5.542,15.068,13.793C32.158,23.443,25.422,29.6,17.143,29.6Z" transform="translate(0 -0.08)" fill="#fff"></path></g><g id="Group_4" data-name="Group 4" transform="translate(7.121 11.36)"><path id="Path_2" data-name="Path 2" d="M111.5,164.112a.91.91,0,0,0-1.156-.246c-2.086,1.134-4.178,2.144-6.195,3.218l-3.515-3.227a.909.909,0,0,0-1.274.042c-2.46,2.58-4.97,5.321-7.448,7.92a.91.91,0,0,0,1.062,1.443c.189-.093,4.453-2.317,6.283-3.363,1.118,1.127,2.312,2.156,3.477,3.222a.91.91,0,0,0,1.272-.043l7.431-7.786A.91.91,0,0,0,111.5,164.112Zm-8.2,7.069c-1.128-1.017-2.24-2-3.252-3.078a.91.91,0,0,0-1.332.006c-.361.217-.994.568-1.727.967C98,168,99.038,166.884,100.062,165.8l3.333,3.06a.91.91,0,0,0,1.05.129c.621-.338,1.255-.67,1.907-1.006Z" transform="translate(-91.661 -163.618)" fill="#fff"></path></g></svg>