<svg width="188" height="60" viewBox="0 0 188 60" fill="none" xmlns="http://www.w3.org/2000/svg">
<g clip-path="url(#clip0_161_1551)">
<path d="M55.2579 13.8421C53.0225 10.3412 48.2156 8.88689 41.7387 9.72162C41.5099 9.74844 41.2675 9.78894 41.0387 9.81577C40.9445 9.60064 40.8504 9.38499 40.7425 9.16987C37.9554 3.25842 34.1447 0 29.9974 0C25.85 0 22.0262 3.25842 19.2522 9.16987C19.1581 9.38499 19.0502 9.60064 18.9561 9.81577C18.7136 9.77579 18.4848 9.74844 18.256 9.72162C11.766 8.87322 6.97224 10.3412 4.73684 13.8421C2.50197 17.343 3.18836 22.3114 6.66244 27.832C7.12056 28.5595 7.61866 29.2864 8.15726 30.0001C7.61866 30.727 7.12056 31.4408 6.66244 32.1677C3.18836 37.6883 2.50197 42.6703 4.73684 46.1581C6.55461 49.0126 10.0829 50.5074 14.8356 50.5074C15.9748 50.5011 17.1125 50.4248 18.2423 50.2781C18.4711 50.2512 18.7136 50.2107 18.9424 50.1839C19.0371 50.3996 19.1312 50.6147 19.2391 50.8303C22.0262 56.7413 25.8369 60.0002 29.9837 60.0002C34.131 60.0002 37.9554 56.7413 40.7289 50.8303C40.823 50.6147 40.9308 50.3996 41.025 50.1839C41.2675 50.2244 41.4963 50.2512 41.7256 50.2781C42.8543 50.4311 43.9925 50.5074 45.1318 50.5074C49.8851 50.5074 53.4128 49.0126 55.2306 46.1581C57.466 42.6572 56.779 37.6883 53.3055 32.1677C52.8474 31.4408 52.3493 30.7139 51.8107 30.0001C52.3493 29.2727 52.8474 28.5595 53.3055 27.832C56.8195 22.2982 57.5065 17.3293 55.2579 13.8421ZM21.6896 10.3144C23.965 5.467 26.9946 2.693 29.9974 2.693C33.0002 2.693 36.0298 5.467 38.3052 10.3144C38.3067 10.3244 38.3115 10.3339 38.3188 10.3412C35.4586 11.0292 32.6688 11.9802 29.9837 13.182C27.3017 11.9744 24.5109 11.0229 21.6491 10.3412C21.6759 10.3412 21.6759 10.3275 21.6896 10.3144ZM42.1295 30.0001C42.1301 32.1545 42.0133 34.3078 41.7792 36.4496C40.1009 37.804 38.3478 39.0627 36.5279 40.2198C34.4277 41.5684 32.2417 42.7787 29.9837 43.8422C27.7304 42.7703 25.5445 41.5605 23.44 40.2198C21.6223 39.0595 19.8692 37.8009 18.1887 36.4496C17.7216 32.1624 17.7216 27.8373 18.1887 23.5501C21.8179 20.6335 25.7769 18.1525 29.9837 16.158C32.2375 17.2294 34.4229 18.4391 36.5279 19.7799C38.3457 20.9402 40.0987 22.1988 41.7792 23.5501C42.0133 25.6924 42.1301 27.8452 42.1295 30.0001ZM44.701 26.0816C46.0197 27.3097 47.261 28.6184 48.4176 30.0001C47.261 31.3813 46.0197 32.6899 44.701 33.9181C44.782 32.6258 44.8225 31.3198 44.8225 30.0001C44.8225 28.6804 44.782 27.3744 44.701 26.0816ZM41.227 40.274C40.802 42.6051 40.185 44.8973 39.3824 47.1275C37.2911 46.6551 35.2387 46.025 33.2426 45.2424C34.8311 44.4076 36.4201 43.4919 37.9954 42.4957C39.0999 41.782 40.1771 41.0414 41.227 40.274ZM26.7521 45.2424C24.7597 46.035 22.7063 46.6657 20.6124 47.1275C19.8097 44.8973 19.1928 42.6051 18.7678 40.274C19.8045 41.0414 20.8817 41.782 21.9994 42.482C23.5747 43.4919 25.1637 44.4076 26.7521 45.2424ZM15.2937 33.9181C13.9751 32.6899 12.7343 31.3813 11.5772 30.0001C12.7343 28.6184 13.9751 27.3097 15.2937 26.0816C15.2127 27.3744 15.1722 28.6804 15.1722 30.0001C15.1722 31.3198 15.2127 32.6258 15.2937 33.9181ZM18.7678 19.7262C19.1928 17.3946 19.8097 15.1024 20.6124 12.8727C22.7037 13.3445 24.7565 13.9747 26.7521 14.7578C25.1637 15.5926 23.5747 16.5083 21.9994 17.5045C20.8948 18.2182 19.8176 18.9588 18.7678 19.7262ZM37.9822 17.5045C36.4201 16.5083 34.8311 15.5789 33.229 14.7578C35.2214 13.9652 37.2748 13.3345 39.3692 12.8727C40.1713 15.1024 40.7883 17.3946 41.2138 19.7262C40.1771 18.9588 39.0999 18.2182 37.9822 17.5045ZM8.93834 26.3914C6.08334 21.8669 5.38326 17.8143 6.99906 15.2828C8.29191 13.263 11.0927 12.1721 14.8761 12.1721C15.8891 12.1763 16.9011 12.2442 17.9057 12.3741H17.9325C16.8432 15.5415 16.0853 18.8131 15.6708 22.1362C13.5959 23.8672 11.6639 25.7634 9.89404 27.8052C9.55741 27.3476 9.23446 26.8763 8.93834 26.3914ZM17.8926 47.6124C16.8879 47.7429 15.876 47.8102 14.8629 47.8144C11.0791 47.8144 8.27824 46.7372 6.98591 44.7038C5.37011 42.1722 6.07019 38.1196 8.92466 33.5951C9.22079 33.1239 9.54426 32.6389 9.88089 32.1677C11.6503 34.21 13.5822 36.1056 15.6572 37.8366C16.0722 41.1603 16.8301 44.4318 17.9194 47.5987C17.9194 47.6124 17.9057 47.6124 17.8926 47.6124ZM38.3052 49.6858C36.0298 54.5332 33.0002 57.3072 29.9974 57.3072C26.9946 57.3072 23.965 54.5332 21.6896 49.6858C21.688 49.6758 21.6833 49.6664 21.6759 49.659C24.5362 48.971 27.3259 48.02 30.011 46.8177C32.693 48.0258 35.4838 48.9773 38.3457 49.659C38.3188 49.659 38.3188 49.6721 38.3052 49.6858ZM51.0564 33.6088C53.9114 38.1327 54.6115 42.1859 52.9957 44.7174C51.3799 47.2484 47.4077 48.3125 42.1022 47.6124H42.0754C43.1647 44.445 43.9231 41.1734 44.3376 37.8503C46.4126 36.1193 48.3445 34.2232 50.1139 32.1813C50.4373 32.6526 50.7603 33.1239 51.0564 33.6088ZM44.3239 22.1499C43.9094 18.8263 43.1515 15.5547 42.0622 12.3878H42.089C47.394 11.7009 51.3662 12.7512 52.982 15.2828C54.5978 17.8143 53.8977 21.8669 51.0433 26.3914C50.7471 26.8627 50.4237 27.3476 50.087 27.8189C48.3255 25.7734 46.3978 23.8772 44.3239 22.1499Z" fill="white"/>
<path d="M29.9974 24.6678C27.0524 24.6678 24.665 27.0552 24.665 30.0001C24.665 32.9451 27.0524 35.332 29.9974 35.332C32.9423 35.332 35.3297 32.9451 35.3297 30.0001C35.3276 27.0557 32.9413 24.6699 29.9974 24.6678ZM29.9974 32.639C28.5399 32.639 27.358 31.4576 27.358 30.0001C27.358 28.5427 28.5399 27.3608 29.9974 27.3608C31.4549 27.3608 32.6367 28.5427 32.6367 30.0001C32.6341 31.4566 31.4538 32.6369 29.9974 32.639Z" fill="white"/>
</g>
<path d="M76.0471 11.7765C76.0471 13.2765 75.1471 14.3706 73.1353 14.3706H70.6471V9.2353H73.1176C75.2 9.2353 76.0471 10.2235 76.0471 11.7765ZM69.4118 8.19412V20.5294H70.6471V15.3765H72.9235L75.9765 20.5294H77.4588L74.2824 15.2882C76.3647 14.9 77.3176 13.4706 77.3176 11.7765C77.3176 9.74707 75.9765 8.19412 73.1176 8.19412H69.4118ZM83.8808 11.8118C85.6632 11.8118 87.2867 12.9412 87.2338 15.1824H80.4573C80.5985 12.9412 82.1338 11.8118 83.8808 11.8118ZM88.3455 17.4765H87.0397C86.6867 18.7647 85.575 19.6294 83.9338 19.6294C82.1338 19.6294 80.5632 18.4471 80.4573 16.1882H88.4514C88.4867 15.8529 88.4867 15.6059 88.4867 15.2177C88.4867 12.7647 86.7573 10.7529 83.9338 10.7529C81.1632 10.7529 79.2044 12.6412 79.2044 15.7118C79.2044 18.7647 81.1985 20.6706 83.9338 20.6706C86.3514 20.6706 87.9044 19.2941 88.3455 17.4765ZM90.1821 15.6941C90.1821 18.7118 92.1409 20.6706 94.7703 20.6706C96.6938 20.6706 98.035 19.6294 98.5997 18.3941V20.5294H99.835V10.8941H98.5997V13.0118C98.0527 11.7941 96.7291 10.7529 94.788 10.7529C92.1409 10.7529 90.1821 12.6765 90.1821 15.6941ZM98.5997 15.7118C98.5997 18.1118 96.9938 19.5941 95.0174 19.5941C92.988 19.5941 91.435 18.1294 91.435 15.6941C91.435 13.2412 92.988 11.8294 95.0174 11.8294C96.9938 11.8294 98.5997 13.3118 98.5997 15.7118ZM102.09 15.7118C102.09 18.7647 104.049 20.6706 106.767 20.6706C109.185 20.6706 110.755 19.3118 111.196 17.3882H109.873C109.537 18.8 108.39 19.6294 106.767 19.6294C104.879 19.6294 103.343 18.3235 103.343 15.7118C103.343 13.1 104.879 11.8118 106.767 11.8118C108.39 11.8118 109.555 12.6588 109.873 14.0353H111.196C110.755 12.0412 109.185 10.7529 106.767 10.7529C104.049 10.7529 102.09 12.6588 102.09 15.7118ZM113.831 17.9177C113.831 19.8412 114.731 20.5294 116.407 20.5294H117.731V19.4706H116.601C115.489 19.4706 115.084 19.1 115.084 17.9177V11.9353H117.731V10.8941H115.084V8.47648H113.831V10.8941H112.489V11.9353H113.831V17.9177ZM132.675 8.19412V18.5529L125.846 8.19412H124.611V20.5294H125.846V10.1529L132.675 20.5294H133.911V8.19412H132.675ZM136.144 15.6941C136.144 18.7118 138.103 20.6706 140.732 20.6706C142.655 20.6706 143.997 19.6294 144.561 18.3941V20.5294H145.797V10.8941H144.561V13.0118C144.014 11.7941 142.691 10.7529 140.75 10.7529C138.103 10.7529 136.144 12.6765 136.144 15.6941ZM144.561 15.7118C144.561 18.1118 142.955 19.5941 140.979 19.5941C138.95 19.5941 137.397 18.1294 137.397 15.6941C137.397 13.2412 138.95 11.8294 140.979 11.8294C142.955 11.8294 144.561 13.3118 144.561 15.7118ZM148.97 17.9177C148.97 19.8412 149.87 20.5294 151.546 20.5294H152.87V19.4706H151.74C150.628 19.4706 150.223 19.1 150.223 17.9177V11.9353H152.87V10.8941H150.223V8.47648H148.97V10.8941H147.628V11.9353H148.97V17.9177ZM154.907 20.5294H156.142V10.8941H154.907V20.5294ZM155.525 9.07648C156.019 9.07648 156.425 8.68824 156.425 8.15883C156.425 7.62942 156.019 7.25883 155.525 7.25883C155.03 7.25883 154.625 7.62942 154.625 8.15883C154.625 8.68824 155.03 9.07648 155.525 9.07648ZM157.793 10.8941L161.657 20.5294H163.051L166.916 10.8941H165.61L162.363 19.3294L159.116 10.8941H157.793ZM172.702 11.8118C174.484 11.8118 176.108 12.9412 176.055 15.1824H169.279C169.42 12.9412 170.955 11.8118 172.702 11.8118ZM177.167 17.4765H175.861C175.508 18.7647 174.396 19.6294 172.755 19.6294C170.955 19.6294 169.384 18.4471 169.279 16.1882H177.273C177.308 15.8529 177.308 15.6059 177.308 15.2177C177.308 12.7647 175.579 10.7529 172.755 10.7529C169.984 10.7529 168.026 12.6412 168.026 15.7118C168.026 18.7647 170.02 20.6706 172.755 20.6706C175.173 20.6706 176.726 19.2941 177.167 17.4765ZM82.5379 29.7863H69.832V50.5294H82.5379V46.4813H74.8848V41.9308H81.6514V38.0304H74.8848V33.8345H82.5379V29.7863ZM95.5693 50.5294H101.243L95.5693 42.3445L101.095 34.0413H95.6284L92.969 38.5918L89.8073 34.0413H84.134L89.7187 42.1081L84.2817 50.5294H89.7482L92.4076 45.9494L95.5693 50.5294ZM108.242 36.3757V34.0413H103.19V58.3893H108.242V48.2246C109.158 49.6134 110.902 50.7658 113.325 50.7658C117.373 50.7658 120.594 47.4564 120.594 42.2558C120.594 37.0553 117.373 33.8049 113.325 33.8049C110.902 33.8049 109.158 34.9278 108.242 36.3757ZM115.452 42.2558C115.452 44.8856 113.738 46.3631 111.818 46.3631C109.927 46.3631 108.213 44.9152 108.213 42.2854C108.213 39.6555 109.927 38.2077 111.818 38.2077C113.738 38.2077 115.452 39.626 115.452 42.2558ZM130.513 37.8531C132.198 37.8531 133.616 38.8873 133.616 40.6897H127.293C127.588 38.8577 128.859 37.8531 130.513 37.8531ZM138.403 45.0629H133.025C132.611 45.9494 131.814 46.6586 130.395 46.6586C128.77 46.6586 127.44 45.6539 127.263 43.4969H138.698C138.758 42.9945 138.787 42.4922 138.787 42.0194C138.787 36.9962 135.389 33.8049 130.573 33.8049C125.667 33.8049 122.24 37.0553 122.24 42.2854C122.24 47.5155 125.727 50.7658 130.573 50.7658C134.68 50.7658 137.605 48.2837 138.403 45.0629ZM146.505 42.8763C146.505 40.0397 147.894 39.2123 150.288 39.2123H151.676V33.864C149.46 33.864 147.658 35.046 146.505 36.7893V34.0413H141.453V50.5294H146.505V42.8763ZM154.889 44.797C154.889 49.0815 157.283 50.5294 160.71 50.5294H163.281V46.2449H161.479C160.356 46.2449 159.942 45.8312 159.942 44.8561V38.2372H163.252V34.0413H159.942V30.0227H154.889V34.0413H152.88V38.2372H154.889V44.797ZM179.481 45.7426C179.393 39.5964 170.469 41.458 170.469 38.8282C170.469 38.0304 171.119 37.5576 172.301 37.5576C173.719 37.5576 174.576 38.2963 174.724 39.4192H179.393C179.068 36.1688 176.704 33.8049 172.449 33.8049C168.135 33.8049 165.741 36.1097 165.741 38.9168C165.741 44.9743 174.724 43.0536 174.724 45.713C174.724 46.4517 174.044 47.0427 172.744 47.0427C171.355 47.0427 170.321 46.2744 170.203 45.122H165.209C165.446 48.3133 168.4 50.7658 172.803 50.7658C176.94 50.7658 179.481 48.6088 179.481 45.7426Z" fill="white"/>
<defs>
<clipPath id="clip0_161_1551">
<rect width="60" height="60" fill="white"/>
</clipPath>
</defs>
</svg>
