<svg xmlns="http://www.w3.org/2000/svg" width="35.598" height="35.598" viewBox="0 0 35.598 35.598"><path id="skype" d="M25.132,35.6a10.584,10.584,0,0,1-4.5-1,16.244,16.244,0,0,1-2.655.239A16.987,16.987,0,0,1,.9,17.969,16.041,16.041,0,0,1,1.178,15.1,10.23,10.23,0,0,1,0,10.339,10.416,10.416,0,0,1,10.468,0a10.53,10.53,0,0,1,5.108,1.316,18.707,18.707,0,0,1,2.4-.134A17,17,0,0,1,30,6.086,16.58,16.58,0,0,1,34.972,17.97a17.117,17.117,0,0,1-.254,3.137,10.087,10.087,0,0,1,.879,4.153A10.415,10.415,0,0,1,25.132,35.6Zm-4.064-3.907.427.227a7.767,7.767,0,0,0,3.636.9,7.63,7.63,0,0,0,7.685-7.557,7.326,7.326,0,0,0-.794-3.346l-.226-.446.109-.488a13.576,13.576,0,0,0,.285-3.01A14.129,14.129,0,0,0,17.974,3.963a14.567,14.567,0,0,0-2.447.171l-.519.088-.447-.278a7.745,7.745,0,0,0-4.093-1.163,7.632,7.632,0,0,0-7.687,7.558,7.443,7.443,0,0,0,1.052,3.816l.277.464L4,15.149a13.884,13.884,0,0,0-.317,2.82A14.2,14.2,0,0,0,17.974,32.052a14.511,14.511,0,0,0,2.619-.274Zm5.7-10.077a5.139,5.139,0,0,0-.591-2.556,4.992,4.992,0,0,0-1.644-1.726,10.5,10.5,0,0,0-2.5-1.134c-.96-.3-2.045-.585-3.226-.837-.934-.215-1.614-.382-2.019-.493a6.521,6.521,0,0,1-1.174-.453,2.673,2.673,0,0,1-.871-.655,1.334,1.334,0,0,1-.354-.844,1.738,1.738,0,0,1,.969-1.391,4.586,4.586,0,0,1,2.527-.583,4.168,4.168,0,0,1,2.436.522,4.746,4.746,0,0,1,1.309,1.61,4.7,4.7,0,0,0,.871,1.153,1.857,1.857,0,0,0,1.258.372,1.993,1.993,0,0,0,1.5-.606,2.059,2.059,0,0,0,.675-1.4,3.613,3.613,0,0,0-.533-1.653,5.21,5.21,0,0,0-1.418-1.586,7.523,7.523,0,0,0-2.408-1.193,11.594,11.594,0,0,0-3.407-.446,12.426,12.426,0,0,0-4.278.669,6.159,6.159,0,0,0-2.832,1.954,4.733,4.733,0,0,0-1.045,2.935,4.544,4.544,0,0,0,1,2.906A6.313,6.313,0,0,0,13.516,18a21.585,21.585,0,0,0,3.822,1.136c1.113.234,2.014.455,2.678.661a4,4,0,0,1,1.558.853,1.794,1.794,0,0,1,.584,1.375,2.155,2.155,0,0,1-1.1,1.811,5.159,5.159,0,0,1-2.937.7A5.112,5.112,0,0,1,16,24.224a3.207,3.207,0,0,1-1.223-.938,7.236,7.236,0,0,1-.84-1.478,3.267,3.267,0,0,0-.855-1.242,1.964,1.964,0,0,0-1.285-.472,2.18,2.18,0,0,0-1.523.59,1.818,1.818,0,0,0-.608,1.369,4.585,4.585,0,0,0,.936,2.619A6.8,6.8,0,0,0,13,26.791a11.169,11.169,0,0,0,5.223,1.089,11.96,11.96,0,0,0,4.557-.8,6.635,6.635,0,0,0,2.964-2.235A5.48,5.48,0,0,0,26.768,21.613Zm0,0" fill="#fff"></path></svg>