<svg xmlns="http://www.w3.org/2000/svg" width="33.862" height="34.025" viewBox="0 0 33.862 34.025"><path id="whatsapp" d="M29.179,4.945A16.864,16.864,0,0,0,2.642,25.288L.25,34.025l8.938-2.345a16.842,16.842,0,0,0,8.057,2.052h.007A16.868,16.868,0,0,0,29.179,4.945ZM17.252,30.885h-.006a14,14,0,0,1-7.133-1.953l-.512-.3L4.3,30.02l1.416-5.171-.333-.53a14.014,14.014,0,1,1,11.871,6.567Zm7.687-10.5c-.421-.211-2.493-1.23-2.879-1.371s-.667-.211-.948.211-1.088,1.371-1.334,1.652-.491.316-.913.105A11.507,11.507,0,0,1,15.478,18.9a12.708,12.708,0,0,1-2.344-2.918c-.245-.422,0-.628.185-.86a11.917,11.917,0,0,0,1.053-1.441.775.775,0,0,0-.035-.738c-.105-.211-.948-2.284-1.3-3.128-.342-.821-.689-.71-.948-.723s-.526-.015-.807-.015a1.547,1.547,0,0,0-1.124.527,4.725,4.725,0,0,0-1.474,3.514,8.2,8.2,0,0,0,1.72,4.358c.211.281,2.971,4.536,7.2,6.361a24.113,24.113,0,0,0,2.4.888,5.775,5.775,0,0,0,2.653.167,4.34,4.34,0,0,0,2.844-2,3.52,3.52,0,0,0,.245-2C25.641,20.706,25.36,20.6,24.939,20.39Zm0,0" transform="translate(-0.25)" fill="#fff" fill-rule="evenodd"></path></svg>