<svg width="65" height="64" viewBox="0 0 65 64" fill="none" xmlns="http://www.w3.org/2000/svg">
<rect x="0.383667" width="64" height="64" rx="20" fill="#FFF9F4"/>
<g clip-path="url(#clip0_161_1877)">
<path d="M15.7076 15.324H29.4524V19.2976H15.7076V15.324Z" fill="#FF6D04"/>
<path d="M15.7076 21.2518H29.4524V31.0229H15.7076V21.2518Z" fill="#FF6D04"/>
<path d="M15.7076 32.9772H29.4524V36.8856H15.7076V32.9772Z" fill="#FF6D04"/>
<path d="M35.3151 27.1144H49.0598V31.0229H35.3151V27.1144Z" fill="#FF6D04"/>
<path d="M35.3151 32.9772H49.0598V42.7483H35.3151V32.9772Z" fill="#FF6D04"/>
<path d="M35.3151 44.7025H49.0598V48.6761H35.3151V44.7025Z" fill="#FF6D04"/>
<path d="M17.6619 38.8398V40.7941C17.6619 44.032 20.3517 46.6567 23.5897 46.6567H25.5439V48.6761L31.4066 44.7025L25.5439 40.7941V42.7483H22.5474C20.9286 42.7483 19.6161 41.4358 19.6161 39.817V38.8398H17.6619Z" fill="#FF6D04"/>
<path d="M47.0404 25.1602V23.206C47.0404 19.9681 44.4157 17.3433 41.1777 17.3433H39.2235V15.324L33.3608 19.2976L39.2235 23.206V21.2518H42.1549C43.7737 21.2518 45.0862 22.5643 45.0862 24.1831V25.1602H47.0404Z" fill="#FF6D04"/>
</g>
<defs>
<clipPath id="clip0_161_1877">
<rect width="33.3521" height="33.3521" fill="white" transform="translate(15.7076 15.324)"/>
</clipPath>
</defs>
</svg>
