<svg width="66" height="66" viewBox="0 0 66 66" fill="none" xmlns="http://www.w3.org/2000/svg">
<rect x="0.383621" y="0.5" width="65" height="65" rx="20" fill="#FFF9F4"/>
<g clip-path="url(#clip0_161_1928)">
<path d="M47.7975 38.087C46.0551 36.3433 43.6374 35.6046 40.5323 36.4367L29.4602 25.3533L29.6065 24.7999C30.2442 22.4072 29.5552 19.8353 27.8088 18.089C26.0308 16.3095 23.503 15.6566 21.1123 16.3133C20.7714 16.4069 20.506 16.6748 20.4157 17.0166C20.3254 17.3585 20.4245 17.7218 20.6744 17.9718L23.3403 20.6378C24.1198 21.4191 24.1122 22.6705 23.3423 23.4424C22.5785 24.2083 21.2946 24.2071 20.5338 23.4443L17.8673 20.7776C17.6173 20.5275 17.2529 20.4293 16.9111 20.5202C16.5691 20.611 16.3023 20.877 16.209 21.2182C15.5619 23.5826 16.1985 26.1261 17.9851 27.9127C19.7268 29.6556 22.1415 30.397 25.2484 29.5631L36.3214 40.6465C35.4951 43.7506 36.2079 46.145 37.9737 47.9108C39.754 49.6924 42.283 50.3405 44.6684 49.686C45.0094 49.5925 45.2749 49.3245 45.3652 48.9827C45.4556 48.6409 45.3566 48.2774 45.1066 48.0274L42.4412 45.362C41.6618 44.5806 41.6694 43.3292 42.4393 42.5574C43.2126 41.788 44.4937 41.8002 45.2477 42.5564L47.9145 45.2224C48.1645 45.4724 48.5289 45.5705 48.8706 45.4797C49.2125 45.3888 49.4794 45.1229 49.5727 44.7818C50.2197 42.4178 49.5833 39.8736 47.7975 38.087Z" fill="#FF6D04"/>
<path d="M26.5688 33.7002L17.1087 43.1615C15.5605 44.7097 15.5605 47.2273 17.1087 48.7754C18.6569 50.3236 21.1745 50.3236 22.7226 48.7754L32.1825 39.3144L26.5688 33.7002ZM21.7903 45.6957C21.4026 46.0834 20.7747 46.0834 20.387 45.6957C19.9994 45.3081 19.9994 44.6801 20.387 44.2925L26.4062 38.2722C26.7938 37.8846 27.4218 37.8846 27.8094 38.2722C28.197 38.6598 28.197 39.2878 27.8094 39.6754L21.7903 45.6957Z" fill="#FF6D04"/>
<path d="M49.5291 18.0649L47.8183 16.3541C47.4963 16.0321 46.9966 15.9705 46.6061 16.2047L41.3434 19.362C40.7897 19.6942 40.6957 20.4581 41.1522 20.9146L41.5711 21.3334L34.8904 27.9868L37.6978 30.7943L44.3785 24.1409L44.9686 24.7311C45.4251 25.1875 46.1891 25.0936 46.5213 24.5398L49.6786 19.2771C49.9126 18.8866 49.8511 18.3869 49.5291 18.0649Z" fill="#FF6D04"/>
</g>
<defs>
<clipPath id="clip0_161_1928">
<rect width="33.8732" height="33.8732" fill="white" transform="translate(15.947 16.0634)"/>
</clipPath>
</defs>
</svg>
