<svg width="66" height="66" viewBox="0 0 66 66" fill="none" xmlns="http://www.w3.org/2000/svg">
<rect x="0.883606" y="0.5" width="65" height="65" rx="20" fill="#FFF9F4"/>
<g clip-path="url(#clip0_161_1990)">
<path d="M35.1037 37.8958H16.447V38.8881C16.447 40.5324 17.7799 41.8653 19.4241 41.8653H35.1037V37.8958Z" fill="#FF6D04"/>
<path d="M35.1037 43.85H30.0756V45.9671H28.1445C27.7174 45.9671 27.3381 46.2404 27.2031 46.6456L26.5415 48.6304C26.3273 49.273 26.8056 49.9366 27.4829 49.9366H35.6377C35.2988 49.3522 35.1037 48.6746 35.1037 47.9518V43.85Z" fill="#FF6D04"/>
<path d="M47.3431 16.0634H19.4241C18.9645 16.0634 18.5293 16.1677 18.1407 16.3537L23.7244 21.9374V21.0253C23.7244 20.4772 24.1687 20.0329 24.7168 20.0329C25.2649 20.0329 25.7092 20.4772 25.7092 21.0253V24.3332C25.7092 24.8812 25.2649 25.3256 24.7168 25.3256H21.4089C20.8608 25.3256 20.4165 24.8812 20.4165 24.3332C20.4165 23.7851 20.8608 23.3408 21.4089 23.3408H22.321L16.7373 17.757C16.5513 18.1457 16.447 18.5809 16.447 19.0405V35.911H35.1037V30.7506C35.1037 28.5618 36.8844 26.7811 39.0732 26.7811H48.3354C49.0582 26.7811 49.7358 26.9762 50.3202 27.3151V19.0405C50.3202 17.3963 48.9873 16.0634 47.3431 16.0634Z" fill="#FF6D04"/>
<path d="M48.3354 28.7659H39.0732C38.8954 28.7659 38.7234 28.7896 38.5594 28.8334L43.3735 33.6475V32.7354C43.3735 32.1873 43.8178 31.743 44.3659 31.743C44.914 31.743 45.3583 32.1873 45.3583 32.7354V36.0433C45.3583 36.5914 44.914 37.0357 44.3659 37.0357H41.058C40.5099 37.0357 40.0656 36.5914 40.0656 36.0433C40.0656 35.4953 40.5099 35.0509 41.058 35.0509H41.9701L37.156 30.2368C37.1121 30.4007 37.0884 30.5729 37.0884 30.7506V47.9519C37.0884 49.0481 37.977 49.9366 39.0732 49.9366H48.3354C49.4316 49.9366 50.3202 49.0481 50.3202 47.9519V30.7506C50.3202 29.6544 49.4316 28.7659 48.3354 28.7659Z" fill="#FF6D04"/>
</g>
<defs>
<clipPath id="clip0_161_1990">
<rect width="33.8732" height="33.8732" fill="white" transform="translate(16.447 16.0634)"/>
</clipPath>
</defs>
</svg>
