<svg width="66" height="66" viewBox="0 0 66 66" fill="none" xmlns="http://www.w3.org/2000/svg">
<rect x="0.383621" y="0.5" width="65" height="65" rx="18.3099" fill="#FFF9F4"/>
<g clip-path="url(#clip0_233_494)">
<path d="M25.1644 23.8776L22.3579 21.0711C21.9702 20.6834 21.3422 20.6834 20.9546 21.0711C20.5669 21.4587 20.5669 22.0867 20.9546 22.4743L23.7612 25.2809C24.1488 25.6686 24.7768 25.6686 25.1644 25.2809C25.5521 24.8933 25.5521 24.2653 25.1644 23.8776Z" fill="#FF6D04"/>
<path d="M20.975 32.0076H16.9393C16.3908 32.0076 15.9469 32.4514 15.9469 32.9999C15.9469 33.5485 16.3908 33.9923 16.9393 33.9923H20.975C21.5235 33.9923 21.9674 33.5485 21.9674 32.9999C21.9674 32.4514 21.5235 32.0076 20.975 32.0076Z" fill="#FF6D04"/>
<path d="M48.8281 32.0076H44.7924C44.2439 32.0076 43.8 32.4514 43.8 32.9999C43.8 33.5485 44.2439 33.9923 44.7924 33.9923H48.8281C49.3766 33.9923 49.8205 33.5485 49.8205 32.9999C49.8205 32.4514 49.3766 32.0076 48.8281 32.0076Z" fill="#FF6D04"/>
<path d="M44.8123 21.0711C44.4247 20.6834 43.7967 20.6834 43.409 21.0711L40.6025 23.8776C40.2148 24.2653 40.2148 24.8933 40.6025 25.2809C40.9901 25.6686 41.6181 25.6686 42.0057 25.2809L44.8123 22.4743C45.2 22.0867 45.2 21.4587 44.8123 21.0711Z" fill="#FF6D04"/>
<path d="M32.8831 16.0634C32.3346 16.0634 31.8908 16.5072 31.8908 17.0557V21.0914C31.8908 21.6399 32.3346 22.0838 32.8831 22.0838C33.4317 22.0838 33.8755 21.6399 33.8755 21.0914V17.0557C33.8755 16.5072 33.4317 16.0634 32.8831 16.0634Z" fill="#FF6D04"/>
<path d="M38.4408 25.9937C36.2774 24.2868 33.4789 23.6716 30.7399 24.3266C27.5643 25.0609 25.004 27.5815 24.2299 30.7374C23.4558 33.9129 24.349 37.1282 26.6314 39.371C27.4452 40.1848 27.9215 41.4616 27.9215 42.7716V42.9899C27.9215 43.5456 28.3581 43.9823 28.9139 43.9823H36.853C37.4088 43.9823 37.8453 43.5456 37.8453 42.9899V42.7716C37.8453 41.4815 38.3415 40.1649 39.2148 39.3115C40.8821 37.6244 41.8149 35.3817 41.8149 33C41.8149 30.261 40.5843 27.7006 38.4408 25.9937ZM32.8834 30.0228C31.3863 30.0228 30.2964 31.0159 30.011 32.1656C29.8811 32.6884 29.355 33.0221 28.8083 32.8905C28.2772 32.7587 27.9525 32.2198 28.0844 31.6888C28.5761 29.704 30.4403 28.0381 32.8834 28.0381C33.432 28.0381 33.8758 28.4819 33.8758 29.0305C33.8758 29.579 33.432 30.0228 32.8834 30.0228Z" fill="#FF6D04"/>
<path d="M28.9143 45.967V46.9594C28.9143 48.6011 30.2498 49.9366 31.8914 49.9366H33.8762C35.5179 49.9366 36.8533 48.6011 36.8533 46.9594V45.967H28.9143Z" fill="#FF6D04"/>
</g>
<defs>
<clipPath id="clip0_233_494">
<rect width="33.8732" height="33.8732" fill="white" transform="translate(15.947 16.0634)"/>
</clipPath>
</defs>
</svg>
