<svg width="66" height="66" viewBox="0 0 66 66" fill="none" xmlns="http://www.w3.org/2000/svg">
<rect x="0.383667" y="0.5" width="65" height="65" rx="20" fill="#FFF9F4"/>
<g clip-path="url(#clip0_161_2041)">
<path d="M49.8203 24.0686V19.1067C49.8203 17.4651 48.4847 16.1295 46.8431 16.1295H18.9242C17.2826 16.1295 15.947 17.4651 15.947 19.1067V24.0686H49.8203ZM38.8379 20.099H44.7922C45.3403 20.099 45.7846 20.5434 45.7846 21.0914C45.7846 21.6395 45.3403 22.0838 44.7922 22.0838H38.8379C38.2899 22.0838 37.8455 21.6395 37.8455 21.0914C37.8455 20.5434 38.2899 20.099 38.8379 20.099ZM28.9141 20.099C29.4622 20.099 29.9065 20.5434 29.9065 21.0914C29.9065 21.6395 29.4622 22.0838 28.9141 22.0838C28.3661 22.0838 27.9217 21.6395 27.9217 21.0914C27.9217 20.5434 28.3661 20.099 28.9141 20.099ZM24.9446 20.099C25.4927 20.099 25.937 20.5434 25.937 21.0914C25.937 21.6395 25.4927 22.0838 24.9446 22.0838C24.3965 22.0838 23.9522 21.6395 23.9522 21.0914C23.9522 20.5434 24.3965 20.099 24.9446 20.099ZM20.9751 20.099C21.5231 20.099 21.9675 20.5434 21.9675 21.0914C21.9675 21.6395 21.5231 22.0838 20.9751 22.0838C20.427 22.0838 19.9827 21.6395 19.9827 21.0914C19.9827 20.5434 20.427 20.099 20.9751 20.099Z" fill="#FF6D04"/>
<path d="M15.947 26.0533V46.8933C15.947 48.5349 17.2826 49.8705 18.9242 49.8705H46.8431C48.4847 49.8705 49.8203 48.5349 49.8203 46.8933V26.0533H15.947ZM27.5493 40.1641C27.9773 40.5065 28.0466 41.131 27.7043 41.559C27.362 41.9869 26.7374 42.0563 26.3095 41.7139L21.3476 37.7444C20.8514 37.3476 20.8511 36.5916 21.3476 36.1945L26.3095 32.225C26.7372 31.8827 27.3618 31.952 27.7043 32.38C28.0466 32.8079 27.9773 33.4325 27.5493 33.7748L23.5561 36.9695L27.5493 40.1641ZM36.7729 30.4138L30.8186 44.3071C30.6028 44.8108 30.0195 45.0443 29.5156 44.8283C29.0118 44.6124 28.7784 44.029 28.9944 43.5253L34.9487 29.6319C35.1646 29.1282 35.748 28.8949 36.2517 29.1107C36.7554 29.3266 36.9889 29.91 36.7729 30.4138ZM44.4197 37.7444L39.4578 41.714C39.0306 42.0559 38.4059 41.9876 38.063 41.559C37.7206 41.131 37.79 40.5065 38.218 40.1642L42.2112 36.9695L38.218 33.7749C37.79 33.4326 37.7206 32.8081 38.063 32.3801C38.4053 31.9521 39.0298 31.8827 39.4578 32.2252L44.4197 36.1947C44.9158 36.5914 44.9162 37.3474 44.4197 37.7444Z" fill="#FF6D04"/>
</g>
<defs>
<clipPath id="clip0_161_2041">
<rect width="33.8732" height="33.8732" fill="white" transform="translate(15.947 16.0634)"/>
</clipPath>
</defs>
</svg>
