<svg width="66" height="66" viewBox="0 0 66 66" fill="none" xmlns="http://www.w3.org/2000/svg">
<rect x="0.883606" y="0.5" width="65" height="65" rx="20" fill="#FFF9F4"/>
<g clip-path="url(#clip0_161_1826)">
<path d="M23.8565 46.761C23.8565 48.5123 25.2808 49.9366 27.0321 49.9366H39.7346C41.4859 49.9366 42.9102 48.5123 42.9102 46.761V39.8805H45.0273V29.2951V28.2365V27.178V26.6487V25.0609H42.9102V19.239C42.9102 17.4876 41.4859 16.0634 39.7346 16.0634H27.0321C25.2808 16.0634 23.8565 17.4876 23.8565 19.239V25.0609H21.7394V26.6487V27.178V28.2365V28.7658V39.8805H23.8565V46.761ZM33.3834 48.8781C32.5064 48.8781 31.7956 48.1672 31.7956 47.2902C31.7956 46.4132 32.5064 45.7024 33.3834 45.7024C34.2604 45.7024 34.9712 46.4132 34.9712 47.2902C34.9712 48.1672 34.2604 48.8781 33.3834 48.8781ZM41.8517 44.6439H24.9151V39.8805H41.8517V44.6439ZM30.9561 36.1756L30.2077 36.924L28.0907 34.8069L27.3423 34.0585L28.0907 33.3101L30.2077 31.193L30.9561 31.9414L28.8391 34.0585L30.9561 36.1756ZM31.6145 36.4122L34.2053 31.2312L35.1522 31.7049L32.5614 36.8859L31.6145 36.4122ZM35.8106 31.9414L36.559 31.193L38.6761 33.3101L39.4244 34.0585L38.6761 34.8069L36.559 36.924L35.8106 36.1756L37.9277 34.0585L35.8106 31.9414ZM30.737 18.1804H36.0297V19.239H30.737V18.1804ZM24.9151 21.356H41.8517V25.0609H24.9151V21.356ZM22.798 28.2365V27.178H43.9688V28.2365H22.798Z" fill="#FF6D04"/>
</g>
<defs>
<clipPath id="clip0_161_1826">
<rect width="33.8732" height="33.8732" fill="white" transform="translate(16.447 16.0634)"/>
</clipPath>
</defs>
</svg>
