<svg width="208" height="146" viewBox="0 0 208 146" fill="none" xmlns="http://www.w3.org/2000/svg">
<g clip-path="url(#clip0_233_526)">
<path d="M10.3836 0.5C4.86077 0.5 0.383621 4.97715 0.383621 10.5C0.383621 16.0228 4.86077 20.5 10.3836 20.5C15.9065 20.5 20.3836 16.0228 20.3836 10.5C20.3772 4.97982 15.9038 0.506429 10.3836 0.5Z" fill="#01CB62"/>
<path d="M16.1563 7.33331L10.4521 15.0741C10.3161 15.2546 10.1132 15.3729 9.88914 15.4024C9.66505 15.4318 9.43852 15.37 9.26045 15.2308L5.18712 11.9741C4.82767 11.6865 4.76947 11.1619 5.05712 10.8025C5.34477 10.443 5.86934 10.3848 6.22879 10.6725L9.62545 13.39L14.8146 6.34748C14.9848 6.09214 15.2815 5.95096 15.587 5.98001C15.8924 6.00906 16.1572 6.20362 16.2762 6.48646C16.3952 6.76929 16.3491 7.09463 16.1563 7.33331Z" fill="white"/>
<path d="M35.0786 4.88H36.3836L40.9286 15.5H39.2486L38.1836 12.875H33.1286L32.0786 15.5H30.3986L35.0786 4.88ZM37.6586 11.615L35.6786 6.74H35.6486L33.6386 11.615H37.6586ZM42.0701 4.16H43.4201V15.5H42.0701V4.16ZM45.6737 4.16H47.0237V15.5H45.6737V4.16ZM53.452 4.16H54.802V15.5H53.452V4.16ZM57.0555 8.39H58.4055V15.5H57.0555V8.39ZM56.7405 5.84C56.7405 5.57 56.8355 5.34 57.0255 5.15C57.2255 4.95 57.4605 4.85 57.7305 4.85C58.0005 4.85 58.2305 4.95 58.4205 5.15C58.6205 5.34 58.7205 5.57 58.7205 5.84C58.7205 6.11 58.6205 6.345 58.4205 6.545C58.2305 6.735 58.0005 6.83 57.7305 6.83C57.4605 6.83 57.2255 6.735 57.0255 6.545C56.8355 6.345 56.7405 6.11 56.7405 5.84ZM60.554 8.39H61.814V9.5H61.844C61.874 9.4 61.949 9.275 62.069 9.125C62.199 8.975 62.359 8.835 62.549 8.705C62.749 8.565 62.979 8.45 63.239 8.36C63.509 8.26 63.804 8.21 64.124 8.21C64.654 8.21 65.099 8.32 65.459 8.54C65.819 8.76 66.114 9.09 66.344 9.53C66.574 9.09 66.899 8.76 67.319 8.54C67.739 8.32 68.164 8.21 68.594 8.21C69.144 8.21 69.594 8.3 69.944 8.48C70.294 8.66 70.569 8.9 70.769 9.2C70.969 9.49 71.104 9.825 71.174 10.205C71.254 10.575 71.294 10.96 71.294 11.36V15.5H69.944V11.54C69.944 11.27 69.924 11.01 69.884 10.76C69.854 10.51 69.784 10.29 69.674 10.1C69.564 9.91 69.409 9.76 69.209 9.65C69.009 9.53 68.744 9.47 68.414 9.47C67.764 9.47 67.299 9.67 67.019 10.07C66.739 10.47 66.599 10.985 66.599 11.615V15.5H65.249V11.78C65.249 11.44 65.229 11.13 65.189 10.85C65.159 10.57 65.089 10.33 64.979 10.13C64.879 9.92 64.729 9.76 64.529 9.65C64.339 9.53 64.079 9.47 63.749 9.47C63.509 9.47 63.274 9.52 63.044 9.62C62.824 9.71 62.629 9.85 62.459 10.04C62.289 10.23 62.154 10.475 62.054 10.775C61.954 11.065 61.904 11.41 61.904 11.81V15.5H60.554V8.39ZM73.4324 8.39H74.7824V15.5H73.4324V8.39ZM73.1174 5.84C73.1174 5.57 73.2124 5.34 73.4024 5.15C73.6024 4.95 73.8374 4.85 74.1074 4.85C74.3774 4.85 74.6074 4.95 74.7974 5.15C74.9974 5.34 75.0974 5.57 75.0974 5.84C75.0974 6.11 74.9974 6.345 74.7974 6.545C74.6074 6.735 74.3774 6.83 74.1074 6.83C73.8374 6.83 73.6024 6.735 73.4024 6.545C73.2124 6.345 73.1174 6.11 73.1174 5.84ZM80.741 9.56H78.806V12.785C78.806 12.985 78.811 13.185 78.821 13.385C78.831 13.575 78.866 13.75 78.926 13.91C78.996 14.06 79.096 14.185 79.226 14.285C79.366 14.375 79.566 14.42 79.826 14.42C79.986 14.42 80.151 14.405 80.321 14.375C80.491 14.345 80.646 14.29 80.786 14.21V15.44C80.626 15.53 80.416 15.59 80.156 15.62C79.906 15.66 79.711 15.68 79.571 15.68C79.051 15.68 78.646 15.61 78.356 15.47C78.076 15.32 77.866 15.13 77.726 14.9C77.596 14.67 77.516 14.415 77.486 14.135C77.466 13.845 77.456 13.555 77.456 13.265V9.56H75.896V8.39H77.456V6.395H78.806V8.39H80.741V9.56ZM83.5027 12.44C83.5027 12.75 83.5677 13.035 83.6977 13.295C83.8377 13.545 84.0177 13.76 84.2377 13.94C84.4577 14.12 84.7127 14.26 85.0027 14.36C85.2927 14.46 85.5927 14.51 85.9027 14.51C86.3227 14.51 86.6877 14.415 86.9977 14.225C87.3077 14.025 87.5927 13.765 87.8527 13.445L88.8727 14.225C88.1227 15.195 87.0727 15.68 85.7227 15.68C85.1627 15.68 84.6527 15.585 84.1927 15.395C83.7427 15.205 83.3577 14.945 83.0377 14.615C82.7277 14.275 82.4877 13.88 82.3177 13.43C82.1477 12.97 82.0627 12.475 82.0627 11.945C82.0627 11.415 82.1527 10.925 82.3327 10.475C82.5227 10.015 82.7777 9.62 83.0977 9.29C83.4277 8.95 83.8177 8.685 84.2677 8.495C84.7177 8.305 85.2077 8.21 85.7377 8.21C86.3677 8.21 86.8977 8.32 87.3277 8.54C87.7677 8.76 88.1277 9.05 88.4077 9.41C88.6877 9.76 88.8877 10.16 89.0077 10.61C89.1377 11.05 89.2027 11.5 89.2027 11.96V12.44H83.5027ZM87.7627 11.36C87.7527 11.06 87.7027 10.785 87.6127 10.535C87.5327 10.285 87.4077 10.07 87.2377 9.89C87.0677 9.7 86.8527 9.555 86.5927 9.455C86.3427 9.345 86.0477 9.29 85.7077 9.29C85.3777 9.29 85.0727 9.355 84.7927 9.485C84.5227 9.605 84.2927 9.765 84.1027 9.965C83.9127 10.165 83.7627 10.39 83.6527 10.64C83.5527 10.88 83.5027 11.12 83.5027 11.36H87.7627ZM97.9427 15.5H96.5927V14.48H96.5627C96.3027 14.86 95.9427 15.155 95.4827 15.365C95.0327 15.575 94.5677 15.68 94.0877 15.68C93.5377 15.68 93.0377 15.585 92.5877 15.395C92.1477 15.205 91.7677 14.94 91.4477 14.6C91.1377 14.26 90.8977 13.865 90.7277 13.415C90.5577 12.965 90.4727 12.475 90.4727 11.945C90.4727 11.415 90.5577 10.925 90.7277 10.475C90.8977 10.015 91.1377 9.62 91.4477 9.29C91.7677 8.95 92.1477 8.685 92.5877 8.495C93.0377 8.305 93.5377 8.21 94.0877 8.21C94.5977 8.21 95.0777 8.32 95.5277 8.54C95.9777 8.75 96.3227 9.04 96.5627 9.41H96.5927V4.16H97.9427V15.5ZM94.2527 14.42C94.6127 14.42 94.9377 14.36 95.2277 14.24C95.5177 14.11 95.7627 13.94 95.9627 13.73C96.1627 13.51 96.3177 13.25 96.4277 12.95C96.5377 12.64 96.5927 12.305 96.5927 11.945C96.5927 11.585 96.5377 11.255 96.4277 10.955C96.3177 10.645 96.1627 10.385 95.9627 10.175C95.7627 9.955 95.5177 9.785 95.2277 9.665C94.9377 9.535 94.6127 9.47 94.2527 9.47C93.8927 9.47 93.5677 9.535 93.2777 9.665C92.9877 9.785 92.7427 9.955 92.5427 10.175C92.3427 10.385 92.1877 10.645 92.0777 10.955C91.9677 11.255 91.9127 11.585 91.9127 11.945C91.9127 12.305 91.9677 12.64 92.0777 12.95C92.1877 13.25 92.3427 13.51 92.5427 13.73C92.7427 13.94 92.9877 14.11 93.2777 14.24C93.5677 14.36 93.8927 14.42 94.2527 14.42ZM104.267 4.16H105.617V15.5H104.267V4.16ZM107.871 8.39H109.221V15.5H107.871V8.39ZM107.556 5.84C107.556 5.57 107.651 5.34 107.841 5.15C108.041 4.95 108.276 4.85 108.546 4.85C108.816 4.85 109.046 4.95 109.236 5.15C109.436 5.34 109.536 5.57 109.536 5.84C109.536 6.11 109.436 6.345 109.236 6.545C109.046 6.735 108.816 6.83 108.546 6.83C108.276 6.83 108.041 6.735 107.841 6.545C107.651 6.345 107.556 6.11 107.556 5.84ZM111.369 8.39H112.719V9.485H112.749C112.919 9.105 113.214 8.8 113.634 8.57C114.054 8.33 114.539 8.21 115.089 8.21C115.429 8.21 115.754 8.265 116.064 8.375C116.384 8.475 116.659 8.635 116.889 8.855C117.129 9.075 117.319 9.36 117.459 9.71C117.599 10.05 117.669 10.455 117.669 10.925V15.5H116.319V11.3C116.319 10.97 116.274 10.69 116.184 10.46C116.094 10.22 115.974 10.03 115.824 9.89C115.674 9.74 115.499 9.635 115.299 9.575C115.109 9.505 114.909 9.47 114.699 9.47C114.419 9.47 114.159 9.515 113.919 9.605C113.679 9.695 113.469 9.84 113.289 10.04C113.109 10.23 112.969 10.475 112.869 10.775C112.769 11.075 112.719 11.43 112.719 11.84V15.5H111.369V8.39ZM119.704 4.16H121.054V11.48L124.114 8.405H125.989L122.674 11.63L126.274 15.5H124.354L121.054 11.81V15.5H119.704V4.16ZM131.263 10.175C131.103 9.975 130.903 9.81 130.663 9.68C130.433 9.54 130.148 9.47 129.808 9.47C129.488 9.47 129.208 9.54 128.968 9.68C128.738 9.81 128.623 10.005 128.623 10.265C128.623 10.475 128.688 10.645 128.818 10.775C128.958 10.905 129.118 11.01 129.298 11.09C129.488 11.17 129.688 11.23 129.898 11.27C130.108 11.31 130.288 11.345 130.438 11.375C130.728 11.445 130.998 11.53 131.248 11.63C131.508 11.73 131.728 11.86 131.908 12.02C132.098 12.18 132.243 12.375 132.343 12.605C132.453 12.835 132.508 13.115 132.508 13.445C132.508 13.845 132.423 14.19 132.253 14.48C132.083 14.76 131.863 14.99 131.593 15.17C131.323 15.35 131.013 15.48 130.663 15.56C130.323 15.64 129.978 15.68 129.628 15.68C129.038 15.68 128.518 15.59 128.068 15.41C127.628 15.23 127.233 14.9 126.883 14.42L127.903 13.58C128.123 13.8 128.368 13.995 128.638 14.165C128.908 14.335 129.238 14.42 129.628 14.42C129.798 14.42 129.968 14.405 130.138 14.375C130.318 14.335 130.473 14.28 130.603 14.21C130.743 14.13 130.853 14.035 130.933 13.925C131.023 13.805 131.068 13.67 131.068 13.52C131.068 13.32 131.003 13.155 130.873 13.025C130.753 12.895 130.603 12.795 130.423 12.725C130.253 12.645 130.068 12.585 129.868 12.545C129.678 12.495 129.508 12.455 129.358 12.425C129.068 12.355 128.793 12.275 128.533 12.185C128.273 12.095 128.043 11.975 127.843 11.825C127.643 11.675 127.483 11.485 127.363 11.255C127.243 11.025 127.183 10.74 127.183 10.4C127.183 10.03 127.258 9.71 127.408 9.44C127.568 9.16 127.773 8.93 128.023 8.75C128.283 8.57 128.573 8.435 128.893 8.345C129.223 8.255 129.553 8.21 129.883 8.21C130.363 8.21 130.823 8.3 131.263 8.48C131.703 8.66 132.053 8.96 132.313 9.38L131.263 10.175Z" fill="#848199"/>
</g>
<g clip-path="url(#clip1_233_526)">
<path d="M10.3836 31.5C4.86077 31.5 0.383621 35.9772 0.383621 41.5C0.383621 47.0228 4.86077 51.5 10.3836 51.5C15.9065 51.5 20.3836 47.0228 20.3836 41.5C20.3772 35.9798 15.9038 31.5064 10.3836 31.5Z" fill="#01CB62"/>
<path d="M16.1563 38.3334L10.4521 46.0742C10.3161 46.2547 10.1132 46.373 9.88914 46.4024C9.66505 46.4319 9.43852 46.3701 9.26045 46.2309L5.18712 42.9742C4.82767 42.6866 4.76947 42.162 5.05712 41.8025C5.34477 41.4431 5.86934 41.3849 6.22879 41.6725L9.62545 44.39L14.8146 37.3475C14.9848 37.0922 15.2815 36.951 15.587 36.9801C15.8924 37.0091 16.1572 37.2037 16.2762 37.4865C16.3952 37.7694 16.3491 38.0947 16.1563 38.3334Z" fill="white"/>
<path d="M36.6236 46.77C35.8136 46.77 35.0686 46.63 34.3886 46.35C33.7086 46.06 33.1236 45.665 32.6336 45.165C32.1536 44.665 31.7736 44.075 31.4936 43.395C31.2236 42.715 31.0886 41.98 31.0886 41.19C31.0886 40.4 31.2236 39.665 31.4936 38.985C31.7736 38.305 32.1536 37.715 32.6336 37.215C33.1236 36.715 33.7086 36.325 34.3886 36.045C35.0686 35.755 35.8136 35.61 36.6236 35.61C37.4336 35.61 38.1786 35.755 38.8586 36.045C39.5386 36.325 40.1186 36.715 40.5986 37.215C41.0886 37.715 41.4686 38.305 41.7386 38.985C42.0186 39.665 42.1586 40.4 42.1586 41.19C42.1586 41.98 42.0186 42.715 41.7386 43.395C41.4686 44.075 41.0886 44.665 40.5986 45.165C40.1186 45.665 39.5386 46.06 38.8586 46.35C38.1786 46.63 37.4336 46.77 36.6236 46.77ZM36.6236 45.42C37.2336 45.42 37.7836 45.31 38.2736 45.09C38.7636 44.86 39.1836 44.555 39.5336 44.175C39.8836 43.795 40.1536 43.35 40.3436 42.84C40.5336 42.32 40.6286 41.77 40.6286 41.19C40.6286 40.61 40.5336 40.065 40.3436 39.555C40.1536 39.035 39.8836 38.585 39.5336 38.205C39.1836 37.825 38.7636 37.525 38.2736 37.305C37.7836 37.075 37.2336 36.96 36.6236 36.96C36.0136 36.96 35.4636 37.075 34.9736 37.305C34.4836 37.525 34.0636 37.825 33.7136 38.205C33.3636 38.585 33.0936 39.035 32.9036 39.555C32.7136 40.065 32.6186 40.61 32.6186 41.19C32.6186 41.77 32.7136 42.32 32.9036 42.84C33.0936 43.35 33.3636 43.795 33.7136 44.175C34.0636 44.555 34.4836 44.86 34.9736 45.09C35.4636 45.31 36.0136 45.42 36.6236 45.42ZM43.0291 39.39H44.5441L46.1491 44.7H46.1791L47.8741 39.39H49.2991L51.0991 44.7H51.1291L52.6591 39.39H54.0841L51.7891 46.5H50.4241L48.5491 41.19H48.5191L46.8241 46.5H45.3691L43.0291 39.39ZM55.2659 39.39H56.6159V40.485H56.6459C56.8159 40.105 57.1109 39.8 57.5309 39.57C57.9509 39.33 58.4359 39.21 58.9859 39.21C59.3259 39.21 59.6509 39.265 59.9609 39.375C60.2809 39.475 60.5559 39.635 60.7859 39.855C61.0259 40.075 61.2159 40.36 61.3559 40.71C61.4959 41.05 61.5659 41.455 61.5659 41.925V46.5H60.2159V42.3C60.2159 41.97 60.1709 41.69 60.0809 41.46C59.9909 41.22 59.8709 41.03 59.7209 40.89C59.5709 40.74 59.3959 40.635 59.1959 40.575C59.0059 40.505 58.8059 40.47 58.5959 40.47C58.3159 40.47 58.0559 40.515 57.8159 40.605C57.5759 40.695 57.3659 40.84 57.1859 41.04C57.0059 41.23 56.8659 41.475 56.7659 41.775C56.6659 42.075 56.6159 42.43 56.6159 42.84V46.5H55.2659V39.39ZM67.8057 40.26C68.1857 39.91 68.6257 39.65 69.1257 39.48C69.6257 39.3 70.1257 39.21 70.6257 39.21C71.1457 39.21 71.5907 39.275 71.9607 39.405C72.3407 39.535 72.6507 39.71 72.8907 39.93C73.1307 40.15 73.3057 40.405 73.4157 40.695C73.5357 40.975 73.5957 41.27 73.5957 41.58V45.21C73.5957 45.46 73.6007 45.69 73.6107 45.9C73.6207 46.11 73.6357 46.31 73.6557 46.5H72.4557C72.4257 46.14 72.4107 45.78 72.4107 45.42H72.3807C72.0807 45.88 71.7257 46.205 71.3157 46.395C70.9057 46.585 70.4307 46.68 69.8907 46.68C69.5607 46.68 69.2457 46.635 68.9457 46.545C68.6457 46.455 68.3807 46.32 68.1507 46.14C67.9307 45.96 67.7557 45.74 67.6257 45.48C67.4957 45.21 67.4307 44.9 67.4307 44.55C67.4307 44.09 67.5307 43.705 67.7307 43.395C67.9407 43.085 68.2207 42.835 68.5707 42.645C68.9307 42.445 69.3457 42.305 69.8157 42.225C70.2957 42.135 70.8057 42.09 71.3457 42.09H72.3357V41.79C72.3357 41.61 72.3007 41.43 72.2307 41.25C72.1607 41.07 72.0557 40.91 71.9157 40.77C71.7757 40.62 71.6007 40.505 71.3907 40.425C71.1807 40.335 70.9307 40.29 70.6407 40.29C70.3807 40.29 70.1507 40.315 69.9507 40.365C69.7607 40.415 69.5857 40.48 69.4257 40.56C69.2657 40.63 69.1207 40.715 68.9907 40.815C68.8607 40.915 68.7357 41.01 68.6157 41.1L67.8057 40.26ZM71.6157 43.08C71.2957 43.08 70.9657 43.1 70.6257 43.14C70.2957 43.17 69.9907 43.235 69.7107 43.335C69.4407 43.435 69.2157 43.575 69.0357 43.755C68.8657 43.935 68.7807 44.165 68.7807 44.445C68.7807 44.855 68.9157 45.15 69.1857 45.33C69.4657 45.51 69.8407 45.6 70.3107 45.6C70.6807 45.6 70.9957 45.54 71.2557 45.42C71.5157 45.29 71.7257 45.125 71.8857 44.925C72.0457 44.725 72.1607 44.505 72.2307 44.265C72.3007 44.015 72.3357 43.77 72.3357 43.53V43.08H71.6157ZM75.554 39.39H76.904V40.485H76.934C77.104 40.105 77.399 39.8 77.819 39.57C78.239 39.33 78.724 39.21 79.274 39.21C79.614 39.21 79.939 39.265 80.249 39.375C80.569 39.475 80.844 39.635 81.074 39.855C81.314 40.075 81.504 40.36 81.644 40.71C81.784 41.05 81.854 41.455 81.854 41.925V46.5H80.504V42.3C80.504 41.97 80.459 41.69 80.369 41.46C80.279 41.22 80.159 41.03 80.009 40.89C79.859 40.74 79.684 40.635 79.484 40.575C79.294 40.505 79.094 40.47 78.884 40.47C78.604 40.47 78.344 40.515 78.104 40.605C77.864 40.695 77.654 40.84 77.474 41.04C77.294 41.23 77.154 41.475 77.054 41.775C76.954 42.075 76.904 42.43 76.904 42.84V46.5H75.554V39.39ZM83.919 40.26C84.299 39.91 84.739 39.65 85.239 39.48C85.739 39.3 86.239 39.21 86.739 39.21C87.259 39.21 87.704 39.275 88.074 39.405C88.454 39.535 88.764 39.71 89.004 39.93C89.244 40.15 89.419 40.405 89.529 40.695C89.649 40.975 89.709 41.27 89.709 41.58V45.21C89.709 45.46 89.714 45.69 89.724 45.9C89.734 46.11 89.749 46.31 89.769 46.5H88.569C88.539 46.14 88.524 45.78 88.524 45.42H88.494C88.194 45.88 87.839 46.205 87.429 46.395C87.019 46.585 86.544 46.68 86.004 46.68C85.674 46.68 85.359 46.635 85.059 46.545C84.759 46.455 84.494 46.32 84.264 46.14C84.044 45.96 83.869 45.74 83.739 45.48C83.609 45.21 83.544 44.9 83.544 44.55C83.544 44.09 83.644 43.705 83.844 43.395C84.054 43.085 84.334 42.835 84.684 42.645C85.044 42.445 85.459 42.305 85.929 42.225C86.409 42.135 86.919 42.09 87.459 42.09H88.449V41.79C88.449 41.61 88.414 41.43 88.344 41.25C88.274 41.07 88.169 40.91 88.029 40.77C87.889 40.62 87.714 40.505 87.504 40.425C87.294 40.335 87.044 40.29 86.754 40.29C86.494 40.29 86.264 40.315 86.064 40.365C85.874 40.415 85.699 40.48 85.539 40.56C85.379 40.63 85.234 40.715 85.104 40.815C84.974 40.915 84.849 41.01 84.729 41.1L83.919 40.26ZM87.729 43.08C87.409 43.08 87.079 43.1 86.739 43.14C86.409 43.17 86.104 43.235 85.824 43.335C85.554 43.435 85.329 43.575 85.149 43.755C84.979 43.935 84.894 44.165 84.894 44.445C84.894 44.855 85.029 45.15 85.299 45.33C85.579 45.51 85.954 45.6 86.424 45.6C86.794 45.6 87.109 45.54 87.369 45.42C87.629 45.29 87.839 45.125 87.999 44.925C88.159 44.725 88.274 44.505 88.344 44.265C88.414 44.015 88.449 43.77 88.449 43.53V43.08H87.729ZM91.7723 35.16H93.1223V46.5H91.7723V35.16ZM94.4158 39.39H95.9758L98.0908 44.94H98.1208L100.131 39.39H101.586L98.2108 48.03C98.0908 48.34 97.9658 48.62 97.8358 48.87C97.7058 49.13 97.5508 49.35 97.3708 49.53C97.1908 49.71 96.9708 49.85 96.7108 49.95C96.4608 50.05 96.1508 50.1 95.7808 50.1C95.5808 50.1 95.3758 50.085 95.1658 50.055C94.9658 50.035 94.7708 49.985 94.5808 49.905L94.7458 48.675C95.0158 48.785 95.2858 48.84 95.5558 48.84C95.7658 48.84 95.9408 48.81 96.0808 48.75C96.2308 48.7 96.3558 48.62 96.4558 48.51C96.5658 48.41 96.6558 48.29 96.7258 48.15C96.7958 48.01 96.8658 47.85 96.9358 47.67L97.3708 46.545L94.4158 39.39ZM106.581 40.56H104.646V43.785C104.646 43.985 104.651 44.185 104.661 44.385C104.671 44.575 104.706 44.75 104.766 44.91C104.836 45.06 104.936 45.185 105.066 45.285C105.206 45.375 105.406 45.42 105.666 45.42C105.826 45.42 105.991 45.405 106.161 45.375C106.331 45.345 106.486 45.29 106.626 45.21V46.44C106.466 46.53 106.256 46.59 105.996 46.62C105.746 46.66 105.551 46.68 105.411 46.68C104.891 46.68 104.486 46.61 104.196 46.47C103.916 46.32 103.706 46.13 103.566 45.9C103.436 45.67 103.356 45.415 103.326 45.135C103.306 44.845 103.296 44.555 103.296 44.265V40.56H101.736V39.39H103.296V37.395H104.646V39.39H106.581V40.56ZM108.428 39.39H109.778V46.5H108.428V39.39ZM108.113 36.84C108.113 36.57 108.208 36.34 108.398 36.15C108.598 35.95 108.833 35.85 109.103 35.85C109.373 35.85 109.603 35.95 109.793 36.15C109.993 36.34 110.093 36.57 110.093 36.84C110.093 37.11 109.993 37.345 109.793 37.545C109.603 37.735 109.373 37.83 109.103 37.83C108.833 37.83 108.598 37.735 108.398 37.545C108.208 37.345 108.113 37.11 108.113 36.84ZM117.011 41.28C116.761 41.02 116.496 40.825 116.216 40.695C115.946 40.555 115.621 40.485 115.241 40.485C114.871 40.485 114.546 40.555 114.266 40.695C113.996 40.825 113.766 41.01 113.576 41.25C113.396 41.48 113.256 41.75 113.156 42.06C113.066 42.36 113.021 42.675 113.021 43.005C113.021 43.335 113.076 43.65 113.186 43.95C113.296 44.24 113.451 44.495 113.651 44.715C113.851 44.935 114.091 45.11 114.371 45.24C114.651 45.36 114.966 45.42 115.316 45.42C115.696 45.42 116.021 45.355 116.291 45.225C116.561 45.085 116.811 44.885 117.041 44.625L118.001 45.585C117.651 45.975 117.241 46.255 116.771 46.425C116.311 46.595 115.821 46.68 115.301 46.68C114.751 46.68 114.246 46.59 113.786 46.41C113.336 46.23 112.946 45.98 112.616 45.66C112.286 45.33 112.031 44.94 111.851 44.49C111.671 44.03 111.581 43.525 111.581 42.975C111.581 42.425 111.671 41.92 111.851 41.46C112.031 41 112.281 40.605 112.601 40.275C112.931 39.945 113.321 39.69 113.771 39.51C114.231 39.32 114.741 39.225 115.301 39.225C115.821 39.225 116.316 39.32 116.786 39.51C117.266 39.69 117.681 39.97 118.031 40.35L117.011 41.28ZM122.942 41.175C122.782 40.975 122.582 40.81 122.342 40.68C122.112 40.54 121.827 40.47 121.487 40.47C121.167 40.47 120.887 40.54 120.647 40.68C120.417 40.81 120.302 41.005 120.302 41.265C120.302 41.475 120.367 41.645 120.497 41.775C120.637 41.905 120.797 42.01 120.977 42.09C121.167 42.17 121.367 42.23 121.577 42.27C121.787 42.31 121.967 42.345 122.117 42.375C122.407 42.445 122.677 42.53 122.927 42.63C123.187 42.73 123.407 42.86 123.587 43.02C123.777 43.18 123.922 43.375 124.022 43.605C124.132 43.835 124.187 44.115 124.187 44.445C124.187 44.845 124.102 45.19 123.932 45.48C123.762 45.76 123.542 45.99 123.272 46.17C123.002 46.35 122.692 46.48 122.342 46.56C122.002 46.64 121.657 46.68 121.307 46.68C120.717 46.68 120.197 46.59 119.747 46.41C119.307 46.23 118.912 45.9 118.562 45.42L119.582 44.58C119.802 44.8 120.047 44.995 120.317 45.165C120.587 45.335 120.917 45.42 121.307 45.42C121.477 45.42 121.647 45.405 121.817 45.375C121.997 45.335 122.152 45.28 122.282 45.21C122.422 45.13 122.532 45.035 122.612 44.925C122.702 44.805 122.747 44.67 122.747 44.52C122.747 44.32 122.682 44.155 122.552 44.025C122.432 43.895 122.282 43.795 122.102 43.725C121.932 43.645 121.747 43.585 121.547 43.545C121.357 43.495 121.187 43.455 121.037 43.425C120.747 43.355 120.472 43.275 120.212 43.185C119.952 43.095 119.722 42.975 119.522 42.825C119.322 42.675 119.162 42.485 119.042 42.255C118.922 42.025 118.862 41.74 118.862 41.4C118.862 41.03 118.937 40.71 119.087 40.44C119.247 40.16 119.452 39.93 119.702 39.75C119.962 39.57 120.252 39.435 120.572 39.345C120.902 39.255 121.232 39.21 121.562 39.21C122.042 39.21 122.502 39.3 122.942 39.48C123.382 39.66 123.732 39.96 123.992 40.38L122.942 41.175ZM130.002 39.39H131.352V40.41H131.382C131.642 40.03 131.997 39.735 132.447 39.525C132.907 39.315 133.377 39.21 133.857 39.21C134.407 39.21 134.902 39.305 135.342 39.495C135.792 39.685 136.172 39.95 136.482 40.29C136.802 40.63 137.047 41.03 137.217 41.49C137.387 41.94 137.472 42.425 137.472 42.945C137.472 43.475 137.387 43.97 137.217 44.43C137.047 44.88 136.802 45.275 136.482 45.615C136.172 45.945 135.792 46.205 135.342 46.395C134.902 46.585 134.407 46.68 133.857 46.68C133.347 46.68 132.867 46.575 132.417 46.365C131.967 46.145 131.622 45.85 131.382 45.48H131.352V50.73H130.002V39.39ZM133.692 40.47C133.332 40.47 133.007 40.535 132.717 40.665C132.427 40.785 132.182 40.955 131.982 41.175C131.782 41.385 131.627 41.645 131.517 41.955C131.407 42.255 131.352 42.585 131.352 42.945C131.352 43.305 131.407 43.64 131.517 43.95C131.627 44.25 131.782 44.51 131.982 44.73C132.182 44.94 132.427 45.11 132.717 45.24C133.007 45.36 133.332 45.42 133.692 45.42C134.052 45.42 134.377 45.36 134.667 45.24C134.957 45.11 135.202 44.94 135.402 44.73C135.602 44.51 135.757 44.25 135.867 43.95C135.977 43.64 136.032 43.305 136.032 42.945C136.032 42.585 135.977 42.255 135.867 41.955C135.757 41.645 135.602 41.385 135.402 41.175C135.202 40.955 134.957 40.785 134.667 40.665C134.377 40.535 134.052 40.47 133.692 40.47ZM139.277 35.16H140.627V46.5H139.277V35.16ZM142.806 40.26C143.186 39.91 143.626 39.65 144.126 39.48C144.626 39.3 145.126 39.21 145.626 39.21C146.146 39.21 146.591 39.275 146.961 39.405C147.341 39.535 147.651 39.71 147.891 39.93C148.131 40.15 148.306 40.405 148.416 40.695C148.536 40.975 148.596 41.27 148.596 41.58V45.21C148.596 45.46 148.601 45.69 148.611 45.9C148.621 46.11 148.636 46.31 148.656 46.5H147.456C147.426 46.14 147.411 45.78 147.411 45.42H147.381C147.081 45.88 146.726 46.205 146.316 46.395C145.906 46.585 145.431 46.68 144.891 46.68C144.561 46.68 144.246 46.635 143.946 46.545C143.646 46.455 143.381 46.32 143.151 46.14C142.931 45.96 142.756 45.74 142.626 45.48C142.496 45.21 142.431 44.9 142.431 44.55C142.431 44.09 142.531 43.705 142.731 43.395C142.941 43.085 143.221 42.835 143.571 42.645C143.931 42.445 144.346 42.305 144.816 42.225C145.296 42.135 145.806 42.09 146.346 42.09H147.336V41.79C147.336 41.61 147.301 41.43 147.231 41.25C147.161 41.07 147.056 40.91 146.916 40.77C146.776 40.62 146.601 40.505 146.391 40.425C146.181 40.335 145.931 40.29 145.641 40.29C145.381 40.29 145.151 40.315 144.951 40.365C144.761 40.415 144.586 40.48 144.426 40.56C144.266 40.63 144.121 40.715 143.991 40.815C143.861 40.915 143.736 41.01 143.616 41.1L142.806 40.26ZM146.616 43.08C146.296 43.08 145.966 43.1 145.626 43.14C145.296 43.17 144.991 43.235 144.711 43.335C144.441 43.435 144.216 43.575 144.036 43.755C143.866 43.935 143.781 44.165 143.781 44.445C143.781 44.855 143.916 45.15 144.186 45.33C144.466 45.51 144.841 45.6 145.311 45.6C145.681 45.6 145.996 45.54 146.256 45.42C146.516 45.29 146.726 45.125 146.886 44.925C147.046 44.725 147.161 44.505 147.231 44.265C147.301 44.015 147.336 43.77 147.336 43.53V43.08H146.616ZM154.364 40.56H152.429V43.785C152.429 43.985 152.434 44.185 152.444 44.385C152.454 44.575 152.489 44.75 152.549 44.91C152.619 45.06 152.719 45.185 152.849 45.285C152.989 45.375 153.189 45.42 153.449 45.42C153.609 45.42 153.774 45.405 153.944 45.375C154.114 45.345 154.269 45.29 154.409 45.21V46.44C154.249 46.53 154.039 46.59 153.779 46.62C153.529 46.66 153.334 46.68 153.194 46.68C152.674 46.68 152.269 46.61 151.979 46.47C151.699 46.32 151.489 46.13 151.349 45.9C151.219 45.67 151.139 45.415 151.109 45.135C151.089 44.845 151.079 44.555 151.079 44.265V40.56H149.519V39.39H151.079V37.395H152.429V39.39H154.364V40.56ZM156.631 40.56H155.101V39.39H156.631V37.8C156.631 36.85 156.811 36.145 157.171 35.685C157.541 35.215 158.171 34.98 159.061 34.98C159.211 34.98 159.366 34.985 159.526 34.995C159.696 35.005 159.876 35.035 160.066 35.085L159.916 36.285C159.786 36.235 159.661 36.2 159.541 36.18C159.421 36.16 159.291 36.15 159.151 36.15C158.901 36.15 158.701 36.19 158.551 36.27C158.401 36.34 158.281 36.445 158.191 36.585C158.111 36.725 158.056 36.895 158.026 37.095C158.006 37.285 157.996 37.505 157.996 37.755V39.39H159.601V40.56H157.981V46.5H156.631V40.56ZM162.196 42.945C162.196 43.305 162.251 43.64 162.361 43.95C162.471 44.25 162.626 44.51 162.826 44.73C163.026 44.94 163.271 45.11 163.561 45.24C163.851 45.36 164.176 45.42 164.536 45.42C164.896 45.42 165.221 45.36 165.511 45.24C165.801 45.11 166.046 44.94 166.246 44.73C166.446 44.51 166.601 44.25 166.711 43.95C166.821 43.64 166.876 43.305 166.876 42.945C166.876 42.585 166.821 42.255 166.711 41.955C166.601 41.645 166.446 41.385 166.246 41.175C166.046 40.955 165.801 40.785 165.511 40.665C165.221 40.535 164.896 40.47 164.536 40.47C164.176 40.47 163.851 40.535 163.561 40.665C163.271 40.785 163.026 40.955 162.826 41.175C162.626 41.385 162.471 41.645 162.361 41.955C162.251 42.255 162.196 42.585 162.196 42.945ZM160.756 42.945C160.756 42.425 160.851 41.94 161.041 41.49C161.241 41.04 161.511 40.645 161.851 40.305C162.191 39.965 162.591 39.7 163.051 39.51C163.511 39.31 164.006 39.21 164.536 39.21C165.066 39.21 165.561 39.31 166.021 39.51C166.481 39.7 166.881 39.965 167.221 40.305C167.561 40.645 167.826 41.04 168.016 41.49C168.216 41.94 168.316 42.425 168.316 42.945C168.316 43.465 168.216 43.955 168.016 44.415C167.826 44.865 167.561 45.26 167.221 45.6C166.881 45.93 166.481 46.195 166.021 46.395C165.561 46.585 165.066 46.68 164.536 46.68C164.006 46.68 163.511 46.585 163.051 46.395C162.591 46.195 162.191 45.93 161.851 45.6C161.511 45.26 161.241 44.865 161.041 44.415C160.851 43.955 160.756 43.465 160.756 42.945ZM170.007 39.39H171.357V40.485H171.387C171.477 40.295 171.597 40.125 171.747 39.975C171.897 39.815 172.062 39.68 172.242 39.57C172.432 39.46 172.637 39.375 172.857 39.315C173.077 39.245 173.297 39.21 173.517 39.21C173.737 39.21 173.937 39.24 174.117 39.3L174.057 40.755C173.947 40.725 173.837 40.7 173.727 40.68C173.617 40.66 173.507 40.65 173.397 40.65C172.737 40.65 172.232 40.835 171.882 41.205C171.532 41.575 171.357 42.15 171.357 42.93V46.5H170.007V39.39ZM175.559 39.39H176.819V40.5H176.849C176.879 40.4 176.954 40.275 177.074 40.125C177.204 39.975 177.364 39.835 177.554 39.705C177.754 39.565 177.984 39.45 178.244 39.36C178.514 39.26 178.809 39.21 179.129 39.21C179.659 39.21 180.104 39.32 180.464 39.54C180.824 39.76 181.119 40.09 181.349 40.53C181.579 40.09 181.904 39.76 182.324 39.54C182.744 39.32 183.169 39.21 183.599 39.21C184.149 39.21 184.599 39.3 184.949 39.48C185.299 39.66 185.574 39.9 185.774 40.2C185.974 40.49 186.109 40.825 186.179 41.205C186.259 41.575 186.299 41.96 186.299 42.36V46.5H184.949V42.54C184.949 42.27 184.929 42.01 184.889 41.76C184.859 41.51 184.789 41.29 184.679 41.1C184.569 40.91 184.414 40.76 184.214 40.65C184.014 40.53 183.749 40.47 183.419 40.47C182.769 40.47 182.304 40.67 182.024 41.07C181.744 41.47 181.604 41.985 181.604 42.615V46.5H180.254V42.78C180.254 42.44 180.234 42.13 180.194 41.85C180.164 41.57 180.094 41.33 179.984 41.13C179.884 40.92 179.734 40.76 179.534 40.65C179.344 40.53 179.084 40.47 178.754 40.47C178.514 40.47 178.279 40.52 178.049 40.62C177.829 40.71 177.634 40.85 177.464 41.04C177.294 41.23 177.159 41.475 177.059 41.775C176.959 42.065 176.909 42.41 176.909 42.81V46.5H175.559V39.39Z" fill="#848199"/>
</g>
<g clip-path="url(#clip2_233_526)">
<path d="M10.3836 62.5C4.86077 62.5 0.383621 66.9772 0.383621 72.5C0.383621 78.0228 4.86077 82.5 10.3836 82.5C15.9065 82.5 20.3836 78.0228 20.3836 72.5C20.3772 66.9798 15.9038 62.5064 10.3836 62.5Z" fill="#01CB62"/>
<path d="M16.1563 69.3334L10.4521 77.0742C10.3161 77.2547 10.1132 77.373 9.88914 77.4024C9.66505 77.4319 9.43852 77.3701 9.26045 77.2309L5.18712 73.9742C4.82767 73.6866 4.76947 73.162 5.05712 72.8025C5.34477 72.4431 5.86934 72.3849 6.22879 72.6725L9.62545 75.39L14.8146 68.3475C14.9848 68.0922 15.2815 67.951 15.587 67.9801C15.8924 68.0091 16.1572 68.2037 16.2762 68.4865C16.3952 68.7694 16.3491 69.0947 16.1563 69.3334Z" fill="white"/>
<path d="M39.1436 69.175C38.8436 68.785 38.4636 68.485 38.0036 68.275C37.5436 68.065 37.0686 67.96 36.5786 67.96C35.9786 67.96 35.4336 68.075 34.9436 68.305C34.4636 68.525 34.0486 68.83 33.6986 69.22C33.3586 69.61 33.0936 70.07 32.9036 70.6C32.7136 71.12 32.6186 71.68 32.6186 72.28C32.6186 72.84 32.7086 73.37 32.8886 73.87C33.0686 74.37 33.3286 74.81 33.6686 75.19C34.0086 75.57 34.4236 75.87 34.9136 76.09C35.4036 76.31 35.9586 76.42 36.5786 76.42C37.1886 76.42 37.7236 76.295 38.1836 76.045C38.6436 75.795 39.0336 75.445 39.3536 74.995L40.5686 75.91C40.4886 76.02 40.3486 76.18 40.1486 76.39C39.9486 76.59 39.6836 76.795 39.3536 77.005C39.0236 77.205 38.6236 77.38 38.1536 77.53C37.6936 77.69 37.1586 77.77 36.5486 77.77C35.7086 77.77 34.9486 77.61 34.2686 77.29C33.5986 76.97 33.0236 76.55 32.5436 76.03C32.0736 75.51 31.7136 74.925 31.4636 74.275C31.2136 73.615 31.0886 72.95 31.0886 72.28C31.0886 71.46 31.2236 70.705 31.4936 70.015C31.7636 69.315 32.1386 68.715 32.6186 68.215C33.1086 67.705 33.6936 67.31 34.3736 67.03C35.0536 66.75 35.8036 66.61 36.6236 66.61C37.3236 66.61 38.0086 66.745 38.6786 67.015C39.3586 67.285 39.9136 67.7 40.3436 68.26L39.1436 69.175ZM41.9651 66.16H43.3151V71.485H43.3451C43.5151 71.105 43.8101 70.8 44.2301 70.57C44.6501 70.33 45.1351 70.21 45.6851 70.21C46.0251 70.21 46.3501 70.265 46.6601 70.375C46.9801 70.475 47.2551 70.635 47.4851 70.855C47.7251 71.075 47.9151 71.36 48.0551 71.71C48.1951 72.05 48.2651 72.455 48.2651 72.925V77.5H46.9151V73.3C46.9151 72.97 46.8701 72.69 46.7801 72.46C46.6901 72.22 46.5701 72.03 46.4201 71.89C46.2701 71.74 46.0951 71.635 45.8951 71.575C45.7051 71.505 45.5051 71.47 45.2951 71.47C45.0151 71.47 44.7551 71.515 44.5151 71.605C44.2751 71.695 44.0651 71.84 43.8851 72.04C43.7051 72.23 43.5651 72.475 43.4651 72.775C43.3651 73.075 43.3151 73.43 43.3151 73.84V77.5H41.9651V66.16ZM50.3301 71.26C50.7101 70.91 51.1501 70.65 51.6501 70.48C52.1501 70.3 52.6501 70.21 53.1501 70.21C53.6701 70.21 54.1151 70.275 54.4851 70.405C54.8651 70.535 55.1751 70.71 55.4151 70.93C55.6551 71.15 55.8301 71.405 55.9401 71.695C56.0601 71.975 56.1201 72.27 56.1201 72.58V76.21C56.1201 76.46 56.1251 76.69 56.1351 76.9C56.1451 77.11 56.1601 77.31 56.1801 77.5H54.9801C54.9501 77.14 54.9351 76.78 54.9351 76.42H54.9051C54.6051 76.88 54.2501 77.205 53.8401 77.395C53.4301 77.585 52.9551 77.68 52.4151 77.68C52.0851 77.68 51.7701 77.635 51.4701 77.545C51.1701 77.455 50.9051 77.32 50.6751 77.14C50.4551 76.96 50.2801 76.74 50.1501 76.48C50.0201 76.21 49.9551 75.9 49.9551 75.55C49.9551 75.09 50.0551 74.705 50.2551 74.395C50.4651 74.085 50.7451 73.835 51.0951 73.645C51.4551 73.445 51.8701 73.305 52.3401 73.225C52.8201 73.135 53.3301 73.09 53.8701 73.09H54.8601V72.79C54.8601 72.61 54.8251 72.43 54.7551 72.25C54.6851 72.07 54.5801 71.91 54.4401 71.77C54.3001 71.62 54.1251 71.505 53.9151 71.425C53.7051 71.335 53.4551 71.29 53.1651 71.29C52.9051 71.29 52.6751 71.315 52.4751 71.365C52.2851 71.415 52.1101 71.48 51.9501 71.56C51.7901 71.63 51.6451 71.715 51.5151 71.815C51.3851 71.915 51.2601 72.01 51.1401 72.1L50.3301 71.26ZM54.1401 74.08C53.8201 74.08 53.4901 74.1 53.1501 74.14C52.8201 74.17 52.5151 74.235 52.2351 74.335C51.9651 74.435 51.7401 74.575 51.5601 74.755C51.3901 74.935 51.3051 75.165 51.3051 75.445C51.3051 75.855 51.4401 76.15 51.7101 76.33C51.9901 76.51 52.3651 76.6 52.8351 76.6C53.2051 76.6 53.5201 76.54 53.7801 76.42C54.0401 76.29 54.2501 76.125 54.4101 75.925C54.5701 75.725 54.6851 75.505 54.7551 75.265C54.8251 75.015 54.8601 74.77 54.8601 74.53V74.08H54.1401ZM61.8884 71.56H59.9534V74.785C59.9534 74.985 59.9584 75.185 59.9684 75.385C59.9784 75.575 60.0134 75.75 60.0734 75.91C60.1434 76.06 60.2434 76.185 60.3734 76.285C60.5134 76.375 60.7134 76.42 60.9734 76.42C61.1334 76.42 61.2984 76.405 61.4684 76.375C61.6384 76.345 61.7934 76.29 61.9334 76.21V77.44C61.7734 77.53 61.5634 77.59 61.3034 77.62C61.0534 77.66 60.8584 77.68 60.7184 77.68C60.1984 77.68 59.7934 77.61 59.5034 77.47C59.2234 77.32 59.0134 77.13 58.8734 76.9C58.7434 76.67 58.6634 76.415 58.6334 76.135C58.6134 75.845 58.6034 75.555 58.6034 75.265V71.56H57.0434V70.39H58.6034V68.395H59.9534V70.39H61.8884V71.56ZM71.585 72.175C71.425 71.975 71.225 71.81 70.985 71.68C70.755 71.54 70.47 71.47 70.13 71.47C69.81 71.47 69.53 71.54 69.29 71.68C69.06 71.81 68.945 72.005 68.945 72.265C68.945 72.475 69.01 72.645 69.14 72.775C69.28 72.905 69.44 73.01 69.62 73.09C69.81 73.17 70.01 73.23 70.22 73.27C70.43 73.31 70.61 73.345 70.76 73.375C71.05 73.445 71.32 73.53 71.57 73.63C71.83 73.73 72.05 73.86 72.23 74.02C72.42 74.18 72.565 74.375 72.665 74.605C72.775 74.835 72.83 75.115 72.83 75.445C72.83 75.845 72.745 76.19 72.575 76.48C72.405 76.76 72.185 76.99 71.915 77.17C71.645 77.35 71.335 77.48 70.985 77.56C70.645 77.64 70.3 77.68 69.95 77.68C69.36 77.68 68.84 77.59 68.39 77.41C67.95 77.23 67.555 76.9 67.205 76.42L68.225 75.58C68.445 75.8 68.69 75.995 68.96 76.165C69.23 76.335 69.56 76.42 69.95 76.42C70.12 76.42 70.29 76.405 70.46 76.375C70.64 76.335 70.795 76.28 70.925 76.21C71.065 76.13 71.175 76.035 71.255 75.925C71.345 75.805 71.39 75.67 71.39 75.52C71.39 75.32 71.325 75.155 71.195 75.025C71.075 74.895 70.925 74.795 70.745 74.725C70.575 74.645 70.39 74.585 70.19 74.545C70 74.495 69.83 74.455 69.68 74.425C69.39 74.355 69.115 74.275 68.855 74.185C68.595 74.095 68.365 73.975 68.165 73.825C67.965 73.675 67.805 73.485 67.685 73.255C67.565 73.025 67.505 72.74 67.505 72.4C67.505 72.03 67.58 71.71 67.73 71.44C67.89 71.16 68.095 70.93 68.345 70.75C68.605 70.57 68.895 70.435 69.215 70.345C69.545 70.255 69.875 70.21 70.205 70.21C70.685 70.21 71.145 70.3 71.585 70.48C72.025 70.66 72.375 70.96 72.635 71.38L71.585 72.175ZM80.77 77.5H79.42V76.405H79.39C79.22 76.785 78.925 77.095 78.505 77.335C78.085 77.565 77.6 77.68 77.05 77.68C76.7 77.68 76.37 77.625 76.06 77.515C75.75 77.415 75.475 77.255 75.235 77.035C75.005 76.815 74.82 76.535 74.68 76.195C74.54 75.845 74.47 75.435 74.47 74.965V70.39H75.82V74.59C75.82 74.92 75.865 75.205 75.955 75.445C76.045 75.675 76.165 75.865 76.315 76.015C76.465 76.155 76.635 76.26 76.825 76.33C77.025 76.39 77.23 76.42 77.44 76.42C77.72 76.42 77.98 76.375 78.22 76.285C78.46 76.195 78.67 76.055 78.85 75.865C79.03 75.665 79.17 75.415 79.27 75.115C79.37 74.815 79.42 74.46 79.42 74.05V70.39H80.77V77.5ZM82.805 70.39H84.155V71.41H84.185C84.445 71.03 84.8 70.735 85.25 70.525C85.71 70.315 86.18 70.21 86.66 70.21C87.21 70.21 87.705 70.305 88.145 70.495C88.595 70.685 88.975 70.95 89.285 71.29C89.605 71.63 89.85 72.03 90.02 72.49C90.19 72.94 90.275 73.425 90.275 73.945C90.275 74.475 90.19 74.97 90.02 75.43C89.85 75.88 89.605 76.275 89.285 76.615C88.975 76.945 88.595 77.205 88.145 77.395C87.705 77.585 87.21 77.68 86.66 77.68C86.15 77.68 85.67 77.575 85.22 77.365C84.77 77.145 84.425 76.85 84.185 76.48H84.155V81.73H82.805V70.39ZM86.495 71.47C86.135 71.47 85.81 71.535 85.52 71.665C85.23 71.785 84.985 71.955 84.785 72.175C84.585 72.385 84.43 72.645 84.32 72.955C84.21 73.255 84.155 73.585 84.155 73.945C84.155 74.305 84.21 74.64 84.32 74.95C84.43 75.25 84.585 75.51 84.785 75.73C84.985 75.94 85.23 76.11 85.52 76.24C85.81 76.36 86.135 76.42 86.495 76.42C86.855 76.42 87.18 76.36 87.47 76.24C87.76 76.11 88.005 75.94 88.205 75.73C88.405 75.51 88.56 75.25 88.67 74.95C88.78 74.64 88.835 74.305 88.835 73.945C88.835 73.585 88.78 73.255 88.67 72.955C88.56 72.645 88.405 72.385 88.205 72.175C88.005 71.955 87.76 71.785 87.47 71.665C87.18 71.535 86.855 71.47 86.495 71.47ZM91.9749 70.39H93.3249V71.41H93.3549C93.6149 71.03 93.9699 70.735 94.4199 70.525C94.8799 70.315 95.3499 70.21 95.8299 70.21C96.3799 70.21 96.8749 70.305 97.3149 70.495C97.7649 70.685 98.1449 70.95 98.4549 71.29C98.7749 71.63 99.0199 72.03 99.1899 72.49C99.3599 72.94 99.4449 73.425 99.4449 73.945C99.4449 74.475 99.3599 74.97 99.1899 75.43C99.0199 75.88 98.7749 76.275 98.4549 76.615C98.1449 76.945 97.7649 77.205 97.3149 77.395C96.8749 77.585 96.3799 77.68 95.8299 77.68C95.3199 77.68 94.8399 77.575 94.3899 77.365C93.9399 77.145 93.5949 76.85 93.3549 76.48H93.3249V81.73H91.9749V70.39ZM95.6649 71.47C95.3049 71.47 94.9799 71.535 94.6899 71.665C94.3999 71.785 94.1549 71.955 93.9549 72.175C93.7549 72.385 93.5999 72.645 93.4899 72.955C93.3799 73.255 93.3249 73.585 93.3249 73.945C93.3249 74.305 93.3799 74.64 93.4899 74.95C93.5999 75.25 93.7549 75.51 93.9549 75.73C94.1549 75.94 94.3999 76.11 94.6899 76.24C94.9799 76.36 95.3049 76.42 95.6649 76.42C96.0249 76.42 96.3499 76.36 96.6399 76.24C96.9299 76.11 97.1749 75.94 97.3749 75.73C97.5749 75.51 97.7299 75.25 97.8399 74.95C97.9499 74.64 98.0049 74.305 98.0049 73.945C98.0049 73.585 97.9499 73.255 97.8399 72.955C97.7299 72.645 97.5749 72.385 97.3749 72.175C97.1749 71.955 96.9299 71.785 96.6399 71.665C96.3499 71.535 96.0249 71.47 95.6649 71.47ZM102.24 73.945C102.24 74.305 102.295 74.64 102.405 74.95C102.515 75.25 102.67 75.51 102.87 75.73C103.07 75.94 103.315 76.11 103.605 76.24C103.895 76.36 104.22 76.42 104.58 76.42C104.94 76.42 105.265 76.36 105.555 76.24C105.845 76.11 106.09 75.94 106.29 75.73C106.49 75.51 106.645 75.25 106.755 74.95C106.865 74.64 106.92 74.305 106.92 73.945C106.92 73.585 106.865 73.255 106.755 72.955C106.645 72.645 106.49 72.385 106.29 72.175C106.09 71.955 105.845 71.785 105.555 71.665C105.265 71.535 104.94 71.47 104.58 71.47C104.22 71.47 103.895 71.535 103.605 71.665C103.315 71.785 103.07 71.955 102.87 72.175C102.67 72.385 102.515 72.645 102.405 72.955C102.295 73.255 102.24 73.585 102.24 73.945ZM100.8 73.945C100.8 73.425 100.895 72.94 101.085 72.49C101.285 72.04 101.555 71.645 101.895 71.305C102.235 70.965 102.635 70.7 103.095 70.51C103.555 70.31 104.05 70.21 104.58 70.21C105.11 70.21 105.605 70.31 106.065 70.51C106.525 70.7 106.925 70.965 107.265 71.305C107.605 71.645 107.87 72.04 108.06 72.49C108.26 72.94 108.36 73.425 108.36 73.945C108.36 74.465 108.26 74.955 108.06 75.415C107.87 75.865 107.605 76.26 107.265 76.6C106.925 76.93 106.525 77.195 106.065 77.395C105.605 77.585 105.11 77.68 104.58 77.68C104.05 77.68 103.555 77.585 103.095 77.395C102.635 77.195 102.235 76.93 101.895 76.6C101.555 76.26 101.285 75.865 101.085 75.415C100.895 74.955 100.8 74.465 100.8 73.945ZM110.051 70.39H111.401V71.485H111.431C111.521 71.295 111.641 71.125 111.791 70.975C111.941 70.815 112.106 70.68 112.286 70.57C112.476 70.46 112.681 70.375 112.901 70.315C113.121 70.245 113.341 70.21 113.561 70.21C113.781 70.21 113.981 70.24 114.161 70.3L114.101 71.755C113.991 71.725 113.881 71.7 113.771 71.68C113.661 71.66 113.551 71.65 113.441 71.65C112.781 71.65 112.276 71.835 111.926 72.205C111.576 72.575 111.401 73.15 111.401 73.93V77.5H110.051V70.39ZM119.413 71.56H117.478V74.785C117.478 74.985 117.483 75.185 117.493 75.385C117.503 75.575 117.538 75.75 117.598 75.91C117.668 76.06 117.768 76.185 117.898 76.285C118.038 76.375 118.238 76.42 118.498 76.42C118.658 76.42 118.823 76.405 118.993 76.375C119.163 76.345 119.318 76.29 119.458 76.21V77.44C119.298 77.53 119.088 77.59 118.828 77.62C118.578 77.66 118.383 77.68 118.243 77.68C117.723 77.68 117.318 77.61 117.028 77.47C116.748 77.32 116.538 77.13 116.398 76.9C116.268 76.67 116.188 76.415 116.158 76.135C116.138 75.845 116.128 75.555 116.128 75.265V71.56H114.568V70.39H116.128V68.395H117.478V70.39H119.413V71.56Z" fill="#848199"/>
</g>
<g clip-path="url(#clip3_233_526)">
<path d="M10.3836 93.5C4.86077 93.5 0.383621 97.9772 0.383621 103.5C0.383621 109.023 4.86077 113.5 10.3836 113.5C15.9065 113.5 20.3836 109.023 20.3836 103.5C20.3772 97.9798 15.9038 93.5064 10.3836 93.5Z" fill="#01CB62"/>
<path d="M16.1563 100.333L10.4521 108.074C10.3161 108.255 10.1132 108.373 9.88914 108.402C9.66505 108.432 9.43852 108.37 9.26045 108.231L5.18712 104.974C4.82767 104.687 4.76947 104.162 5.05712 103.803C5.34477 103.443 5.86934 103.385 6.22879 103.673L9.62545 106.39L14.8146 99.3475C14.9848 99.0922 15.2815 98.951 15.587 98.9801C15.8924 99.0091 16.1572 99.2037 16.2762 99.4865C16.3952 99.7694 16.3491 100.095 16.1563 100.333Z" fill="white"/>
<path d="M36.6236 108.77C35.8136 108.77 35.0686 108.63 34.3886 108.35C33.7086 108.06 33.1236 107.665 32.6336 107.165C32.1536 106.665 31.7736 106.075 31.4936 105.395C31.2236 104.715 31.0886 103.98 31.0886 103.19C31.0886 102.4 31.2236 101.665 31.4936 100.985C31.7736 100.305 32.1536 99.715 32.6336 99.215C33.1236 98.715 33.7086 98.325 34.3886 98.045C35.0686 97.755 35.8136 97.61 36.6236 97.61C37.4336 97.61 38.1786 97.755 38.8586 98.045C39.5386 98.325 40.1186 98.715 40.5986 99.215C41.0886 99.715 41.4686 100.305 41.7386 100.985C42.0186 101.665 42.1586 102.4 42.1586 103.19C42.1586 103.98 42.0186 104.715 41.7386 105.395C41.4686 106.075 41.0886 106.665 40.5986 107.165C40.1186 107.665 39.5386 108.06 38.8586 108.35C38.1786 108.63 37.4336 108.77 36.6236 108.77ZM36.6236 107.42C37.2336 107.42 37.7836 107.31 38.2736 107.09C38.7636 106.86 39.1836 106.555 39.5336 106.175C39.8836 105.795 40.1536 105.35 40.3436 104.84C40.5336 104.32 40.6286 103.77 40.6286 103.19C40.6286 102.61 40.5336 102.065 40.3436 101.555C40.1536 101.035 39.8836 100.585 39.5336 100.205C39.1836 99.825 38.7636 99.525 38.2736 99.305C37.7836 99.075 37.2336 98.96 36.6236 98.96C36.0136 98.96 35.4636 99.075 34.9736 99.305C34.4836 99.525 34.0636 99.825 33.7136 100.205C33.3636 100.585 33.0936 101.035 32.9036 101.555C32.7136 102.065 32.6186 102.61 32.6186 103.19C32.6186 103.77 32.7136 104.32 32.9036 104.84C33.0936 105.35 33.3636 105.795 33.7136 106.175C34.0636 106.555 34.4836 106.86 34.9736 107.09C35.4636 107.31 36.0136 107.42 36.6236 107.42ZM43.8841 101.39H45.2341V102.41H45.2641C45.5241 102.03 45.8791 101.735 46.3291 101.525C46.7891 101.315 47.2591 101.21 47.7391 101.21C48.2891 101.21 48.7841 101.305 49.2241 101.495C49.6741 101.685 50.0541 101.95 50.3641 102.29C50.6841 102.63 50.9291 103.03 51.0991 103.49C51.2691 103.94 51.3541 104.425 51.3541 104.945C51.3541 105.475 51.2691 105.97 51.0991 106.43C50.9291 106.88 50.6841 107.275 50.3641 107.615C50.0541 107.945 49.6741 108.205 49.2241 108.395C48.7841 108.585 48.2891 108.68 47.7391 108.68C47.2291 108.68 46.7491 108.575 46.2991 108.365C45.8491 108.145 45.5041 107.85 45.2641 107.48H45.2341V112.73H43.8841V101.39ZM47.5741 102.47C47.2141 102.47 46.8891 102.535 46.5991 102.665C46.3091 102.785 46.0641 102.955 45.8641 103.175C45.6641 103.385 45.5091 103.645 45.3991 103.955C45.2891 104.255 45.2341 104.585 45.2341 104.945C45.2341 105.305 45.2891 105.64 45.3991 105.95C45.5091 106.25 45.6641 106.51 45.8641 106.73C46.0641 106.94 46.3091 107.11 46.5991 107.24C46.8891 107.36 47.2141 107.42 47.5741 107.42C47.9341 107.42 48.2591 107.36 48.5491 107.24C48.8391 107.11 49.0841 106.94 49.2841 106.73C49.4841 106.51 49.6391 106.25 49.7491 105.95C49.8591 105.64 49.9141 105.305 49.9141 104.945C49.9141 104.585 49.8591 104.255 49.7491 103.955C49.6391 103.645 49.4841 103.385 49.2841 103.175C49.0841 102.955 48.8391 102.785 48.5491 102.665C48.2591 102.535 47.9341 102.47 47.5741 102.47ZM56.864 102.56H54.929V105.785C54.929 105.985 54.934 106.185 54.944 106.385C54.954 106.575 54.989 106.75 55.049 106.91C55.119 107.06 55.219 107.185 55.349 107.285C55.489 107.375 55.689 107.42 55.949 107.42C56.109 107.42 56.274 107.405 56.444 107.375C56.614 107.345 56.769 107.29 56.909 107.21V108.44C56.749 108.53 56.539 108.59 56.279 108.62C56.029 108.66 55.834 108.68 55.694 108.68C55.174 108.68 54.769 108.61 54.479 108.47C54.199 108.32 53.989 108.13 53.849 107.9C53.719 107.67 53.639 107.415 53.609 107.135C53.589 106.845 53.579 106.555 53.579 106.265V102.56H52.019V101.39H53.579V99.395H54.929V101.39H56.864V102.56ZM58.7108 101.39H60.0608V108.5H58.7108V101.39ZM58.3958 98.84C58.3958 98.57 58.4908 98.34 58.6808 98.15C58.8808 97.95 59.1158 97.85 59.3858 97.85C59.6558 97.85 59.8858 97.95 60.0758 98.15C60.2758 98.34 60.3758 98.57 60.3758 98.84C60.3758 99.11 60.2758 99.345 60.0758 99.545C59.8858 99.735 59.6558 99.83 59.3858 99.83C59.1158 99.83 58.8808 99.735 58.6808 99.545C58.4908 99.345 58.3958 99.11 58.3958 98.84ZM62.2093 101.39H63.4693V102.5H63.4993C63.5293 102.4 63.6043 102.275 63.7243 102.125C63.8543 101.975 64.0143 101.835 64.2043 101.705C64.4043 101.565 64.6343 101.45 64.8943 101.36C65.1643 101.26 65.4593 101.21 65.7793 101.21C66.3093 101.21 66.7543 101.32 67.1143 101.54C67.4743 101.76 67.7693 102.09 67.9993 102.53C68.2293 102.09 68.5543 101.76 68.9743 101.54C69.3943 101.32 69.8193 101.21 70.2493 101.21C70.7993 101.21 71.2493 101.3 71.5993 101.48C71.9493 101.66 72.2243 101.9 72.4243 102.2C72.6243 102.49 72.7593 102.825 72.8293 103.205C72.9093 103.575 72.9493 103.96 72.9493 104.36V108.5H71.5993V104.54C71.5993 104.27 71.5793 104.01 71.5393 103.76C71.5093 103.51 71.4393 103.29 71.3293 103.1C71.2193 102.91 71.0643 102.76 70.8643 102.65C70.6643 102.53 70.3993 102.47 70.0693 102.47C69.4193 102.47 68.9543 102.67 68.6743 103.07C68.3943 103.47 68.2543 103.985 68.2543 104.615V108.5H66.9043V104.78C66.9043 104.44 66.8843 104.13 66.8443 103.85C66.8143 103.57 66.7443 103.33 66.6343 103.13C66.5343 102.92 66.3843 102.76 66.1843 102.65C65.9943 102.53 65.7343 102.47 65.4043 102.47C65.1643 102.47 64.9293 102.52 64.6993 102.62C64.4793 102.71 64.2843 102.85 64.1143 103.04C63.9443 103.23 63.8093 103.475 63.7093 103.775C63.6093 104.065 63.5593 104.41 63.5593 104.81V108.5H62.2093V101.39ZM75.0877 101.39H76.4377V108.5H75.0877V101.39ZM74.7727 98.84C74.7727 98.57 74.8677 98.34 75.0577 98.15C75.2577 97.95 75.4927 97.85 75.7627 97.85C76.0327 97.85 76.2627 97.95 76.4527 98.15C76.6527 98.34 76.7527 98.57 76.7527 98.84C76.7527 99.11 76.6527 99.345 76.4527 99.545C76.2627 99.735 76.0327 99.83 75.7627 99.83C75.4927 99.83 75.2577 99.735 75.0577 99.545C74.8677 99.345 74.7727 99.11 74.7727 98.84ZM78.0912 107.285L82.1262 102.56H78.2262V101.39H83.7762V102.59L79.7112 107.33H83.9862V108.5H78.0912V107.285ZM86.5496 105.44C86.5496 105.75 86.6146 106.035 86.7446 106.295C86.8846 106.545 87.0646 106.76 87.2846 106.94C87.5046 107.12 87.7596 107.26 88.0496 107.36C88.3396 107.46 88.6396 107.51 88.9496 107.51C89.3696 107.51 89.7346 107.415 90.0446 107.225C90.3546 107.025 90.6396 106.765 90.8996 106.445L91.9196 107.225C91.1696 108.195 90.1196 108.68 88.7696 108.68C88.2096 108.68 87.6996 108.585 87.2396 108.395C86.7896 108.205 86.4046 107.945 86.0846 107.615C85.7746 107.275 85.5346 106.88 85.3646 106.43C85.1946 105.97 85.1096 105.475 85.1096 104.945C85.1096 104.415 85.1996 103.925 85.3796 103.475C85.5696 103.015 85.8246 102.62 86.1446 102.29C86.4746 101.95 86.8646 101.685 87.3146 101.495C87.7646 101.305 88.2546 101.21 88.7846 101.21C89.4146 101.21 89.9446 101.32 90.3746 101.54C90.8146 101.76 91.1746 102.05 91.4546 102.41C91.7346 102.76 91.9346 103.16 92.0546 103.61C92.1846 104.05 92.2496 104.5 92.2496 104.96V105.44H86.5496ZM90.8096 104.36C90.7996 104.06 90.7496 103.785 90.6596 103.535C90.5796 103.285 90.4546 103.07 90.2846 102.89C90.1146 102.7 89.8996 102.555 89.6396 102.455C89.3896 102.345 89.0946 102.29 88.7546 102.29C88.4246 102.29 88.1196 102.355 87.8396 102.485C87.5696 102.605 87.3396 102.765 87.1496 102.965C86.9596 103.165 86.8096 103.39 86.6996 103.64C86.5996 103.88 86.5496 104.12 86.5496 104.36H90.8096ZM98.0394 97.16H99.3894V102.485H99.4194C99.5894 102.105 99.8844 101.8 100.304 101.57C100.724 101.33 101.209 101.21 101.759 101.21C102.099 101.21 102.424 101.265 102.734 101.375C103.054 101.475 103.329 101.635 103.559 101.855C103.799 102.075 103.989 102.36 104.129 102.71C104.269 103.05 104.339 103.455 104.339 103.925V108.5H102.989V104.3C102.989 103.97 102.944 103.69 102.854 103.46C102.764 103.22 102.644 103.03 102.494 102.89C102.344 102.74 102.169 102.635 101.969 102.575C101.779 102.505 101.579 102.47 101.369 102.47C101.089 102.47 100.829 102.515 100.589 102.605C100.349 102.695 100.139 102.84 99.9594 103.04C99.7794 103.23 99.6394 103.475 99.5394 103.775C99.4394 104.075 99.3894 104.43 99.3894 104.84V108.5H98.0394V97.16ZM106.404 102.26C106.784 101.91 107.224 101.65 107.724 101.48C108.224 101.3 108.724 101.21 109.224 101.21C109.744 101.21 110.189 101.275 110.559 101.405C110.939 101.535 111.249 101.71 111.489 101.93C111.729 102.15 111.904 102.405 112.014 102.695C112.134 102.975 112.194 103.27 112.194 103.58V107.21C112.194 107.46 112.199 107.69 112.209 107.9C112.219 108.11 112.234 108.31 112.254 108.5H111.054C111.024 108.14 111.009 107.78 111.009 107.42H110.979C110.679 107.88 110.324 108.205 109.914 108.395C109.504 108.585 109.029 108.68 108.489 108.68C108.159 108.68 107.844 108.635 107.544 108.545C107.244 108.455 106.979 108.32 106.749 108.14C106.529 107.96 106.354 107.74 106.224 107.48C106.094 107.21 106.029 106.9 106.029 106.55C106.029 106.09 106.129 105.705 106.329 105.395C106.539 105.085 106.819 104.835 107.169 104.645C107.529 104.445 107.944 104.305 108.414 104.225C108.894 104.135 109.404 104.09 109.944 104.09H110.934V103.79C110.934 103.61 110.899 103.43 110.829 103.25C110.759 103.07 110.654 102.91 110.514 102.77C110.374 102.62 110.199 102.505 109.989 102.425C109.779 102.335 109.529 102.29 109.239 102.29C108.979 102.29 108.749 102.315 108.549 102.365C108.359 102.415 108.184 102.48 108.024 102.56C107.864 102.63 107.719 102.715 107.589 102.815C107.459 102.915 107.334 103.01 107.214 103.1L106.404 102.26ZM110.214 105.08C109.894 105.08 109.564 105.1 109.224 105.14C108.894 105.17 108.589 105.235 108.309 105.335C108.039 105.435 107.814 105.575 107.634 105.755C107.464 105.935 107.379 106.165 107.379 106.445C107.379 106.855 107.514 107.15 107.784 107.33C108.064 107.51 108.439 107.6 108.909 107.6C109.279 107.6 109.594 107.54 109.854 107.42C110.114 107.29 110.324 107.125 110.484 106.925C110.644 106.725 110.759 106.505 110.829 106.265C110.899 106.015 110.934 105.77 110.934 105.53V105.08H110.214ZM117.933 103.175C117.773 102.975 117.573 102.81 117.333 102.68C117.103 102.54 116.818 102.47 116.478 102.47C116.158 102.47 115.878 102.54 115.638 102.68C115.408 102.81 115.293 103.005 115.293 103.265C115.293 103.475 115.358 103.645 115.488 103.775C115.628 103.905 115.788 104.01 115.968 104.09C116.158 104.17 116.358 104.23 116.568 104.27C116.778 104.31 116.958 104.345 117.108 104.375C117.398 104.445 117.668 104.53 117.918 104.63C118.178 104.73 118.398 104.86 118.578 105.02C118.768 105.18 118.913 105.375 119.013 105.605C119.123 105.835 119.178 106.115 119.178 106.445C119.178 106.845 119.093 107.19 118.923 107.48C118.753 107.76 118.533 107.99 118.263 108.17C117.993 108.35 117.683 108.48 117.333 108.56C116.993 108.64 116.648 108.68 116.298 108.68C115.708 108.68 115.188 108.59 114.738 108.41C114.298 108.23 113.903 107.9 113.553 107.42L114.573 106.58C114.793 106.8 115.038 106.995 115.308 107.165C115.578 107.335 115.908 107.42 116.298 107.42C116.468 107.42 116.638 107.405 116.808 107.375C116.988 107.335 117.143 107.28 117.273 107.21C117.413 107.13 117.523 107.035 117.603 106.925C117.693 106.805 117.738 106.67 117.738 106.52C117.738 106.32 117.673 106.155 117.543 106.025C117.423 105.895 117.273 105.795 117.093 105.725C116.923 105.645 116.738 105.585 116.538 105.545C116.348 105.495 116.178 105.455 116.028 105.425C115.738 105.355 115.463 105.275 115.203 105.185C114.943 105.095 114.713 104.975 114.513 104.825C114.313 104.675 114.153 104.485 114.033 104.255C113.913 104.025 113.853 103.74 113.853 103.4C113.853 103.03 113.928 102.71 114.078 102.44C114.238 102.16 114.443 101.93 114.693 101.75C114.953 101.57 115.243 101.435 115.563 101.345C115.893 101.255 116.223 101.21 116.553 101.21C117.033 101.21 117.493 101.3 117.933 101.48C118.373 101.66 118.723 101.96 118.983 102.38L117.933 103.175ZM120.818 97.16H122.168V102.485H122.198C122.368 102.105 122.663 101.8 123.083 101.57C123.503 101.33 123.988 101.21 124.538 101.21C124.878 101.21 125.203 101.265 125.513 101.375C125.833 101.475 126.108 101.635 126.338 101.855C126.578 102.075 126.768 102.36 126.908 102.71C127.048 103.05 127.118 103.455 127.118 103.925V108.5H125.768V104.3C125.768 103.97 125.723 103.69 125.633 103.46C125.543 103.22 125.423 103.03 125.273 102.89C125.123 102.74 124.948 102.635 124.748 102.575C124.558 102.505 124.358 102.47 124.148 102.47C123.868 102.47 123.608 102.515 123.368 102.605C123.128 102.695 122.918 102.84 122.738 103.04C122.558 103.23 122.418 103.475 122.318 103.775C122.218 104.075 122.168 104.43 122.168 104.84V108.5H120.818V97.16ZM132.963 102.56H131.028V105.785C131.028 105.985 131.033 106.185 131.043 106.385C131.053 106.575 131.088 106.75 131.148 106.91C131.218 107.06 131.318 107.185 131.448 107.285C131.588 107.375 131.788 107.42 132.048 107.42C132.208 107.42 132.373 107.405 132.543 107.375C132.713 107.345 132.868 107.29 133.008 107.21V108.44C132.848 108.53 132.638 108.59 132.378 108.62C132.128 108.66 131.933 108.68 131.793 108.68C131.273 108.68 130.868 108.61 130.578 108.47C130.298 108.32 130.088 108.13 129.948 107.9C129.818 107.67 129.738 107.415 129.708 107.135C129.688 106.845 129.678 106.555 129.678 106.265V102.56H128.118V101.39H129.678V99.395H131.028V101.39H132.963V102.56ZM134.734 102.26C135.114 101.91 135.554 101.65 136.054 101.48C136.554 101.3 137.054 101.21 137.554 101.21C138.074 101.21 138.519 101.275 138.889 101.405C139.269 101.535 139.579 101.71 139.819 101.93C140.059 102.15 140.234 102.405 140.344 102.695C140.464 102.975 140.524 103.27 140.524 103.58V107.21C140.524 107.46 140.529 107.69 140.539 107.9C140.549 108.11 140.564 108.31 140.584 108.5H139.384C139.354 108.14 139.339 107.78 139.339 107.42H139.309C139.009 107.88 138.654 108.205 138.244 108.395C137.834 108.585 137.359 108.68 136.819 108.68C136.489 108.68 136.174 108.635 135.874 108.545C135.574 108.455 135.309 108.32 135.079 108.14C134.859 107.96 134.684 107.74 134.554 107.48C134.424 107.21 134.359 106.9 134.359 106.55C134.359 106.09 134.459 105.705 134.659 105.395C134.869 105.085 135.149 104.835 135.499 104.645C135.859 104.445 136.274 104.305 136.744 104.225C137.224 104.135 137.734 104.09 138.274 104.09H139.264V103.79C139.264 103.61 139.229 103.43 139.159 103.25C139.089 103.07 138.984 102.91 138.844 102.77C138.704 102.62 138.529 102.505 138.319 102.425C138.109 102.335 137.859 102.29 137.569 102.29C137.309 102.29 137.079 102.315 136.879 102.365C136.689 102.415 136.514 102.48 136.354 102.56C136.194 102.63 136.049 102.715 135.919 102.815C135.789 102.915 135.664 103.01 135.544 103.1L134.734 102.26ZM138.544 105.08C138.224 105.08 137.894 105.1 137.554 105.14C137.224 105.17 136.919 105.235 136.639 105.335C136.369 105.435 136.144 105.575 135.964 105.755C135.794 105.935 135.709 106.165 135.709 106.445C135.709 106.855 135.844 107.15 136.114 107.33C136.394 107.51 136.769 107.6 137.239 107.6C137.609 107.6 137.924 107.54 138.184 107.42C138.444 107.29 138.654 107.125 138.814 106.925C138.974 106.725 139.089 106.505 139.159 106.265C139.229 106.015 139.264 105.77 139.264 105.53V105.08H138.544ZM149.608 108.44C149.608 108.98 149.513 109.47 149.323 109.91C149.143 110.36 148.883 110.745 148.543 111.065C148.203 111.395 147.793 111.65 147.313 111.83C146.833 112.01 146.303 112.1 145.723 112.1C145.043 112.1 144.418 112.005 143.848 111.815C143.288 111.625 142.753 111.295 142.243 110.825L143.158 109.685C143.508 110.065 143.888 110.35 144.298 110.54C144.708 110.74 145.173 110.84 145.693 110.84C146.193 110.84 146.608 110.765 146.938 110.615C147.268 110.475 147.528 110.29 147.718 110.06C147.918 109.83 148.058 109.565 148.138 109.265C148.218 108.975 148.258 108.68 148.258 108.38V107.33H148.213C147.953 107.76 147.598 108.08 147.148 108.29C146.708 108.49 146.243 108.59 145.753 108.59C145.233 108.59 144.748 108.5 144.298 108.32C143.858 108.13 143.478 107.875 143.158 107.555C142.838 107.225 142.588 106.84 142.408 106.4C142.228 105.95 142.138 105.465 142.138 104.945C142.138 104.425 142.223 103.94 142.393 103.49C142.563 103.03 142.803 102.63 143.113 102.29C143.433 101.95 143.813 101.685 144.253 101.495C144.703 101.305 145.203 101.21 145.753 101.21C146.233 101.21 146.698 101.315 147.148 101.525C147.608 101.735 147.968 102.03 148.228 102.41H148.258V101.39H149.608V108.44ZM145.918 102.47C145.558 102.47 145.233 102.535 144.943 102.665C144.653 102.785 144.408 102.955 144.208 103.175C144.008 103.385 143.853 103.645 143.743 103.955C143.633 104.255 143.578 104.585 143.578 104.945C143.578 105.665 143.788 106.245 144.208 106.685C144.628 107.115 145.198 107.33 145.918 107.33C146.638 107.33 147.208 107.115 147.628 106.685C148.048 106.245 148.258 105.665 148.258 104.945C148.258 104.585 148.203 104.255 148.093 103.955C147.983 103.645 147.828 103.385 147.628 103.175C147.428 102.955 147.183 102.785 146.893 102.665C146.603 102.535 146.278 102.47 145.918 102.47ZM155.433 103.175C155.273 102.975 155.073 102.81 154.833 102.68C154.603 102.54 154.318 102.47 153.978 102.47C153.658 102.47 153.378 102.54 153.138 102.68C152.908 102.81 152.793 103.005 152.793 103.265C152.793 103.475 152.858 103.645 152.988 103.775C153.128 103.905 153.288 104.01 153.468 104.09C153.658 104.17 153.858 104.23 154.068 104.27C154.278 104.31 154.458 104.345 154.608 104.375C154.898 104.445 155.168 104.53 155.418 104.63C155.678 104.73 155.898 104.86 156.078 105.02C156.268 105.18 156.413 105.375 156.513 105.605C156.623 105.835 156.678 106.115 156.678 106.445C156.678 106.845 156.593 107.19 156.423 107.48C156.253 107.76 156.033 107.99 155.763 108.17C155.493 108.35 155.183 108.48 154.833 108.56C154.493 108.64 154.148 108.68 153.798 108.68C153.208 108.68 152.688 108.59 152.238 108.41C151.798 108.23 151.403 107.9 151.053 107.42L152.073 106.58C152.293 106.8 152.538 106.995 152.808 107.165C153.078 107.335 153.408 107.42 153.798 107.42C153.968 107.42 154.138 107.405 154.308 107.375C154.488 107.335 154.643 107.28 154.773 107.21C154.913 107.13 155.023 107.035 155.103 106.925C155.193 106.805 155.238 106.67 155.238 106.52C155.238 106.32 155.173 106.155 155.043 106.025C154.923 105.895 154.773 105.795 154.593 105.725C154.423 105.645 154.238 105.585 154.038 105.545C153.848 105.495 153.678 105.455 153.528 105.425C153.238 105.355 152.963 105.275 152.703 105.185C152.443 105.095 152.213 104.975 152.013 104.825C151.813 104.675 151.653 104.485 151.533 104.255C151.413 104.025 151.353 103.74 151.353 103.4C151.353 103.03 151.428 102.71 151.578 102.44C151.738 102.16 151.943 101.93 152.193 101.75C152.453 101.57 152.743 101.435 153.063 101.345C153.393 101.255 153.723 101.21 154.053 101.21C154.533 101.21 154.993 101.3 155.433 101.48C155.873 101.66 156.223 101.96 156.483 102.38L155.433 103.175Z" fill="#848199"/>
</g>
<g clip-path="url(#clip4_233_526)">
<path d="M10.3836 124.5C4.86077 124.5 0.383621 128.977 0.383621 134.5C0.383621 140.023 4.86077 144.5 10.3836 144.5C15.9065 144.5 20.3836 140.023 20.3836 134.5C20.3772 128.98 15.9038 124.506 10.3836 124.5Z" fill="#01CB62"/>
<path d="M16.1563 131.333L10.4521 139.074C10.3161 139.255 10.1132 139.373 9.88914 139.402C9.66505 139.432 9.43852 139.37 9.26045 139.231L5.18712 135.974C4.82767 135.687 4.76947 135.162 5.05712 134.803C5.34477 134.443 5.86934 134.385 6.22879 134.673L9.62545 137.39L14.8146 130.348C14.9848 130.092 15.2815 129.951 15.587 129.98C15.8924 130.009 16.1572 130.204 16.2762 130.487C16.3952 130.769 16.3491 131.095 16.1563 131.333Z" fill="white"/>
<path d="M32.9936 128.88V135.39C32.9936 135.72 33.0386 136.065 33.1286 136.425C33.2186 136.775 33.3686 137.1 33.5786 137.4C33.7886 137.7 34.0636 137.945 34.4036 138.135C34.7436 138.325 35.1636 138.42 35.6636 138.42C36.1636 138.42 36.5836 138.325 36.9236 138.135C37.2636 137.945 37.5386 137.7 37.7486 137.4C37.9586 137.1 38.1086 136.775 38.1986 136.425C38.2886 136.065 38.3336 135.72 38.3336 135.39V128.88H39.7736V135.615C39.7736 136.235 39.6686 136.8 39.4586 137.31C39.2486 137.81 38.9586 138.245 38.5886 138.615C38.2186 138.985 37.7836 139.27 37.2836 139.47C36.7836 139.67 36.2436 139.77 35.6636 139.77C35.0836 139.77 34.5436 139.67 34.0436 139.47C33.5436 139.27 33.1086 138.985 32.7386 138.615C32.3686 138.245 32.0786 137.81 31.8686 137.31C31.6586 136.8 31.5536 136.235 31.5536 135.615V128.88H32.9936ZM41.9651 132.39H43.3151V133.485H43.3451C43.5151 133.105 43.8101 132.8 44.2301 132.57C44.6501 132.33 45.1351 132.21 45.6851 132.21C46.0251 132.21 46.3501 132.265 46.6601 132.375C46.9801 132.475 47.2551 132.635 47.4851 132.855C47.7251 133.075 47.9151 133.36 48.0551 133.71C48.1951 134.05 48.2651 134.455 48.2651 134.925V139.5H46.9151V135.3C46.9151 134.97 46.8701 134.69 46.7801 134.46C46.6901 134.22 46.5701 134.03 46.4201 133.89C46.2701 133.74 46.0951 133.635 45.8951 133.575C45.7051 133.505 45.5051 133.47 45.2951 133.47C45.0151 133.47 44.7551 133.515 44.5151 133.605C44.2751 133.695 44.0651 133.84 43.8851 134.04C43.7051 134.23 43.5651 134.475 43.4651 134.775C43.3651 135.075 43.3151 135.43 43.3151 135.84V139.5H41.9651V132.39ZM50.4051 128.16H51.7551V139.5H50.4051V128.16ZM54.0086 132.39H55.3586V139.5H54.0086V132.39ZM53.6936 129.84C53.6936 129.57 53.7886 129.34 53.9786 129.15C54.1786 128.95 54.4136 128.85 54.6836 128.85C54.9536 128.85 55.1836 128.95 55.3736 129.15C55.5736 129.34 55.6736 129.57 55.6736 129.84C55.6736 130.11 55.5736 130.345 55.3736 130.545C55.1836 130.735 54.9536 130.83 54.6836 130.83C54.4136 130.83 54.1786 130.735 53.9786 130.545C53.7886 130.345 53.6936 130.11 53.6936 129.84ZM57.5071 132.39H58.7671V133.5H58.7971C58.8271 133.4 58.9021 133.275 59.0221 133.125C59.1521 132.975 59.3121 132.835 59.5021 132.705C59.7021 132.565 59.9321 132.45 60.1921 132.36C60.4621 132.26 60.7571 132.21 61.0771 132.21C61.6071 132.21 62.0521 132.32 62.4121 132.54C62.7721 132.76 63.0671 133.09 63.2971 133.53C63.5271 133.09 63.8521 132.76 64.2721 132.54C64.6921 132.32 65.1171 132.21 65.5471 132.21C66.0971 132.21 66.5471 132.3 66.8971 132.48C67.2471 132.66 67.5221 132.9 67.7221 133.2C67.9221 133.49 68.0571 133.825 68.1271 134.205C68.2071 134.575 68.2471 134.96 68.2471 135.36V139.5H66.8971V135.54C66.8971 135.27 66.8771 135.01 66.8371 134.76C66.8071 134.51 66.7371 134.29 66.6271 134.1C66.5171 133.91 66.3621 133.76 66.1621 133.65C65.9621 133.53 65.6971 133.47 65.3671 133.47C64.7171 133.47 64.2521 133.67 63.9721 134.07C63.6921 134.47 63.5521 134.985 63.5521 135.615V139.5H62.2021V135.78C62.2021 135.44 62.1821 135.13 62.1421 134.85C62.1121 134.57 62.0421 134.33 61.9321 134.13C61.8321 133.92 61.6821 133.76 61.4821 133.65C61.2921 133.53 61.0321 133.47 60.7021 133.47C60.4621 133.47 60.2271 133.52 59.9971 133.62C59.7771 133.71 59.5821 133.85 59.4121 134.04C59.2421 134.23 59.1071 134.475 59.0071 134.775C58.9071 135.065 58.8571 135.41 58.8571 135.81V139.5H57.5071V132.39ZM70.3856 132.39H71.7356V139.5H70.3856V132.39ZM70.0706 129.84C70.0706 129.57 70.1656 129.34 70.3556 129.15C70.5556 128.95 70.7906 128.85 71.0606 128.85C71.3306 128.85 71.5606 128.95 71.7506 129.15C71.9506 129.34 72.0506 129.57 72.0506 129.84C72.0506 130.11 71.9506 130.345 71.7506 130.545C71.5606 130.735 71.3306 130.83 71.0606 130.83C70.7906 130.83 70.5556 130.735 70.3556 130.545C70.1656 130.345 70.0706 130.11 70.0706 129.84ZM77.6941 133.56H75.7591V136.785C75.7591 136.985 75.7641 137.185 75.7741 137.385C75.7841 137.575 75.8191 137.75 75.8791 137.91C75.9491 138.06 76.0491 138.185 76.1791 138.285C76.3191 138.375 76.5191 138.42 76.7791 138.42C76.9391 138.42 77.1041 138.405 77.2741 138.375C77.4441 138.345 77.5991 138.29 77.7391 138.21V139.44C77.5791 139.53 77.3691 139.59 77.1091 139.62C76.8591 139.66 76.6641 139.68 76.5241 139.68C76.0041 139.68 75.5991 139.61 75.3091 139.47C75.0291 139.32 74.8191 139.13 74.6791 138.9C74.5491 138.67 74.4691 138.415 74.4391 138.135C74.4191 137.845 74.4091 137.555 74.4091 137.265V133.56H72.8491V132.39H74.4091V130.395H75.7591V132.39H77.6941V133.56ZM80.4558 136.44C80.4558 136.75 80.5208 137.035 80.6508 137.295C80.7908 137.545 80.9708 137.76 81.1908 137.94C81.4108 138.12 81.6658 138.26 81.9558 138.36C82.2458 138.46 82.5458 138.51 82.8558 138.51C83.2758 138.51 83.6408 138.415 83.9508 138.225C84.2608 138.025 84.5458 137.765 84.8058 137.445L85.8258 138.225C85.0758 139.195 84.0258 139.68 82.6758 139.68C82.1158 139.68 81.6058 139.585 81.1458 139.395C80.6958 139.205 80.3108 138.945 79.9908 138.615C79.6808 138.275 79.4408 137.88 79.2708 137.43C79.1008 136.97 79.0158 136.475 79.0158 135.945C79.0158 135.415 79.1058 134.925 79.2858 134.475C79.4758 134.015 79.7308 133.62 80.0508 133.29C80.3808 132.95 80.7708 132.685 81.2208 132.495C81.6708 132.305 82.1608 132.21 82.6908 132.21C83.3208 132.21 83.8508 132.32 84.2808 132.54C84.7208 132.76 85.0808 133.05 85.3608 133.41C85.6408 133.76 85.8408 134.16 85.9608 134.61C86.0908 135.05 86.1558 135.5 86.1558 135.96V136.44H80.4558ZM84.7158 135.36C84.7058 135.06 84.6558 134.785 84.5658 134.535C84.4858 134.285 84.3608 134.07 84.1908 133.89C84.0208 133.7 83.8058 133.555 83.5458 133.455C83.2958 133.345 83.0008 133.29 82.6608 133.29C82.3308 133.29 82.0258 133.355 81.7458 133.485C81.4758 133.605 81.2458 133.765 81.0558 133.965C80.8658 134.165 80.7158 134.39 80.6058 134.64C80.5058 134.88 80.4558 135.12 80.4558 135.36H84.7158ZM94.8958 139.5H93.5458V138.48H93.5158C93.2558 138.86 92.8958 139.155 92.4358 139.365C91.9858 139.575 91.5208 139.68 91.0408 139.68C90.4908 139.68 89.9908 139.585 89.5408 139.395C89.1008 139.205 88.7208 138.94 88.4008 138.6C88.0908 138.26 87.8508 137.865 87.6808 137.415C87.5108 136.965 87.4258 136.475 87.4258 135.945C87.4258 135.415 87.5108 134.925 87.6808 134.475C87.8508 134.015 88.0908 133.62 88.4008 133.29C88.7208 132.95 89.1008 132.685 89.5408 132.495C89.9908 132.305 90.4908 132.21 91.0408 132.21C91.5508 132.21 92.0308 132.32 92.4808 132.54C92.9308 132.75 93.2758 133.04 93.5158 133.41H93.5458V128.16H94.8958V139.5ZM91.2058 138.42C91.5658 138.42 91.8908 138.36 92.1808 138.24C92.4708 138.11 92.7158 137.94 92.9158 137.73C93.1158 137.51 93.2708 137.25 93.3808 136.95C93.4908 136.64 93.5458 136.305 93.5458 135.945C93.5458 135.585 93.4908 135.255 93.3808 134.955C93.2708 134.645 93.1158 134.385 92.9158 134.175C92.7158 133.955 92.4708 133.785 92.1808 133.665C91.8908 133.535 91.5658 133.47 91.2058 133.47C90.8458 133.47 90.5208 133.535 90.2308 133.665C89.9408 133.785 89.6958 133.955 89.4958 134.175C89.2958 134.385 89.1408 134.645 89.0308 134.955C88.9208 135.255 88.8658 135.585 88.8658 135.945C88.8658 136.305 88.9208 136.64 89.0308 136.95C89.1408 137.25 89.2958 137.51 89.4958 137.73C89.6958 137.94 89.9408 138.11 90.2308 138.24C90.5208 138.36 90.8458 138.42 91.2058 138.42ZM107.416 139.5H106.066V138.405H106.036C105.866 138.785 105.571 139.095 105.151 139.335C104.731 139.565 104.246 139.68 103.696 139.68C103.346 139.68 103.016 139.625 102.706 139.515C102.396 139.415 102.121 139.255 101.881 139.035C101.651 138.815 101.466 138.535 101.326 138.195C101.186 137.845 101.116 137.435 101.116 136.965V132.39H102.466V136.59C102.466 136.92 102.511 137.205 102.601 137.445C102.691 137.675 102.811 137.865 102.961 138.015C103.111 138.155 103.281 138.26 103.471 138.33C103.671 138.39 103.876 138.42 104.086 138.42C104.366 138.42 104.626 138.375 104.866 138.285C105.106 138.195 105.316 138.055 105.496 137.865C105.676 137.665 105.816 137.415 105.916 137.115C106.016 136.815 106.066 136.46 106.066 136.05V132.39H107.416V139.5ZM113.23 134.175C113.07 133.975 112.87 133.81 112.63 133.68C112.4 133.54 112.115 133.47 111.775 133.47C111.455 133.47 111.175 133.54 110.935 133.68C110.705 133.81 110.59 134.005 110.59 134.265C110.59 134.475 110.655 134.645 110.785 134.775C110.925 134.905 111.085 135.01 111.265 135.09C111.455 135.17 111.655 135.23 111.865 135.27C112.075 135.31 112.255 135.345 112.405 135.375C112.695 135.445 112.965 135.53 113.215 135.63C113.475 135.73 113.695 135.86 113.875 136.02C114.065 136.18 114.21 136.375 114.31 136.605C114.42 136.835 114.475 137.115 114.475 137.445C114.475 137.845 114.39 138.19 114.22 138.48C114.05 138.76 113.83 138.99 113.56 139.17C113.29 139.35 112.98 139.48 112.63 139.56C112.29 139.64 111.945 139.68 111.595 139.68C111.005 139.68 110.485 139.59 110.035 139.41C109.595 139.23 109.2 138.9 108.85 138.42L109.87 137.58C110.09 137.8 110.335 137.995 110.605 138.165C110.875 138.335 111.205 138.42 111.595 138.42C111.765 138.42 111.935 138.405 112.105 138.375C112.285 138.335 112.44 138.28 112.57 138.21C112.71 138.13 112.82 138.035 112.9 137.925C112.99 137.805 113.035 137.67 113.035 137.52C113.035 137.32 112.97 137.155 112.84 137.025C112.72 136.895 112.57 136.795 112.39 136.725C112.22 136.645 112.035 136.585 111.835 136.545C111.645 136.495 111.475 136.455 111.325 136.425C111.035 136.355 110.76 136.275 110.5 136.185C110.24 136.095 110.01 135.975 109.81 135.825C109.61 135.675 109.45 135.485 109.33 135.255C109.21 135.025 109.15 134.74 109.15 134.4C109.15 134.03 109.225 133.71 109.375 133.44C109.535 133.16 109.74 132.93 109.99 132.75C110.25 132.57 110.54 132.435 110.86 132.345C111.19 132.255 111.52 132.21 111.85 132.21C112.33 132.21 112.79 132.3 113.23 132.48C113.67 132.66 114.02 132.96 114.28 133.38L113.23 134.175ZM117.136 136.44C117.136 136.75 117.201 137.035 117.331 137.295C117.471 137.545 117.651 137.76 117.871 137.94C118.091 138.12 118.346 138.26 118.636 138.36C118.926 138.46 119.226 138.51 119.536 138.51C119.956 138.51 120.321 138.415 120.631 138.225C120.941 138.025 121.226 137.765 121.486 137.445L122.506 138.225C121.756 139.195 120.706 139.68 119.356 139.68C118.796 139.68 118.286 139.585 117.826 139.395C117.376 139.205 116.991 138.945 116.671 138.615C116.361 138.275 116.121 137.88 115.951 137.43C115.781 136.97 115.696 136.475 115.696 135.945C115.696 135.415 115.786 134.925 115.966 134.475C116.156 134.015 116.411 133.62 116.731 133.29C117.061 132.95 117.451 132.685 117.901 132.495C118.351 132.305 118.841 132.21 119.371 132.21C120.001 132.21 120.531 132.32 120.961 132.54C121.401 132.76 121.761 133.05 122.041 133.41C122.321 133.76 122.521 134.16 122.641 134.61C122.771 135.05 122.836 135.5 122.836 135.96V136.44H117.136ZM121.396 135.36C121.386 135.06 121.336 134.785 121.246 134.535C121.166 134.285 121.041 134.07 120.871 133.89C120.701 133.7 120.486 133.555 120.226 133.455C119.976 133.345 119.681 133.29 119.341 133.29C119.011 133.29 118.706 133.355 118.426 133.485C118.156 133.605 117.926 133.765 117.736 133.965C117.546 134.165 117.396 134.39 117.286 134.64C117.186 134.88 117.136 135.12 117.136 135.36H121.396ZM124.45 132.39H125.8V133.485H125.83C125.92 133.295 126.04 133.125 126.19 132.975C126.34 132.815 126.505 132.68 126.685 132.57C126.875 132.46 127.08 132.375 127.3 132.315C127.52 132.245 127.74 132.21 127.96 132.21C128.18 132.21 128.38 132.24 128.56 132.3L128.5 133.755C128.39 133.725 128.28 133.7 128.17 133.68C128.06 133.66 127.95 133.65 127.84 133.65C127.18 133.65 126.675 133.835 126.325 134.205C125.975 134.575 125.8 135.15 125.8 135.93V139.5H124.45V132.39ZM133.782 134.175C133.622 133.975 133.422 133.81 133.182 133.68C132.952 133.54 132.667 133.47 132.327 133.47C132.007 133.47 131.727 133.54 131.487 133.68C131.257 133.81 131.142 134.005 131.142 134.265C131.142 134.475 131.207 134.645 131.337 134.775C131.477 134.905 131.637 135.01 131.817 135.09C132.007 135.17 132.207 135.23 132.417 135.27C132.627 135.31 132.807 135.345 132.957 135.375C133.247 135.445 133.517 135.53 133.767 135.63C134.027 135.73 134.247 135.86 134.427 136.02C134.617 136.18 134.762 136.375 134.862 136.605C134.972 136.835 135.027 137.115 135.027 137.445C135.027 137.845 134.942 138.19 134.772 138.48C134.602 138.76 134.382 138.99 134.112 139.17C133.842 139.35 133.532 139.48 133.182 139.56C132.842 139.64 132.497 139.68 132.147 139.68C131.557 139.68 131.037 139.59 130.587 139.41C130.147 139.23 129.752 138.9 129.402 138.42L130.422 137.58C130.642 137.8 130.887 137.995 131.157 138.165C131.427 138.335 131.757 138.42 132.147 138.42C132.317 138.42 132.487 138.405 132.657 138.375C132.837 138.335 132.992 138.28 133.122 138.21C133.262 138.13 133.372 138.035 133.452 137.925C133.542 137.805 133.587 137.67 133.587 137.52C133.587 137.32 133.522 137.155 133.392 137.025C133.272 136.895 133.122 136.795 132.942 136.725C132.772 136.645 132.587 136.585 132.387 136.545C132.197 136.495 132.027 136.455 131.877 136.425C131.587 136.355 131.312 136.275 131.052 136.185C130.792 136.095 130.562 135.975 130.362 135.825C130.162 135.675 130.002 135.485 129.882 135.255C129.762 135.025 129.702 134.74 129.702 134.4C129.702 134.03 129.777 133.71 129.927 133.44C130.087 133.16 130.292 132.93 130.542 132.75C130.802 132.57 131.092 132.435 131.412 132.345C131.742 132.255 132.072 132.21 132.402 132.21C132.882 132.21 133.342 132.3 133.782 132.48C134.222 132.66 134.572 132.96 134.832 133.38L133.782 134.175Z" fill="#848199"/>
</g>
<defs>
<clipPath id="clip0_233_526">
<rect width="207" height="21" fill="white" transform="translate(0.383621 0.5)"/>
</clipPath>
<clipPath id="clip1_233_526">
<rect width="207" height="21" fill="white" transform="translate(0.383621 31.5)"/>
</clipPath>
<clipPath id="clip2_233_526">
<rect width="207" height="21" fill="white" transform="translate(0.383621 62.5)"/>
</clipPath>
<clipPath id="clip3_233_526">
<rect width="207" height="21" fill="white" transform="translate(0.383621 93.5)"/>
</clipPath>
<clipPath id="clip4_233_526">
<rect width="207" height="21" fill="white" transform="translate(0.383621 124.5)"/>
</clipPath>
</defs>
</svg>
