<svg width="21" height="21" viewBox="0 0 21 21" fill="none" xmlns="http://www.w3.org/2000/svg">
<path d="M10.3837 0.5C4.86082 0.5 0.383667 4.97715 0.383667 10.5C0.383667 16.0228 4.86082 20.5 10.3837 20.5C15.9065 20.5 20.3837 16.0228 20.3837 10.5C20.3772 4.97982 15.9038 0.506429 10.3837 0.5Z" fill="#01CB62"/>
<path d="M16.1563 7.33313L10.4522 15.074C10.3161 15.2545 10.1133 15.3727 9.88918 15.4022C9.66509 15.4316 9.43857 15.3698 9.2605 15.2306L5.18716 11.974C4.82772 11.6863 4.76952 11.1617 5.05716 10.8023C5.34481 10.4429 5.86939 10.3846 6.22883 10.6723L9.6255 13.3898L14.8147 6.3473C14.9848 6.09195 15.2815 5.95078 15.587 5.97983C15.8925 6.00887 16.1573 6.20344 16.2763 6.48627C16.3952 6.76911 16.3492 7.09445 16.1563 7.33313Z" fill="white"/>
</svg>
