<svg width="84" height="100" viewBox="0 0 84 100" fill="none" xmlns="http://www.w3.org/2000/svg">
<g clip-path="url(#clip0_25_343)">
<path d="M62.2988 88.0293C62.9093 87.7106 63.1582 87.5812 63.3219 87.4959C63.181 86.5243 61.1899 87.8113 61.6457 86.2937C60.8999 85.6715 60.1727 85.1838 59.5934 84.5568C58.3275 83.1864 57.0893 81.7843 55.9385 80.3151C55.4874 79.7392 55.311 78.9475 54.9886 78.2644C54.874 78.0217 54.7489 77.6973 54.5411 77.5992C51.6859 76.252 49.9701 73.7864 48.2329 71.2876C46.4298 68.6937 44.2605 66.3392 42.6396 63.6426C41.2718 61.3677 39.7386 58.9596 41.3558 55.9463C42.1718 54.4257 44.3282 53.6504 45.6309 54.8089C46.0741 55.1958 46.5772 55.5065 47.1201 55.7288C51.9985 57.743 56.8719 59.7736 61.7796 61.7146C66.0422 63.4006 70.3824 64.8899 74.6213 66.6335C77.3602 67.7596 79.5689 69.7281 81.5381 71.9416C82.7794 73.2789 83.9041 74.7219 84.8995 76.2544L83.4953 75.3575L83.2703 75.5667L85.7754 78.2812L86.082 78.0994L85.6953 76.8926L85.9078 76.6854C86.3723 77.1077 86.9175 77.4674 87.289 77.9617C90.8291 82.6523 94.3518 87.3561 97.8572 92.0734C98.3214 92.6949 98.7103 93.3812 99.2217 93.9582C100.182 95.0409 100.961 97.207 100.403 97.9416C99.48 99.1584 98.2818 100.071 96.6246 99.7456C94.7395 99.3757 92.7971 99.1101 91.0165 98.4343C88.3034 97.4054 85.4107 97.058 82.73 95.9715C82.2998 95.7971 81.9422 95.4416 81.5125 95.2655C81.0785 95.1062 80.6277 94.9983 80.1691 94.944C79.2211 94.7983 78.2518 94.7573 77.3215 94.5411C76.1456 94.2676 74.9871 93.9228 73.8523 93.5087C71.4914 92.6485 69.1479 91.7378 66.8138 90.8072C66.5668 90.7087 66.4433 90.3179 66.2362 90.0871C66.0382 89.8663 65.7332 89.4613 65.5996 89.507C64.0284 90.0445 63.868 88.0404 62.2988 88.0293ZM70.4796 88.4907C69.9223 88.1447 70.3976 87.1613 69.4198 87.0084C68.5628 86.8743 67.7486 86.4634 66.8817 86.161C67.5087 87.7686 69.0993 87.9575 70.4796 88.4907ZM88.2083 80.0463L87.8465 80.2748L91.3321 84.7298L91.6735 84.4663L88.2083 80.0463ZM79.1561 70.6897L78.8076 71.0397L81.6853 73.8833L81.93 73.6381L79.1561 70.6897Z" fill="#C6B0FF"/>
<path d="M51.3934 32.6163C53.8442 31.722 57.6952 32.2272 58.6828 33.609L58.7422 32.4699C58.8586 32.4152 58.9823 32.3782 59.1095 32.3602C63.2937 32.4737 67.4796 32.5498 71.6612 32.728C75.0731 32.8742 78.4801 33.1405 81.8887 33.3637C87.1232 33.7066 91.5082 36.0386 95.5288 39.2618C101.226 43.8291 106.937 48.3754 111.947 53.7382C113.059 54.928 114.305 55.9893 115.454 57.1448C116.066 57.7609 116.164 58.2742 115.423 59.0739C114.205 60.39 112.767 60.5109 111.223 60.3517C105.269 59.7382 99.3223 59.0528 93.3673 58.4488C89.7539 58.0822 86.126 57.8604 82.5149 57.4749C81.5219 57.369 80.5784 56.8543 79.5898 56.6249C78.5653 56.3879 77.4999 56.3254 76.4766 56.087C71.7241 54.9796 67.9595 52.163 64.4319 48.9398C61.5922 46.3453 58.6964 43.8114 55.9056 41.1647C54.4573 39.7903 53.0296 38.3386 51.8989 36.7059C51.3877 35.9675 51.6251 34.7024 51.5197 33.6765C51.4871 33.3571 51.4441 33.0389 51.3934 32.6163ZM77.3088 52.9443L77.5986 52.4069C75.9249 51.5737 74.2515 50.7404 72.5782 49.9071L72.376 50.2934L77.3088 52.9443Z" fill="#C6B0FF"/>
<path d="M43.7031 97.2109C41.6971 96.8665 39.2238 96.3789 36.7314 96.0298C33.7034 95.6056 30.6663 95.2004 27.6193 94.9784C25.9895 94.8791 24.446 94.2058 23.2576 93.076C20.9798 90.9708 18.8899 88.6424 16.5047 86.6758C13.8423 84.481 12.0222 81.6298 9.92155 78.9891C7.63395 76.113 5.32874 73.2504 3.08201 70.3424C2.28034 69.3049 1.63154 68.1478 0.903835 67.0516C-0.368408 65.135 0.0655402 63.0521 0.43655 61.0272C0.514275 60.6033 1.29599 60.0639 1.7931 60.0184C2.73668 59.9505 3.68483 60.0449 4.59706 60.2976C10.7061 61.9018 16.7911 63.5992 22.9056 65.1807C26.0394 65.9912 28.819 67.3909 31.1697 69.63C35.3995 73.6585 39.6936 77.6225 43.8121 81.7651C46.5322 84.5016 48.6047 87.78 50.4992 91.1542C51.9826 93.7962 50.5889 96.6364 47.5875 96.9947C46.4723 97.1277 45.3431 97.1248 43.7031 97.2109Z" fill="#C6B0FF"/>
<path d="M29.5845 25.515C31.4814 26.6121 33.5966 27.451 35.2314 28.8583C39.0616 32.1555 42.7221 35.6631 46.3334 39.2067C48.6752 41.5052 50.8241 44.0043 53.0212 46.4484C53.1506 46.6055 53.244 46.7895 53.2948 46.9872C53.3456 47.1849 53.3526 47.3915 53.3152 47.5922C52.9562 48.6526 52.6131 49.9671 51.2324 49.9552C48.7868 49.9349 46.3414 49.7199 43.8988 49.5441C41.5316 49.3737 39.1672 49.1583 36.8031 48.9479C32.9612 48.606 29.1386 48.0138 25.7624 46.0552C24.1462 45.1176 22.8493 43.6015 21.4563 42.2946C19.9852 40.9145 18.5281 39.5138 17.1474 38.0432C16.0635 36.8882 15.1111 35.6079 14.0892 34.3927C13.2788 33.4287 12.5227 32.4038 11.6191 31.5368C9.16149 29.1787 7.01667 26.5917 5.4556 23.5384C5.1245 22.8901 5.47908 19.9744 5.98934 19.5531C6.91617 18.7872 7.89137 19.1169 8.92879 19.4162C11.7433 20.2282 14.5919 20.919 17.4217 21.6778C20.9909 22.6349 24.563 23.5903 28.1179 24.6024C28.6535 24.755 29.1041 25.2119 29.5989 25.5342C29.3791 25.7038 29.1541 25.8673 28.8503 26.0882L33.2693 28.7401L33.502 28.3552C33.0406 28.041 32.5698 27.7391 32.1196 27.4102C31.2684 26.787 30.4289 26.1477 29.5845 25.515ZM34.3161 28.8538L33.8956 29.2849C34.9978 30.2158 36.1 31.147 37.202 32.0782L37.0264 32.2467L34.3161 28.8538ZM23.3943 39.7699L23.217 40.0133C24.3687 41.1119 25.5203 42.2105 26.6719 43.3093L26.8865 43.078C25.7224 41.9752 24.5583 40.8725 23.3943 39.7699ZM29.3368 43.6882L29.6268 43.1498L27.4209 41.8211L27.1692 42.2576C27.8917 42.7347 28.6142 43.2116 29.3368 43.6882Z" fill="#C6B0FF"/>
<path d="M30.2698 0.189451C34.5937 0.778551 38.3895 1.30201 42.1875 1.81054C43.7049 2.01386 45.2223 2.2449 46.7474 2.35888C50.7628 2.65936 53.6064 5.07879 56.4454 7.6032C58.4953 9.42666 60.7191 11.0511 62.789 12.8522C65.2929 15.0304 67.7671 17.2485 70.1463 19.5632C70.8808 20.2778 71.4883 21.2395 70.9543 22.5172C70.3295 24.0124 69.4881 25.1631 67.7662 25.1873C64.6293 25.2316 61.4855 25.3058 58.3561 25.1413C56.7847 25.0591 55.2525 24.3831 53.6769 24.1594C52.1116 23.9378 50.5068 24.0086 48.9336 23.8371C47.802 23.7136 46.6089 23.5861 45.5907 23.1281C44.3262 22.5545 43.1531 21.7944 42.11 20.8729C40.4163 19.3745 38.8747 17.7004 37.2753 16.0942C35.0269 13.8357 32.6849 11.671 31.0348 8.86954C30.4961 7.95509 29.6106 7.25604 28.96 6.39964C27.7795 4.84585 28.12 3.05983 28.6077 1.43353C28.7958 0.805565 29.8896 0.454617 30.2698 0.189451ZM58.6123 10.9307L58.8689 10.5923L54.7113 7.11481L54.4764 7.41197L58.6123 10.9307ZM52.7118 15.6006L52.8489 15.2591L48.6126 13.5653L48.4912 13.8876C49.8982 14.4582 51.3052 15.0289 52.7123 15.5999L52.7118 15.6006Z" fill="#C6B0FF"/>
</g>
<defs>
<clipPath id="clip0_25_343">
<rect width="100" height="84" fill="white" transform="translate(84) rotate(90)"/>
</clipPath>
</defs>
</svg>
