<svg width="72" height="124" viewBox="0 0 72 124" fill="none" xmlns="http://www.w3.org/2000/svg">
<g clip-path="url(#clip0_25_89)">
<path d="M15.5857 42.7564C9.50422 42.8806 5.02784 41.0842 0.824899 38.6517C-2.12109 36.9468 -3.59503 34.1626 -3.76979 30.8041C-3.91847 27.9444 -3.69154 25.1278 -2.63462 22.4001C-1.83797 20.344 -0.299505 18.9806 1.47637 17.8429C4.77806 15.7278 7.95823 13.2444 12.1569 13.1586C17.3998 13.0515 22.3311 14.1113 26.4706 17.5094C28.2231 18.9478 29.3994 20.6556 29.0055 23.1364C28.6143 25.5979 25.5589 26.5926 23.7284 26.5731C22.8809 26.5646 22.4545 25.8707 21.9568 25.4613C19.6924 23.5979 16.8588 23.2187 14.2159 22.3383C13.6719 22.1573 13.5219 22.5251 13.4313 22.9343C12.8433 25.5892 13.0167 27.9998 15.4838 29.806C16.7911 30.7632 18.0308 31.799 19.5542 32.4317C19.8931 32.5798 20.2585 32.6606 20.6293 32.6693C21.0002 32.6781 21.3691 32.6146 21.7148 32.4826C22.629 32.1697 23.7545 31.537 24.2546 33.1145C24.3567 33.4369 24.6366 33.3709 24.9042 33.22C26.0751 32.5586 27.2151 32.9406 27.8327 34.1869C29.0832 36.7118 26.7981 40.6352 23.9424 40.879C23.6364 40.8756 23.3341 40.9445 23.0611 41.08C20.4584 42.8318 17.4261 42.4889 15.5857 42.7564ZM-2.49562 28.2194C-2.93816 29.9885 -2.65139 31.8576 -1.69762 33.4205C-1.47554 31.6201 -2.12351 29.9379 -2.49562 28.2186L-2.49562 28.2194Z" fill="#C6B0FF"/>
<path d="M44.1534 69.4949C43.6211 68.8916 43.8846 68.0531 43.1229 67.6967C42.7564 68.1673 43.2664 68.6 43.1766 69.0095C43.0497 69.5817 43.2552 70.7555 42.006 69.8274C41.9138 69.7588 41.821 69.5986 41.7231 69.7931C40.9147 71.3998 39.8747 70.1967 38.9944 69.9448C38.0746 69.6809 37.193 69.2775 36.2186 69.2564C34.8549 69.2266 33.4901 69.2137 32.1264 69.2316C30.4538 69.2538 30.2385 69.5087 30.3963 71.1365C30.6684 73.9442 32.7303 75.9147 35.5981 75.8464C37.949 75.7902 40.1981 76.2487 42.4416 76.7682C43.5977 77.0357 44.5242 77.7478 44.7452 79.0084C45.0052 80.4922 44.0752 82.6453 42.7322 83.1985C40.4737 84.1291 38.1373 84.9675 35.7102 85.297C30.9179 85.9476 26.1371 85.8136 21.4403 84.496C19.6055 83.9813 17.8173 83.2787 16.3033 82.1912C14.3137 80.7615 13.4173 78.6142 13.1624 76.2192C12.8397 73.1925 12.9411 70.2769 15.0445 67.7473C15.5056 67.1933 16.1081 66.8429 16.6399 66.4659C20.1441 63.9811 23.4358 61.0046 27.9528 60.4155C33.1535 59.7372 38.1429 60.521 42.7244 63.1519C44.3145 64.0645 45.5083 65.3122 45.276 67.3323C45.1803 68.1568 44.9305 68.9248 44.1534 69.4949ZM14.9219 77.4454C15.1884 76.0367 15.0114 74.5818 14.4142 73.2743C14.2309 74.7072 14.0677 76.1342 14.9219 77.4454Z" fill="#C6B0FF"/>
<path d="M-12.0965 73.7444C-16.7451 73.8975 -21.303 72.4571 -24.9868 69.6706C-26.5826 68.4772 -27.6858 66.7586 -28.0936 64.8309C-28.888 61.5624 -28.5013 58.1247 -26.9995 55.105C-26.1064 53.2917 -24.5848 52.1332 -22.9776 50.9492C-19.9899 48.7486 -16.5371 47.6616 -13.048 46.7474C-9.05557 45.7019 -5.20672 46.4406 -1.4942 48.2465C-0.21815 48.867 1.0665 49.2918 1.83089 50.579C2.41299 51.5594 2.1608 52.4947 1.81127 53.4358C1.72738 53.6614 1.45367 54.0122 1.30902 53.9938C-0.737066 53.7299 -2.44653 55.4422 -4.53321 54.9222C-5.34143 54.7209 -6.17492 54.6109 -7.00062 54.4842C-9.29513 54.1323 -10.9879 55.3578 -11.2439 57.6703C-11.4931 59.9215 -10.7927 61.8968 -8.91522 63.2856C-7.37186 64.4348 -5.60008 65.2537 -3.71424 65.6894C-2.13115 66.0537 -1.27964 67.2784 -1.52109 68.8617C-1.92224 71.4928 -2.64119 72.1469 -5.43473 72.4289C-5.6105 72.4201 -5.78557 72.4565 -5.94262 72.5344C-7.63353 73.9209 -9.70193 73.4966 -12.0965 73.7444ZM-26.7949 58.9248C-27.4978 60.2819 -27.4217 62.592 -26.6893 63.6922C-26.5997 62.1084 -26.4831 60.5956 -26.7949 58.9248Z" fill="#C6B0FF"/>
<path d="M55.3327 108.152C54.7176 110.092 53.5582 108.555 52.6736 108.562C52.2402 108.565 51.7498 108.073 51.2908 108.538C50.8434 108.991 50.8773 109.564 51.1026 110.118C52.1125 112.59 54.147 113.928 56.6459 114.449C58.482 114.832 60.2361 115.463 62.0657 115.848C63.708 116.192 64.5775 117.836 64.2037 119.456C63.7569 121.393 62.6798 122.604 60.6009 122.872C58.13 123.191 55.7438 123.875 53.178 123.803C47.2091 123.634 41.8503 121.977 37.1505 118.342C32.7666 114.951 32.5755 108.451 36.9086 104.96C38.3139 103.828 39.9269 102.779 41.8853 102.574C42.2237 102.5 42.5417 102.355 42.8175 102.148C47.6396 99.1672 52.6134 99.4743 57.5576 101.685C60.9416 103.197 60.7784 105.798 59.1662 107.914C58.9646 108.178 58.724 108.544 58.3384 108.483C57.8431 108.404 58.0894 107.919 57.9864 107.622C57.8886 107.34 57.8762 106.95 57.4675 106.998C57.0408 107.048 57.1677 107.446 57.1374 107.731C57.0822 108.25 57.0473 108.795 56.4238 108.995C55.753 109.209 55.7511 108.46 55.3327 108.152ZM35.3994 109.972C35.1733 110.875 34.8036 111.776 35.4887 112.61C35.5801 111.718 35.8105 110.828 35.3994 109.972Z" fill="#C6B0FF"/>
<path d="M13.4787 108.008C13.1864 108.683 12.8275 109.252 12.1306 109.356C11.5888 109.437 11.8668 108.817 11.5122 108.518C11.4788 109.948 10.1972 109.665 9.6656 109.513C8.26372 109.114 6.92449 109.62 5.55488 109.459C4.65498 109.353 3.74378 109.15 2.83366 109.077C1.88967 109.001 3.19045 108.381 3.12243 107.899C2.84173 107.646 2.54678 107.665 2.37928 107.989C2.20747 108.321 2.24189 108.91 1.76518 108.864C1.18577 108.807 0.296624 108.642 0.131808 108.271C-0.312093 107.273 -1.32196 107.505 -1.78925 107.566C-2.79777 107.698 -2.67437 107.247 -2.52246 106.721C-2.30333 105.961 -2.54934 105.505 -3.30217 105.352C-4.26123 105.157 -4.1034 104.1 -4.77853 103.628C-5.44048 103.164 -5.90777 102.438 -6.89855 102.502C-6.73938 101.196 -5.56631 101.799 -4.85515 101.281C-7.18033 101.096 -7.14053 99.4105 -7.31342 97.884C-7.37095 97.3769 -7.17253 96.8023 -7.3489 96.3562C-7.7186 95.4219 -7.25776 95.4903 -6.38931 95.7269C-7.42419 95.2053 -7.7764 94.7244 -6.91629 93.9912C-6.6044 93.7253 -6.65254 93.2852 -6.56677 92.9095C-6.4084 92.2151 -6.24412 92.1307 -5.33293 92.1491C-5.0767 92.1541 -5.10251 91.9948 -5.03045 91.8404C-4.28757 90.2485 -2.92899 89.5573 -1.15015 89.5451C-0.303221 89.5396 1.0473 89.8797 0.959114 88.2386C0.947016 88.0128 1.12259 87.9674 1.27987 87.8957C4.54716 86.3892 7.68781 86.8797 10.6935 88.5742C12.08 89.356 12.7705 91.3579 12.226 92.8794C12.0142 93.4183 11.6066 93.8613 11.0817 94.1228C10.6023 94.3339 10.4109 93.8044 10.3477 93.3213C10.2985 92.9462 9.9713 93.0622 9.71829 93.1424C9.29752 93.2762 9.18836 93.5556 9.33731 93.9506C9.70028 94.9117 9.53762 95.128 8.37692 95.0156C7.52649 94.9333 7.18798 96.1224 6.72741 96.788C6.41525 97.2392 7.0842 97.4793 7.46841 97.6125C7.72193 97.684 7.9368 97.8501 8.06691 98.0753C9.16604 100.181 11.2702 100.413 13.2894 100.74C14.2366 100.893 15.2575 100.917 16.1528 101.097C17.0613 101.279 18.0129 101.561 18.9491 101.794C20.4502 102.167 20.4977 103.38 20.4311 104.543C20.341 105.302 20.1661 106.049 19.9097 106.771C19.8578 106.949 19.596 107.215 19.4605 107.199C18.2793 107.058 17.4359 108.415 16.1109 107.858C15.7759 107.717 15.1088 108.167 14.6751 108.461C13.8519 109.015 13.8258 109.036 13.4787 108.008ZM-0.176583 97.5104C-0.169054 96.9851 -0.186264 96.3728 -0.917317 96.2881C-1.77769 96.1886 -1.38944 96.9664 -1.57711 97.3516C-1.80995 97.8291 -1.34992 98.2534 -1.48974 98.6494C-1.64245 99.0812 -1.51366 99.3432 -1.18941 99.4999C-0.718083 99.7274 -0.378233 99.3015 -0.0246721 99.1111C0.348247 98.9098 0.0694346 98.5734 -0.0623098 98.3304C-0.197281 98.0813 -0.527726 97.8964 -0.176583 97.5104ZM-5.5319 100.271C-5.05734 99.7778 -5.39047 98.9636 -5.06514 98.7103C-3.93106 97.827 -5.32674 97.2329 -5.23909 96.4878C-5.22377 96.3559 -5.71661 95.8562 -6.05915 96C-6.40867 96.1464 -6.67754 96.7833 -6.51621 96.968C-5.68541 97.9196 -6.17718 99.2113 -5.5319 100.271ZM4.35546 98.2304C3.5295 97.4442 3.4499 97.2125 3.97554 96.9479C4.68724 96.5896 4.92976 95.5665 4.41434 95.0386C4.353 94.9651 4.27643 94.9052 4.18971 94.8629C4.103 94.8206 4.00812 94.7969 3.91135 94.7933C3.81459 94.7898 3.71816 94.8064 3.62845 94.8422C3.53875 94.878 3.45782 94.9321 3.39103 95.0009C2.93234 95.437 3.67415 97.9909 4.35546 98.2304Z" fill="#C6B0FF"/>
<path d="M53.9921 47.4874C54.1782 48.4664 54.7718 48.9445 55.2273 49.4943C56.1113 50.5599 55.8295 51.4308 54.4062 51.7461C53.7878 51.8828 53.445 51.9168 53.2737 52.7407C53.1048 53.5533 51.9216 53.7349 51.1521 54.1034C48.8047 55.2127 46.2037 55.7042 43.6044 55.5297C40.1064 55.3334 37.4823 53.6254 35.5322 50.8177C34.6382 49.5305 34.1107 48.2058 34.3059 46.5843C34.3986 45.8118 34.9009 45.3675 35.202 44.7723C36.2382 42.725 37.1352 40.6112 38.4531 38.7003C39.8714 36.6442 45.1813 34.2513 47.9966 35.2538C49.801 35.8963 50.8886 36.9798 51.2706 38.7794C51.49 39.8139 51.0523 40.2877 49.762 40.3624C50.1073 40.8655 50.6387 41.2168 51.2435 41.342C52.6932 41.7079 54.0969 42.2313 55.4284 42.9025C57.0225 43.6972 57.8014 45.0166 58.1921 46.6421C58.3453 47.2797 58.2644 47.9161 57.745 48.3042C57.2408 48.6807 56.6313 48.6485 56.021 48.306C55.4585 47.9905 54.8159 47.8121 53.9921 47.4874ZM38.042 51.5955C37.5567 50.5428 37.0074 49.8014 36.1075 49.3592C36.6786 50.0819 36.6792 51.2905 38.042 51.5955Z" fill="#C6B0FF"/>
<path d="M65.563 77.2418C67.4211 78.046 69.3395 78.4103 70.6943 79.8297C70.9274 80.0212 71.131 80.2447 71.299 80.4933C71.6004 81.1051 72.0887 81.8813 71.6235 82.4105C71.2202 82.8693 70.3682 82.7936 69.6745 82.5598C69.3417 82.4477 68.884 82.0301 68.6386 82.5092C68.431 82.9142 68.966 83.1463 69.2411 83.4062C69.3997 83.5553 69.5973 83.6666 69.7463 83.8233C70.024 84.1156 70.626 84.2565 70.4042 84.8071C70.3325 85.0373 70.196 85.243 70.0105 85.4005C69.8251 85.5581 69.5981 85.6611 69.3556 85.6978C68.8448 85.7577 68.3718 85.7532 68.7173 86.5321C68.8926 86.9278 68.3678 87.2045 68.0721 87.4193C64.805 89.7906 61.4243 90.2813 58.0946 87.1993C57.077 86.2571 56.0846 85.2889 55.079 84.3341C54.526 83.8091 54.5332 83.1714 54.7634 82.5348C55.0231 81.8164 55.6176 82.591 56.0932 82.2709C54.8962 81.5399 55.0551 80.8365 55.9184 79.9015C56.4535 79.3211 57.1221 78.6272 56.6745 77.5368C56.5094 77.1352 56.9643 76.3712 57.3163 75.9023C59.0776 73.5543 61.4098 72.1396 64.4442 72.0834C65.6477 72.0612 66.7148 72.4488 67.2569 73.6432C67.3622 73.8662 67.4242 74.1065 67.4397 74.3518C66.1849 74.8979 66.6866 76.4939 65.563 77.2418Z" fill="#C6B0FF"/>
</g>
<defs>
<clipPath id="clip0_25_89">
<rect width="124" height="99" fill="white" transform="translate(72) rotate(90)"/>
</clipPath>
</defs>
</svg>
