<svg width="38" height="38" viewBox="0 0 38 38" fill="none" xmlns="http://www.w3.org/2000/svg">
<path d="M33.25 11.0832V26.9165C33.25 31.6665 30.875 34.8332 25.3333 34.8332H12.6667C7.125 34.8332 4.75 31.6665 4.75 26.9165V11.0832C4.75 6.33317 7.125 3.1665 12.6667 3.1665H25.3333C30.875 3.1665 33.25 6.33317 33.25 11.0832Z" stroke="white" stroke-width="2" stroke-miterlimit="10" stroke-linecap="round" stroke-linejoin="round"/>
<path d="M24.5417 3.1665V15.6115C24.5417 16.3081 23.7183 16.6565 23.2117 16.1973L19.5384 12.809C19.2376 12.524 18.7625 12.524 18.4617 12.809L14.7884 16.1973C14.2817 16.6565 13.4584 16.3081 13.4584 15.6115V3.1665H24.5417Z" stroke="white" stroke-width="2" stroke-miterlimit="10" stroke-linecap="round" stroke-linejoin="round"/>
<path d="M20.9791 22.1665H27.7083" stroke="white" stroke-width="2" stroke-miterlimit="10" stroke-linecap="round" stroke-linejoin="round"/>
<path d="M14.25 28.5H27.7083" stroke="white" stroke-width="2" stroke-miterlimit="10" stroke-linecap="round" stroke-linejoin="round"/>
</svg>
