<svg width="38" height="38" viewBox="0 0 38 38" fill="none" xmlns="http://www.w3.org/2000/svg">
<path d="M13.4584 30.0361H12.6667C6.33342 30.0361 3.16675 28.4527 3.16675 20.5361V12.6194C3.16675 6.28605 6.33342 3.11938 12.6667 3.11938H25.3334C31.6668 3.11938 34.8334 6.28605 34.8334 12.6194V20.5361C34.8334 26.8694 31.6668 30.0361 25.3334 30.0361H24.5418C24.0509 30.0361 23.5759 30.2736 23.2751 30.6694L20.9001 33.8361C19.8551 35.2294 18.1451 35.2294 17.1001 33.8361L14.7251 30.6694C14.4717 30.3211 13.9017 30.0361 13.4584 30.0361Z" stroke="white" stroke-width="2" stroke-miterlimit="10" stroke-linecap="round" stroke-linejoin="round"/>
<path d="M12.6667 13.7751L9.5 16.9418L12.6667 20.1085" stroke="white" stroke-width="2" stroke-miterlimit="10" stroke-linecap="round" stroke-linejoin="round"/>
<path d="M25.3333 13.7751L28.4999 16.9418L25.3333 20.1085" stroke="white" stroke-width="2" stroke-miterlimit="10" stroke-linecap="round" stroke-linejoin="round"/>
<path d="M20.5834 13.2527L17.4167 20.6311" stroke="white" stroke-width="2" stroke-miterlimit="10" stroke-linecap="round" stroke-linejoin="round"/>
</svg>
