<svg width="543" height="468" viewBox="0 0 543 468" fill="none" xmlns="http://www.w3.org/2000/svg">
<g clip-path="url(#clip0_25_109)">
<path d="M506.362 14.148C507.058 12.7531 506.126 11.7996 505.444 10.7627C507.031 10.4318 506.913 8.32753 508.391 7.86867C508.43 7.68148 508.403 7.48648 508.315 7.31691C508.196 7.17754 507.815 7.04084 507.763 7.09872C506.773 8.18893 504.729 8.64664 505.488 10.8095C504.096 10.4211 503.788 9.44326 504.76 8.54459C506.281 7.13566 506.832 4.59463 509.42 4.40919C509.268 1.39255 512.501 2.98577 512.951 2.07644C514.334 -0.715907 516.465 1.6016 518.042 0.848769C519.937 -0.0567547 521.214 1.21359 522.484 2.48124C522.13 1.79582 521.425 1.23679 521.88 0.611913C522.372 -0.0632315 523.216 0.434846 523.602 0.827062C524.486 1.72535 525.02 1.30839 525.508 0.383447C526.098 1.39521 525.647 2.49646 526.647 3.71043C526.396 2.3015 526.093 1.02053 527.428 0.872778C528.263 0.780246 529.712 0.862874 529.057 2.57758C529.042 2.61795 529.282 2.83156 529.328 2.80909C531.562 1.71279 532.099 4.83453 534.253 4.71305C535.941 4.619 536.902 6.98449 537.889 8.3005C542.028 13.8113 542.651 19.9927 541.251 26.7689C540.724 29.3202 540.715 32.0882 539.925 34.6646C538.932 37.9014 536.913 40.5045 534.957 43.2271C532.75 46.2997 530.027 48.685 527.179 51.0307C524.834 52.9621 522.125 54.2461 519.344 55.3314C517.608 56.0088 517.239 55.3333 517.597 52.4374C516.211 52.9994 515.332 54.1056 515.955 55.0717C516.812 56.3987 515.734 56.2879 515.196 56.4501C514.388 56.6927 513.525 56.4684 512.657 56.842C511.961 57.1417 511.568 56.3896 511.369 55.6615C511.043 54.4757 511.001 54.4876 509.462 53.8874C510.685 54.9266 509.54 55.8991 509.855 56.9421C510.011 57.4623 508.779 57.6923 508.028 57.3229C504.427 55.5587 501.037 55.6539 497.932 58.4364C497.694 58.6127 497.436 58.7588 497.163 58.8712C496.978 58.966 496.704 58.9782 496.844 59.3598C497.378 60.0296 497.797 59.525 498.287 59.1804C499.379 58.4131 500.664 58.9626 500.489 60.2737C500.092 63.2736 501.324 66.417 499.392 69.3537C498.904 70.0958 499.892 71.8353 500.246 73.1037C500.392 73.6258 500.734 74.1437 499.784 74.1456C499.248 74.1456 499.068 74.4864 499.434 74.8184C500.825 76.0815 500.469 77.3575 499.976 78.9626C499.658 79.9995 500.728 81.1944 500.384 82.625C500.3 83.1096 500.122 83.5727 499.858 83.9877C499.595 84.4028 499.253 84.7616 498.851 85.0435C497.039 86.3564 497.052 86.3739 498.426 88.4085C499.543 87.8133 500.123 86.939 499.838 85.5743C500.347 87.5544 501.861 89.56 499.19 91.1719C498.578 91.5413 499.333 91.7203 499.654 91.9743C500.138 92.3189 500.519 92.791 500.753 93.3384C500.988 93.8859 501.067 94.4875 500.983 95.0773C500.565 98.0821 501.152 101.179 501.438 104.034C501.809 107.192 502.34 110.33 503.027 113.434C505.192 123.898 506.91 134.528 511.038 144.419C516.558 157.637 522.644 170.607 533.269 180.747C535.907 183.265 538.399 185.958 539.966 189.338C540.366 190.202 540.934 191.121 540.124 192.04C539.247 193.037 538.616 191.654 537.764 191.684C537.175 191.705 536.464 191.113 536.034 190.426C534.033 187.229 531.326 184.654 528.525 182.201C519.972 174.717 514.086 165.293 508.529 155.519C502.074 144.265 497.427 132.062 494.757 119.357C493.873 115.115 492.134 111.013 492.128 106.624C492.124 104.377 492.285 102.1 491.862 99.9218C491.398 97.6437 491.105 95.3341 490.985 93.0123C490.953 92.2793 490.757 91.5356 491.201 90.838C491.501 90.3665 492.335 89.8098 490.913 89.5924C490.423 89.5162 490.839 88.8803 491.048 88.4942C491.493 87.6675 492.108 86.8118 491.019 85.9844C490.924 85.8814 490.849 85.7611 490.798 85.6299C492.917 84.3089 490.625 83.7495 490.271 82.9552C489.019 80.1373 491.61 81.1708 492.555 80.6838C491.546 78.8232 489.342 77.65 490.168 75.0576C490.979 74.6935 490.762 75.7468 491.202 76.0998C491.669 75.0103 491.891 74.136 490.338 73.8436C489.698 73.7229 489.57 73.2096 489.868 72.6251C490.79 70.8193 490.791 70.8193 489.825 69.4294C490.298 68.9489 490.93 69.2124 491.462 69.0795C491.645 69.0342 491.959 68.8484 491.945 68.7901C491.909 68.506 491.784 68.2406 491.589 68.0319C490.03 66.8785 489.066 63.285 489.872 61.4888C489.902 61.4229 490.011 61.3646 490.003 61.3148C489.741 59.5513 490.787 57.9139 490.722 56.2952C490.616 53.6715 487.935 52.9541 486.197 51.6C485.581 51.1202 484.683 51.0239 483.956 50.6644C474.513 45.9902 465.042 47.805 457.697 55.4136C453.662 59.5943 450.693 64.5382 447.226 69.1222C445.138 71.8802 442.708 74.406 441.233 77.605C440.963 78.1903 440.398 78.434 439.848 78.6648C439.439 78.8365 438.953 79.0582 438.608 78.6602C438.262 78.2623 438.608 77.7596 438.795 77.4325C439.827 75.6428 440.991 73.9319 442.004 72.1335C444.033 68.5289 446.644 65.3215 448.715 61.7035C450.931 57.8309 453.618 53.9084 457.401 51.1149C457.528 51.0208 457.525 50.7493 457.666 50.279C456.251 50.8347 454.992 51.7265 453.996 52.8779C451.797 55.3402 449.782 57.9621 447.968 60.7222C446.344 63.2888 445.053 66.2217 442.39 68.0354C441.638 68.5472 441.692 69.5482 441.41 70.2405C440.436 72.625 438.082 74.1318 437.57 76.7902C437.413 77.6058 436.563 77.9104 435.623 77.1816C432.168 74.5031 431.5 73.1128 432.749 69.0962C434.945 62.0345 438.758 55.85 443.164 49.995C443.782 49.2041 444.313 48.3487 444.749 47.4436C441.175 50.049 439.418 54.0923 436.732 57.9657C437.978 49.7665 451.756 38.1679 457.091 40.3838C457.565 38.5362 460.397 37.1405 462.164 38.0091C462.722 38.2841 463.199 38.6946 463.758 38.3233C466.712 36.3489 469.921 37.0922 472.802 38.0114C475.911 39.0015 479.417 38.4269 482.207 40.5136C484.646 42.3391 487.666 43.0695 490.188 44.7362C490.965 45.2507 491.681 45.4148 492.325 44.6464C492.995 43.8467 492.723 43.1152 491.917 42.6091C491.12 42.1084 491.365 41.319 491.302 40.6381C491.241 39.995 491.874 39.7855 492.082 40.2547C492.964 42.2348 493.157 39.7863 493.742 40.161C491.837 38.9805 491.559 37.4467 492.92 35.4053C493 35.2927 493.047 35.1593 493.053 35.021C493.06 34.8827 493.027 34.7453 492.958 34.6254C492.535 33.4564 491.852 32.0806 494.235 32.8052C494.703 32.948 495.464 32.4362 494.798 31.9797C493.078 30.7992 494.232 29.2285 494.382 28.1005C494.648 26.0983 495.684 24.1891 496.471 22.2744C496.687 21.7493 497.218 21.0822 497.783 21.2844C498.318 21.4778 498.056 22.1472 497.729 22.5737C497.93 23.5052 497.385 24.5299 498.046 25.4201C499.069 26.5302 499.112 27.8923 498.995 29.356C499.894 27.2997 501.737 25.9217 502.256 23.6727C502.594 22.3847 503.226 21.1932 504.103 20.1926C506.205 17.7339 507.322 14.659 509.321 12.1495C509.513 11.9089 509.856 11.4428 509.435 11.1915C509.347 11.1281 509.246 11.0851 509.139 11.0656C509.032 11.046 508.922 11.0504 508.817 11.0784C508.712 11.1064 508.615 11.1572 508.531 11.2274C508.448 11.2976 508.382 11.3853 508.336 11.4843C507.766 12.4256 507.031 13.2664 506.362 14.148ZM497.497 33.7945C497.877 33.5112 498.655 33.349 498.333 32.7474C497.985 32.0958 497.33 31.6016 496.765 31.0875C496.719 31.046 496.294 31.3517 496.109 31.5555C495.871 31.8182 496.942 33.4263 497.552 33.7504C497.062 34.4819 496.242 35.0348 496.459 36.128C496.573 36.695 496.801 37.2894 497.345 37.1261C498.415 36.8032 497.629 35.5884 498.207 34.8866C498.837 34.1232 498.067 33.9488 497.497 33.7945V33.7945ZM536.611 34.9137C535.688 35.0367 535.168 35.7491 534.78 36.43C533.23 39.1626 531.108 41.4565 529.242 43.9461C528.721 44.6406 527.841 45.1806 527.828 46.7723C532.013 43.3364 534.871 39.5319 536.573 34.8413C537.395 33.8631 538.137 32.8643 537.556 31.4694C537.446 31.2067 537.434 30.8548 537.065 30.8415C536.557 30.8228 536.473 31.2329 536.48 31.6031C536.501 32.7066 536.564 33.8101 536.611 34.9137V34.9137ZM504.221 30.6743C504.045 30.2649 503.992 29.8128 504.068 29.3735C504.145 28.9342 504.347 28.5269 504.651 28.2015C505.242 27.5022 505.742 26.7303 506.139 25.9045C506.964 24.0767 508.265 21.3133 509.068 20.1374C510.505 18.0294 512.176 16.0904 513.593 13.9884C515.424 11.2718 517.724 9.04533 520.427 8.10934C520.499 8.09621 520.567 8.06455 520.624 8.01742C520.68 7.97029 520.724 7.90929 520.75 7.84034C520.776 7.77139 520.784 7.69685 520.773 7.62389C520.762 7.55093 520.733 7.48204 520.687 7.42392C520.215 6.57704 517.489 6.10066 517.349 6.85615C517.042 8.51716 515.636 8.81571 514.716 9.74637C510.483 14.0435 506.976 19.0037 504.333 24.432C503.488 26.1456 503.532 28.3972 501.683 29.7574C500.824 30.3899 501.529 31.0841 502.557 31.038C501.801 32.3753 502.063 34.0748 500.554 35.2648C499.914 35.7693 499.225 37.6089 499.931 38.8724C500.121 39.2102 501.108 38.0864 501.888 38.5575C502.075 37.4128 502.729 37.6482 503.207 38.235C503.667 38.7978 503.647 39.471 502.839 39.8842C502.368 40.1248 501.788 40.5281 502.013 41.0585C502.884 43.1034 501.826 44.7617 501.096 46.497C500.672 47.5046 501.912 49.7516 502.994 49.5673C504.356 49.3354 505.066 49.867 505.756 51.0098C505.781 49.9363 504.735 48.8183 506.31 48.1953C507.588 47.6896 508.389 48.2288 508.885 49.1732C509.686 48.8861 509.709 48.1717 510.12 47.5404C510.172 48.4276 510.095 49.1835 510.973 49.5559C511.314 49.1504 510.93 48.4489 511.626 48.2258C513.199 47.7213 514.731 47.1623 515.366 45.3622C515.511 44.9518 516.059 45.1121 516.315 45.3805C517.828 46.9669 518.05 45.4894 518.442 44.4857C518.703 43.7931 519.101 43.1606 519.612 42.6262C523.894 38.1101 527.31 32.8414 529.688 27.0838C529.816 26.815 529.871 26.5175 529.85 26.2206C529.828 25.9237 529.729 25.6376 529.564 25.3904C529.2 24.8874 529.306 24.5238 529.45 23.9766C530.175 21.2349 529.91 18.4395 529.331 15.7389C529.065 14.4929 529.187 13.6297 530.023 12.6884C529.554 12.2737 528.765 12.9572 528.382 12.0163C526.525 7.45743 524.459 6.93308 520.532 9.76122C516.558 12.6225 513.596 16.4316 510.999 20.4554C509.767 22.3651 508.364 24.2306 507.61 26.6048C507.104 28.195 506.714 30.4771 504.834 31.5631C504.54 31.3301 504.066 31.2215 504.221 30.6743V30.6743ZM495.764 76.9379C496.768 78.1481 497.116 76.3603 498.16 76.4688C499.276 76.5849 497.014 73.7751 499.323 73.2926C499.444 73.2671 499.157 72.8124 498.912 72.63C497.485 71.5638 496.963 72.8227 496.318 73.6677C495.758 74.4022 495.547 75.4448 494.272 75.4277C493.643 75.4193 493.376 73.9384 492.724 74.9517C492.275 75.6512 493.533 75.8732 493.67 76.5011C494.045 78.2143 495.148 76.6641 495.764 76.9379V76.9379ZM497.055 40.7627C497.862 42.2603 498.062 43.9171 498.94 45.2522C499.256 45.7324 499.526 46.1661 500.129 45.6577C501.671 44.3543 501.422 42.7428 499.573 41.929C498.727 41.5555 497.895 41.1514 497.056 40.7615L497.055 40.7627ZM528.192 33.1053C526.905 35.9673 524.074 38.024 523.474 41.2562C525.216 38.6283 527.26 36.1749 528.193 33.1042L528.192 33.1053ZM534.058 24.1517C533.645 24.3882 532.903 23.6426 532.782 24.4838C532.663 25.3124 533.617 25.3821 534.052 25.2796C534.94 25.0721 535.678 24.9693 536.569 25.411C537.101 25.6741 537.499 24.8292 537.87 24.4255C538.029 24.253 537.937 23.6902 537.776 23.4096C537.368 22.6971 536.879 23.4572 536.41 23.4343C535.552 23.3909 535.167 24.8467 534.058 24.1506L534.058 24.1517ZM492.942 60.1648C494.524 60.3552 492.95 62.6712 494.413 62.5466C495.876 62.4221 495.574 60.4949 495.668 59.6111C495.873 57.6908 494.469 60.7714 494.031 59.3476C493.99 59.2128 493.112 59.3925 492.942 60.1648ZM436.574 71.4823C437.47 72.3402 435.625 72.159 436.391 72.7408C436.82 73.066 437.318 72.6997 437.376 71.9922C437.426 71.3711 437.905 70.996 438.377 70.5992C438.898 70.1613 438.346 69.6575 438.214 69.1987C438.195 69.1313 437.674 69.1279 437.67 69.1492C437.429 70.4267 435.815 70.3936 435.44 71.517C435.41 71.6068 435.51 71.7401 435.571 71.9153L436.574 71.4823ZM443.527 60.0026C441.123 62.7614 440.955 63.0531 440.922 64.5317C442.323 63.2309 443.51 61.1674 443.527 60.0026V60.0026ZM520.231 53.1963C520.956 53.1791 519.155 50.9744 521.173 52.2363C521.843 52.6552 521.629 52.0109 521.777 51.8083C522.161 51.2877 521.632 51.0798 521.376 51.0757C520.528 51.0619 519.411 51.0014 519.052 51.7881C518.688 52.5851 519.709 52.8719 520.231 53.1963ZM446.829 48.1317C445.304 49.2772 444.475 50.3994 443.97 51.779C445.16 50.9397 446.589 50.3083 446.829 48.1317V48.1317ZM492.737 69.8053C493.392 70.4679 492.585 71.9846 494.061 72.084C494.528 72.1156 494.832 71.7454 494.83 71.2177C494.827 69.8944 493.715 69.9778 492.737 69.8053ZM497.286 46.4814C498.045 47.3884 497.962 49.3442 500.611 48.4745C498.943 48.07 499.005 46.1394 497.286 46.4814V46.4814Z" fill="#A2D2FF"/>
</g>
<g clip-path="url(#clip1_25_109)">
<path d="M519 68.0002H0V470H519V68.0002Z" fill="#F1F8FF"/>
<path style="mix-blend-mode:multiply" d="M123.911 357.155C123.133 356.711 122.364 356.229 121.586 355.766C98.7853 341.572 83.3501 316.14 85.7589 288.892C88.4272 258.8 119.372 245.598 142.599 232.923C157.422 224.817 169.735 212.087 175.192 195.864C181.483 177.214 181.39 157.749 192.934 140.989C201.856 128.018 215.837 119.207 230.605 114.426C260.642 104.689 295.459 109.043 324.273 120.8C350.9 131.705 374.525 148.382 397.576 165.318C416.624 179.354 438.934 189.935 446.466 214.579C454.453 240.687 436.182 264.98 416.819 280.443C392.128 300.158 362.481 312.971 333.593 325.155C298.6 339.895 262.069 350.874 224.963 358.897C192.267 365.966 154.745 374.823 123.911 357.155Z" fill="url(#paint0_linear_25_109)"/>
<g style="mix-blend-mode:multiply">
<path style="mix-blend-mode:screen" opacity="0.5" d="M316.314 99.0002H281.099V101.483H316.314V99.0002Z" fill="url(#paint1_linear_25_109)"/>
<path style="mix-blend-mode:screen" opacity="0.5" d="M331.323 99.0002H320.456V101.483H331.323V99.0002Z" fill="url(#paint2_linear_25_109)"/>
<path style="mix-blend-mode:screen" d="M275.901 99.0002H272.918V101.483H275.901V99.0002Z" fill="url(#paint3_linear_25_109)"/>
<path style="mix-blend-mode:screen" opacity="0.8" d="M379.778 99.0002H364.89V101.483H379.778V99.0002Z" fill="url(#paint4_linear_25_109)"/>
<path style="mix-blend-mode:screen" opacity="0.5" d="M361.693 99.0002H336.539V101.483H361.693V99.0002Z" fill="url(#paint5_linear_25_109)"/>
<path style="mix-blend-mode:multiply" d="M322.605 146.01H320.456H281.089V148.493H320.456H322.605H331.323V146.01H322.605Z" fill="url(#paint6_linear_25_109)"/>
<path style="mix-blend-mode:multiply" d="M275.901 146.01H272.918V148.493H275.901V146.01Z" fill="url(#paint7_linear_25_109)"/>
<path style="mix-blend-mode:multiply" opacity="0.5" d="M373.098 146.01H364.89V148.493H373.098V146.01Z" fill="url(#paint8_linear_25_109)"/>
<path style="mix-blend-mode:multiply" opacity="0.5" d="M361.693 146.01H336.539V148.493H361.693V146.01Z" fill="url(#paint9_linear_25_109)"/>
<path style="mix-blend-mode:multiply" d="M288.297 106.829H281.099V109.312H288.297V106.829Z" fill="url(#paint10_linear_25_109)"/>
<path style="mix-blend-mode:multiply" opacity="0.5" d="M332.027 106.829H291.438V109.312H332.027V106.829Z" fill="url(#paint11_linear_25_109)"/>
<path style="mix-blend-mode:multiply" d="M275.901 106.829H272.918V109.312H275.901V106.829Z" fill="url(#paint12_linear_25_109)"/>
<path style="mix-blend-mode:screen" opacity="0.5" d="M396.992 106.829H336.539V109.312H396.992V106.829Z" fill="url(#paint13_linear_25_109)"/>
<path style="mix-blend-mode:multiply" d="M288.297 153.848H281.099V156.331H288.297V153.848Z" fill="url(#paint14_linear_25_109)"/>
<path style="mix-blend-mode:multiply" d="M346.61 153.848H339.411V156.331H346.61V153.848Z" fill="url(#paint15_linear_25_109)"/>
<path style="mix-blend-mode:multiply" opacity="0.5" d="M332.027 153.848H291.438V156.331H332.027V153.848Z" fill="url(#paint16_linear_25_109)"/>
<path style="mix-blend-mode:multiply" d="M275.901 153.848H272.918V156.331H275.901V153.848Z" fill="url(#paint17_linear_25_109)"/>
<path style="mix-blend-mode:multiply" d="M396.992 153.848H352.929V156.331H396.992V153.848Z" fill="url(#paint18_linear_25_109)"/>
<path style="mix-blend-mode:screen" opacity="0.3" d="M303.001 114.667H281.099V117.15H303.001V114.667Z" fill="url(#paint19_linear_25_109)"/>
<path style="mix-blend-mode:multiply" d="M316.305 114.667H305.641V117.15H316.305V114.667Z" fill="url(#paint20_linear_25_109)"/>
<path style="mix-blend-mode:multiply" d="M275.901 114.667H272.918V117.15H275.901V114.667Z" fill="url(#paint21_linear_25_109)"/>
<path style="mix-blend-mode:multiply" d="M354.226 114.667H321.197V117.15H354.226V114.667Z" fill="url(#paint22_linear_25_109)"/>
<path style="mix-blend-mode:multiply" opacity="0.5" d="M396.992 114.667H357.811V117.15H396.992V114.667Z" fill="url(#paint23_linear_25_109)"/>
<path style="mix-blend-mode:multiply" d="M339.161 122.505H281.099V124.988H339.161V122.505Z" fill="url(#paint24_linear_25_109)"/>
<path style="mix-blend-mode:multiply" d="M275.901 122.505H272.918V124.988H275.901V122.505Z" fill="url(#paint25_linear_25_109)"/>
<path style="mix-blend-mode:multiply" d="M385.05 122.505H342.191V124.988H385.05V122.505Z" fill="url(#paint26_linear_25_109)"/>
<path style="mix-blend-mode:multiply" opacity="0.5" d="M310.904 130.343H281.099V132.826H310.904V130.343Z" fill="url(#paint27_linear_25_109)"/>
<path style="mix-blend-mode:multiply" d="M275.901 130.343H272.918V132.826H275.901V130.343Z" fill="url(#paint28_linear_25_109)"/>
<path style="mix-blend-mode:multiply" opacity="0.5" d="M385.05 130.343H328.238V132.826H385.05V130.343Z" fill="url(#paint29_linear_25_109)"/>
<path style="mix-blend-mode:multiply" d="M396.983 130.343H389.33V132.826H396.983V130.343Z" fill="url(#paint30_linear_25_109)"/>
<path style="mix-blend-mode:multiply" d="M322.512 130.343H314.86V132.826H322.512V130.343Z" fill="url(#paint31_linear_25_109)"/>
<path style="mix-blend-mode:multiply" d="M296.089 138.172H281.099V140.655H296.089V138.172Z" fill="url(#paint32_linear_25_109)"/>
<path style="mix-blend-mode:multiply" d="M326.302 138.172H311.311V140.655H326.302V138.172Z" fill="url(#paint33_linear_25_109)"/>
<path style="mix-blend-mode:multiply" d="M275.901 138.172H272.918V140.655H275.901V138.172Z" fill="url(#paint34_linear_25_109)"/>
<path style="mix-blend-mode:multiply" opacity="0.3" d="M370.717 138.172H331.888V140.655H370.717V138.172Z" fill="url(#paint35_linear_25_109)"/>
<path style="mix-blend-mode:multiply" opacity="0.5" d="M396.983 138.172H375.832V140.655H396.983V138.172Z" fill="url(#paint36_linear_25_109)"/>
<path style="mix-blend-mode:multiply" opacity="0.5" d="M307.8 138.172H300.147V140.655H307.8V138.172Z" fill="url(#paint37_linear_25_109)"/>
</g>
<path style="mix-blend-mode:multiply" d="M254.027 430.19C308.899 430.19 353.383 425.387 353.383 419.461C353.383 413.536 308.899 408.733 254.027 408.733C199.154 408.733 154.671 413.536 154.671 419.461C154.671 425.387 199.154 430.19 254.027 430.19Z" fill="url(#paint38_linear_25_109)"/>
<path style="mix-blend-mode:multiply" d="M375.442 439.26C394.426 439.26 409.815 437.601 409.815 435.554C409.815 433.508 394.426 431.848 375.442 431.848C356.459 431.848 341.07 433.508 341.07 435.554C341.07 437.601 356.459 439.26 375.442 439.26Z" fill="url(#paint39_linear_25_109)"/>
<path style="mix-blend-mode:multiply" d="M111.098 439.26C133.244 439.26 151.196 437.601 151.196 435.554C151.196 433.508 133.244 431.848 111.098 431.848C88.9526 431.848 71 433.508 71 435.554C71 437.601 88.9526 439.26 111.098 439.26Z" fill="url(#paint40_linear_25_109)"/>
<path d="M322.827 135.3H186.746C180.15 135.3 174.803 140.647 174.803 147.242V406.046C174.803 412.642 180.15 417.988 186.746 417.988H322.827C329.423 417.988 334.77 412.642 334.77 406.046V147.242C334.77 140.647 329.423 135.3 322.827 135.3Z" fill="url(#paint41_linear_25_109)"/>
<path d="M327.135 148.447H182.428V395.308H327.135V148.447Z" fill="#1ECAC0"/>
<path d="M323.541 151.578H186.032V392.167H323.541V151.578Z" fill="#1ECAC0"/>
<g style="mix-blend-mode:multiply">
<path style="mix-blend-mode:multiply" d="M258.159 410.984H251.405C251.021 410.984 250.652 410.832 250.379 410.561C250.107 410.29 249.953 409.923 249.95 409.538V402.775C249.953 402.39 250.107 402.022 250.379 401.749C250.651 401.477 251.02 401.323 251.405 401.321H258.159C258.545 401.321 258.915 401.474 259.187 401.747C259.46 402.019 259.613 402.389 259.613 402.775V409.538C259.613 409.729 259.576 409.918 259.503 410.094C259.429 410.27 259.322 410.429 259.187 410.564C259.052 410.698 258.891 410.804 258.715 410.876C258.538 410.948 258.349 410.985 258.159 410.984V410.984ZM251.59 409.344H257.974V402.96H251.59V409.344Z" fill="url(#paint42_linear_25_109)"/>
</g>
<path style="mix-blend-mode:multiply" opacity="0.5" d="M244.817 290.013H194.621C193.536 290.013 192.656 290.893 192.656 291.978V342.174C192.656 343.259 193.536 344.139 194.621 344.139H244.817C245.902 344.139 246.782 343.259 246.782 342.174V291.978C246.782 290.893 245.902 290.013 244.817 290.013Z" fill="url(#paint43_linear_25_109)"/>
<path d="M314.943 290.013H264.746C263.661 290.013 262.782 290.893 262.782 291.978V342.174C262.782 343.259 263.661 344.139 264.746 344.139H314.943C316.028 344.139 316.907 343.259 316.907 342.174V291.978C316.907 290.893 316.028 290.013 314.943 290.013Z" fill="url(#paint44_linear_25_109)"/>
<path d="M306.234 332.807H273.455V334.781H306.234V332.807Z" fill="url(#paint45_linear_25_109)"/>
<path d="M242.686 169.116H129.137C127.535 169.116 126.237 170.415 126.237 172.016V245.449C126.237 247.051 127.535 248.349 129.137 248.349H242.686C244.288 248.349 245.586 247.051 245.586 245.449V172.016C245.586 170.415 244.288 169.116 242.686 169.116Z" fill="url(#paint46_linear_25_109)"/>
<path d="M245.716 180.568L126.339 180.568V171.609C126.339 170.839 126.644 170.102 127.188 169.558C127.732 169.014 128.47 168.709 129.239 168.709H242.825C243.595 168.709 244.332 169.014 244.876 169.558C245.42 170.102 245.725 170.839 245.725 171.609V180.568H245.716Z" fill="url(#paint47_linear_25_109)"/>
<path d="M151.826 176.38C152.773 176.38 153.54 175.613 153.54 174.666C153.54 173.719 152.773 172.952 151.826 172.952C150.88 172.952 150.112 173.719 150.112 174.666C150.112 175.613 150.88 176.38 151.826 176.38Z" fill="white"/>
<path d="M143.627 176.38C144.574 176.38 145.341 175.613 145.341 174.666C145.341 173.719 144.574 172.952 143.627 172.952C142.68 172.952 141.913 173.719 141.913 174.666C141.913 175.613 142.68 176.38 143.627 176.38Z" fill="white"/>
<path d="M135.428 176.38C136.374 176.38 137.142 175.613 137.142 174.666C137.142 173.719 136.374 172.952 135.428 172.952C134.481 172.952 133.714 173.719 133.714 174.666C133.714 175.613 134.481 176.38 135.428 176.38Z" fill="white"/>
<g style="mix-blend-mode:screen" opacity="0.5">
<path style="mix-blend-mode:screen" opacity="0.5" d="M170.653 189.194H141.922V191.223H170.653V189.194Z" fill="url(#paint48_linear_25_109)"/>
</g>
<path style="mix-blend-mode:screen" opacity="0.5" d="M182.91 189.194H174.043V191.223H182.91V189.194Z" fill="url(#paint49_linear_25_109)"/>
<g style="mix-blend-mode:screen">
<path style="mix-blend-mode:screen" d="M137.697 189.194H135.261V191.223H137.697V189.194Z" fill="url(#paint50_linear_25_109)"/>
</g>
<g style="mix-blend-mode:screen" opacity="0.8">
<path style="mix-blend-mode:screen" opacity="0.8" d="M222.443 189.194H210.297V191.223H222.443V189.194Z" fill="url(#paint51_linear_25_109)"/>
</g>
<g style="mix-blend-mode:screen" opacity="0.5">
<path style="mix-blend-mode:screen" opacity="0.5" d="M207.684 189.194H187.162V191.223H207.684V189.194Z" fill="url(#paint52_linear_25_109)"/>
</g>
<g style="mix-blend-mode:screen">
<path style="mix-blend-mode:screen" d="M175.794 227.55H174.043H141.922V229.569H174.043H175.794H182.91V227.55H175.794Z" fill="url(#paint53_linear_25_109)"/>
<path style="mix-blend-mode:screen" d="M137.697 227.55H135.261V229.579H137.697V227.55Z" fill="url(#paint54_linear_25_109)"/>
<g style="mix-blend-mode:screen" opacity="0.5">
<path style="mix-blend-mode:screen" opacity="0.5" d="M216.995 227.55H210.297V229.579H216.995V227.55Z" fill="url(#paint55_linear_25_109)"/>
</g>
<path style="mix-blend-mode:screen" opacity="0.5" d="M207.684 227.55H187.162V229.579H207.684V227.55Z" fill="url(#paint56_linear_25_109)"/>
</g>
<g style="mix-blend-mode:screen">
<path style="mix-blend-mode:screen" d="M147.796 195.586H141.922V197.615H147.796V195.586Z" fill="url(#paint57_linear_25_109)"/>
<path style="mix-blend-mode:screen" opacity="0.5" d="M183.484 195.586H150.372V197.615H183.484V195.586Z" fill="url(#paint58_linear_25_109)"/>
<path style="mix-blend-mode:screen" d="M137.697 195.586H135.261V197.615H137.697V195.586Z" fill="url(#paint59_linear_25_109)"/>
<g style="mix-blend-mode:screen" opacity="0.5">
<path style="mix-blend-mode:screen" opacity="0.5" d="M236.488 195.586H187.162V197.615H236.488V195.586Z" fill="url(#paint60_linear_25_109)"/>
</g>
</g>
<g style="mix-blend-mode:screen">
<path style="mix-blend-mode:screen" d="M147.796 233.943H141.922V235.972H147.796V233.943Z" fill="url(#paint61_linear_25_109)"/>
<path style="mix-blend-mode:screen" d="M195.38 233.943H189.506V235.972H195.38V233.943Z" fill="url(#paint62_linear_25_109)"/>
<path style="mix-blend-mode:screen" opacity="0.5" d="M183.484 233.943H150.372V235.972H183.484V233.943Z" fill="url(#paint63_linear_25_109)"/>
<path style="mix-blend-mode:screen" d="M137.697 233.943H135.261V235.972H137.697V233.943Z" fill="url(#paint64_linear_25_109)"/>
<path style="mix-blend-mode:screen" d="M236.479 233.943H200.531V235.972H236.479V233.943Z" fill="url(#paint65_linear_25_109)"/>
</g>
<g style="mix-blend-mode:screen">
<g style="mix-blend-mode:screen" opacity="0.3">
<path style="mix-blend-mode:screen" opacity="0.3" d="M159.794 201.979H141.922V204.008H159.794V201.979Z" fill="url(#paint66_linear_25_109)"/>
</g>
<path style="mix-blend-mode:screen" d="M170.652 201.979H161.953V204.008H170.652V201.979Z" fill="url(#paint67_linear_25_109)"/>
<path style="mix-blend-mode:screen" d="M137.697 201.979H135.261V204.008H137.697V201.979Z" fill="url(#paint68_linear_25_109)"/>
<path style="mix-blend-mode:screen" d="M201.588 201.979H174.636V204.008H201.588V201.979Z" fill="url(#paint69_linear_25_109)"/>
<path style="mix-blend-mode:screen" opacity="0.5" d="M236.479 201.979H204.515V204.008H236.479V201.979Z" fill="url(#paint70_linear_25_109)"/>
</g>
<g style="mix-blend-mode:screen">
<path style="mix-blend-mode:screen" d="M189.293 208.371H141.922V210.4H189.293V208.371Z" fill="url(#paint71_linear_25_109)"/>
<path style="mix-blend-mode:screen" d="M137.697 208.371H135.261V210.4H137.697V208.371Z" fill="url(#paint72_linear_25_109)"/>
<path style="mix-blend-mode:screen" d="M226.742 208.371H191.776V210.4H226.742V208.371Z" fill="url(#paint73_linear_25_109)"/>
</g>
<g style="mix-blend-mode:screen">
<path style="mix-blend-mode:screen" opacity="0.5" d="M166.233 214.764H141.922V216.793H166.233V214.764Z" fill="url(#paint74_linear_25_109)"/>
<path style="mix-blend-mode:screen" d="M137.697 214.764H135.261V216.793H137.697V214.764Z" fill="url(#paint75_linear_25_109)"/>
<g style="mix-blend-mode:screen" opacity="0.5">
<path style="mix-blend-mode:screen" opacity="0.5" d="M226.742 214.764H180.39V216.793H226.742V214.764Z" fill="url(#paint76_linear_25_109)"/>
</g>
<path style="mix-blend-mode:screen" d="M236.479 214.764H230.234V216.793H236.479V214.764Z" fill="url(#paint77_linear_25_109)"/>
<path style="mix-blend-mode:screen" d="M175.72 214.764H169.476V216.793H175.72V214.764Z" fill="url(#paint78_linear_25_109)"/>
</g>
<g style="mix-blend-mode:screen">
<path style="mix-blend-mode:screen" d="M154.152 221.157H141.922V223.186H154.152V221.157Z" fill="url(#paint79_linear_25_109)"/>
<path style="mix-blend-mode:screen" d="M178.815 221.157H166.585V223.186H178.815V221.157Z" fill="url(#paint80_linear_25_109)"/>
<path style="mix-blend-mode:screen" d="M137.697 221.157H135.261V223.186H137.697V221.157Z" fill="url(#paint81_linear_25_109)"/>
<g style="mix-blend-mode:screen" opacity="0.3">
<path style="mix-blend-mode:screen" opacity="0.3" d="M215.04 221.157H183.364V223.186H215.04V221.157Z" fill="url(#paint82_linear_25_109)"/>
</g>
<path style="mix-blend-mode:screen" opacity="0.5" d="M236.479 221.157H219.219V223.186H236.479V221.157Z" fill="url(#paint83_linear_25_109)"/>
<g style="mix-blend-mode:screen" opacity="0.5">
<path style="mix-blend-mode:screen" opacity="0.5" d="M163.713 221.157H157.469V223.186H163.713V221.157Z" fill="url(#paint84_linear_25_109)"/>
</g>
</g>
<path d="M263.051 242.216H361.897C363.289 242.216 364.417 241.088 364.417 239.696V175.769C364.417 174.377 363.289 173.249 361.897 173.249H263.051C261.659 173.249 260.531 174.377 260.531 175.769V239.696C260.531 241.088 261.659 242.216 263.051 242.216Z" fill="white"/>
<path d="M364.371 183.579H260.53V175.778C260.53 175.11 260.796 174.469 261.269 173.996C261.741 173.523 262.382 173.258 263.051 173.258H361.888C362.219 173.258 362.546 173.323 362.852 173.45C363.158 173.576 363.436 173.762 363.67 173.996C363.904 174.23 364.089 174.508 364.216 174.813C364.343 175.119 364.408 175.447 364.408 175.778V183.579H364.371Z" fill="url(#paint85_linear_25_109)"/>
<path d="M282.692 179.901C283.516 179.901 284.184 179.233 284.184 178.409C284.184 177.585 283.516 176.917 282.692 176.917C281.868 176.917 281.2 177.585 281.2 178.409C281.2 179.233 281.868 179.901 282.692 179.901Z" fill="white"/>
<path d="M275.549 179.901C276.373 179.901 277.04 179.233 277.04 178.409C277.04 177.585 276.373 176.917 275.549 176.917C274.725 176.917 274.057 177.585 274.057 178.409C274.057 179.233 274.725 179.901 275.549 179.901Z" fill="white"/>
<path d="M268.415 179.901C269.239 179.901 269.907 179.233 269.907 178.409C269.907 177.585 269.239 176.917 268.415 176.917C267.591 176.917 266.923 177.585 266.923 178.409C266.923 179.233 267.591 179.901 268.415 179.901Z" fill="white"/>
<path d="M322.736 228.914C325.707 226.96 323.519 218.389 317.85 209.771C312.18 201.154 305.176 195.752 302.205 197.706C299.234 199.661 301.422 208.231 307.091 216.849C312.761 225.467 319.765 230.869 322.736 228.914Z" stroke="url(#paint86_linear_25_109)" stroke-width="1.26928" stroke-miterlimit="10"/>
<path d="M318.806 215.541C324.479 206.876 326.657 198.266 323.67 196.31C320.683 194.354 313.662 199.793 307.988 208.458C302.315 217.123 300.137 225.733 303.124 227.689C306.111 229.645 313.132 224.206 318.806 215.541Z" stroke="url(#paint87_linear_25_109)" stroke-width="1.27441" stroke-miterlimit="10"/>
<path d="M312.469 219.73C322.785 219.73 331.147 216.847 331.147 213.291C331.147 209.735 322.785 206.852 312.469 206.852C302.154 206.852 293.791 209.735 293.791 213.291C293.791 216.847 302.154 219.73 312.469 219.73Z" stroke="url(#paint88_linear_25_109)" stroke-width="1.26928" stroke-miterlimit="10"/>
<path d="M312.024 216.228C313.646 216.228 314.961 214.913 314.961 213.291C314.961 211.669 313.646 210.354 312.024 210.354C310.402 210.354 309.087 211.669 309.087 213.291C309.087 214.913 310.402 216.228 312.024 216.228Z" fill="url(#paint89_linear_25_109)"/>
<path style="mix-blend-mode:multiply" d="M122.568 255.891H100.759V275.319H122.568V255.891Z" fill="url(#paint90_linear_25_109)"/>
<path d="M108.217 269.584L104.224 266.805V265.119L108.217 262.339V264.192L105.743 265.952L108.217 267.741V269.584Z" fill="white"/>
<path d="M109.551 270.825L112.729 260.384H113.887L110.663 270.825H109.551Z" fill="white"/>
<path d="M115.11 269.584V267.731L117.593 265.943L115.11 264.192V262.339L119.103 265.119V266.758L115.11 269.584Z" fill="white"/>
<path style="mix-blend-mode:multiply" d="M149.473 130.167H127.664V149.596H149.473V130.167Z" fill="url(#paint91_linear_25_109)"/>
<path d="M135.131 143.851L131.138 141.072V139.423L135.131 136.643V138.496L132.648 140.257L135.131 142.035V143.851Z" fill="white"/>
<path d="M136.419 145.102L139.597 134.66H140.755L137.577 145.102H136.419Z" fill="white"/>
<path d="M142.024 143.851V141.998L144.498 140.219L142.024 138.459V136.606L146.017 139.386V141.035L142.024 143.851Z" fill="white"/>
<path style="mix-blend-mode:multiply" d="M414.771 202.414H392.962V221.843H414.771V202.414Z" fill="url(#paint92_linear_25_109)"/>
<path d="M400.467 216.108L396.473 213.328V211.688L400.467 208.909V210.762L397.984 212.531L400.467 214.31V216.108Z" fill="white"/>
<path d="M401.708 217.349L404.895 206.907H406.025L402.848 217.349H401.708Z" fill="white"/>
<path d="M407.313 216.108V214.255L409.796 212.476L407.313 210.706V208.853L411.306 211.633V213.273L407.313 216.108Z" fill="white"/>
<path d="M374.525 292.653C378.879 296.433 368.401 324.385 364.917 322.301C358.358 321.865 366.316 287.984 374.525 292.653Z" fill="#CE9789"/>
<path d="M363.407 308.33L361.415 319.142L355.514 321.134L355.866 326.628C355.866 326.628 365.371 326.628 367.78 323.404C370.189 320.18 372.227 310.581 372.227 310.581L363.407 308.33Z" fill="#CE9789"/>
<path d="M380.658 288.92C365.612 288.216 365.177 300.205 362.861 308.376L372.561 311.156L380.658 288.92Z" fill="url(#paint93_linear_25_109)"/>
<path d="M367.187 322.644C367.153 323.066 367.011 323.472 366.774 323.822C366.537 324.173 366.213 324.457 365.835 324.645C359.924 327.749 345.748 326.822 346.054 324.738C346.249 323.376 367.521 316.233 367.187 322.644Z" fill="#CE9789"/>
<path d="M348.5 323.626L348.769 323.413L348.083 323.014L346.86 322.394C346.546 322.239 346.2 322.159 345.85 322.162L344.359 322.57C344.359 322.57 344.118 322.987 344.998 322.977C345.288 323.024 345.561 323.149 345.786 323.339L344.878 323.487L342.784 323.95C342.485 324.012 342.22 324.181 342.038 324.425C341.855 324.669 341.768 324.971 341.792 325.275C341.879 325.553 342.041 325.801 342.26 325.992C342.479 326.184 342.747 326.31 343.034 326.359L344.424 326.748C345.097 326.916 345.8 326.931 346.48 326.794L348.407 326.016L348.5 323.626Z" fill="#CE9789"/>
<path d="M376.183 330.037C384.698 330.362 380.427 338.255 378.759 345.213C375.739 356.146 377.286 370.358 372.857 371.877C361.054 375.352 365.214 333.53 368.503 331.649C370.041 330.779 373.321 330.297 376.183 330.037Z" fill="#CE9789"/>
<path d="M368.132 368.19C376.471 362.325 375.442 411.188 373.135 422.305C370.828 433.423 368.558 416.552 367.085 398.763C365.612 380.975 364.862 370.496 368.132 368.19Z" fill="#CE9789"/>
<path d="M374.525 420.397L374.358 425.289L368.216 425.372V420.981L374.525 420.397Z" fill="#CE9789"/>
<path d="M367.678 425.4C367.678 425.4 366.391 427.901 362.119 431.153C357.848 434.405 356.718 433.71 356.616 434.924C356.514 436.138 374.859 435.082 374.859 435.082L374.488 425.103C374.488 425.103 367.678 425.168 367.678 425.4Z" fill="url(#paint94_linear_25_109)"/>
<path d="M385.281 330.241C393.62 328.573 393.546 337.588 393.546 344.74C393.138 356.071 395.732 369.2 391.776 371.71C381.094 377.825 378.064 334.846 380.825 332.242C382.122 331.047 382.558 331.167 385.281 330.241Z" fill="#CE9789"/>
<path d="M387.348 368.19C391.619 365.179 395.25 408.344 392.351 422.306C390.053 433.423 387.774 416.552 386.301 398.764C384.827 380.975 384.077 370.497 387.348 368.19Z" fill="#CE9789"/>
<path d="M393.379 422.445L393.407 426.521L386.875 426.567L386.894 422.973L393.379 422.445Z" fill="#CE9789"/>
<path d="M393.462 426.466C393.546 428.068 395.232 433.572 395.269 434.971C384.892 435.23 385.18 437.315 386.857 426.493L393.462 426.466Z" fill="url(#paint95_linear_25_109)"/>
<path d="M365.788 333.372C365.788 333.372 362.833 367.745 363.009 372.85C363.185 377.955 368.049 421.49 368.049 421.49L374.71 421.194C374.71 421.194 377.416 396.66 375.312 373.1L379.157 351.281L386.616 423.01H393.666C393.666 423.01 393.916 379.094 394.361 372.192C394.806 365.29 393.203 332.418 393.203 332.418L365.788 333.372Z" fill="url(#paint96_linear_25_109)"/>
<path d="M365.788 333.373C365.696 335.049 379.333 335.003 387.403 334.04C390.813 333.632 393.231 333.058 393.231 332.381C392.667 322.904 393.18 313.393 394.759 304.031C396.26 293.487 396.686 289.05 385.661 287.641L377.267 288.484C360.09 291.533 368.781 308.107 365.788 333.373Z" fill="url(#paint97_linear_25_109)"/>
<path d="M347.107 324.853L373.436 324.591L373.423 323.303L347.094 323.565L347.107 324.853Z" fill="#1B3689"/>
<path d="M340.254 324.886L364.751 324.645L357.672 308.015L333.176 308.256L340.254 324.886Z" fill="#1B3689"/>
<path d="M339.56 324.895L364.056 324.655L356.987 308.024L332.481 308.265L339.56 324.895Z" fill="url(#paint98_linear_25_109)"/>
<path d="M348.462 318.732C349.19 318.431 349.414 317.298 348.961 316.201C348.508 315.103 347.55 314.457 346.822 314.758C346.093 315.059 345.87 316.192 346.323 317.289C346.776 318.387 347.734 319.032 348.462 318.732Z" fill="white"/>
<g style="mix-blend-mode:multiply">
<path d="M387.403 334.04C390.813 333.632 393.231 333.058 393.231 332.381C392.667 322.904 393.18 313.393 394.759 304.031L390.442 303.577C391.407 309.394 391.872 315.283 391.832 321.18C391.544 328.555 391.202 332.752 387.403 334.04Z" fill="#E8E4D8"/>
</g>
<path d="M377.23 286.113V287.493L377.277 290.875C377.675 295.22 384.512 290.504 385.281 288.698C385.81 287.54 385.022 286.956 385.004 284.51C384.985 282.064 385.004 281.805 385.004 281.805C393.203 268.769 379.519 263.47 374.293 272.716C374.293 275.746 373.978 278.692 373.923 281.054C373.802 284.64 374.284 286.882 377.23 286.113Z" fill="#CE9789"/>
<path d="M372.413 270.048C372.347 270.724 372.474 271.404 372.779 272.011C373.084 272.618 373.554 273.125 374.136 273.476C374.735 273.791 375.4 273.962 376.077 273.975C376.755 273.988 377.426 273.842 378.036 273.55C379.324 273.022 380.686 272.271 382.076 272.957C383.994 273.883 382.511 276.941 382.511 278.46V278.507C382.854 278.655 383.271 278.831 383.595 278.951C383.771 277.849 384.133 276.811 384.855 276.83C385.893 276.876 384.855 281.777 384.994 281.833C385.925 280.668 386.635 279.343 387.088 277.923C387.249 277.474 387.385 277.016 387.496 276.552C388.228 273.522 387.987 268.769 384.337 267.759C382.79 267.397 381.275 266.91 379.806 266.305C378.389 265.638 376.943 264.869 375.35 265.508C374.495 265.927 373.77 266.571 373.252 267.371C372.735 268.171 372.445 269.096 372.413 270.048V270.048Z" fill="url(#paint99_linear_25_109)"/>
<path d="M393.11 291.737C397.696 294.97 390.479 324.525 386.903 322.876C380.51 323.08 384.716 288.031 393.11 291.737Z" fill="#CE9789"/>
<path d="M383.845 310.322L382.771 316.686L372.579 314.463L371.004 319.447C371.004 319.447 385.078 326.266 388.024 323.394C390.97 320.522 392.934 311.433 392.934 311.433L383.845 310.322Z" fill="#CE9789"/>
<path d="M386.365 294.627L383.308 310.516L393.499 312.249C393.499 312.249 396.279 297.758 395.927 294.136C395.8 293.331 395.482 292.569 395 291.912C394.976 291.884 394.954 291.853 394.935 291.82C392.545 288.281 387.329 290.513 386.365 294.627Z" fill="url(#paint100_linear_25_109)"/>
<path d="M388.144 322.709C387.944 323.068 387.654 323.37 387.304 323.586C386.954 323.801 386.554 323.924 386.143 323.941C379.658 324.312 357.218 313.527 358.636 312.277C359.201 311.063 391.016 317.168 388.144 322.709Z" fill="#CE9789"/>
<path d="M362.481 312.536L362.805 312.452L362.351 311.832L361.517 310.785C361.302 310.521 361.025 310.314 360.711 310.183L359.229 309.942C359.229 309.942 358.849 310.201 359.627 310.553C359.867 310.714 360.062 310.934 360.192 311.192L359.377 310.952L357.524 310.47C357.005 310.349 356.421 312.74 357.246 313.323L357.663 313.657C358.192 314.074 358.805 314.372 359.46 314.528L361.48 314.602L362.481 312.536Z" fill="#CE9789"/>
<g style="mix-blend-mode:multiply">
<path d="M377.23 286.113V287.493L380.01 284.714C379.163 285.324 378.225 285.796 377.23 286.113Z" fill="#D7CFBB"/>
</g>
<path d="M377.23 286.113V286.196C378.226 285.86 379.163 285.373 380.01 284.751C381.622 283.315 383.577 278.96 383.577 278.96L382.493 278.506C382.493 278.506 381.344 281.656 379.194 281.619C377.045 281.582 375.09 280.405 373.895 281.082C373.802 284.639 374.284 286.881 377.23 286.113Z" fill="url(#paint101_linear_25_109)"/>
<path d="M377.063 283.185C376.478 282.759 375.767 282.54 375.044 282.565C374.845 282.625 374.66 282.725 374.501 282.859C374.341 282.993 374.211 283.157 374.117 283.343C374.117 283.343 375.933 284.473 377.063 283.185Z" fill="#CE9789"/>
<path d="M132.444 379.734C124.523 373.823 124.467 412.309 126.413 423.167C128.359 434.026 130.767 426.725 132.657 409.474C134.547 392.223 135.567 382.059 132.444 379.734Z" fill="#CE9789"/>
<path d="M125.209 422.055L124.884 426.086L131.49 426.428L131.397 422.509L125.209 422.055Z" fill="#CE9789"/>
<path d="M131.629 426.326C131.629 426.326 132.824 428.791 136.891 432.061C140.959 435.332 142.08 434.683 142.135 435.869C142.191 437.055 123.958 435.536 123.958 435.536L124.792 425.854C124.792 425.854 131.638 426.095 131.629 426.326Z" fill="url(#paint102_linear_25_109)"/>
<path d="M110.811 339.45C102.639 338.089 103.01 346.862 103.223 353.792C103.964 364.79 101.852 377.622 105.771 379.938C116.333 385.552 117.954 343.703 115.202 341.257C113.896 340.164 113.479 340.266 110.811 339.45Z" fill="#CE9789"/>
<path d="M121.382 342.665C113.201 343.971 116.333 352.152 118.751 358.675C122.939 368.866 125.014 381.707 129.47 382.661C141.265 384.635 129.47 344.425 126.117 342.989C124.532 342.341 124.171 342.591 121.382 342.665Z" fill="#CE9789"/>
<path d="M109.996 378.279C105.169 369.654 89.4276 404.777 86.8335 415.477C84.2393 426.178 89.3535 420.499 98.118 405.527C106.883 390.555 111.895 381.679 109.996 378.279Z" fill="#CE9789"/>
<path d="M85.8238 415.172L84.0913 418.739L89.7892 421.518L91.3827 417.97L85.8238 415.172Z" fill="#CE9789"/>
<path d="M90.3451 421.444C90.3451 421.444 90.4285 424.168 92.8095 428.856C95.1906 433.544 96.4691 433.359 96.0429 434.461C95.6168 435.564 79.5793 426.744 79.5793 426.744L84.2859 418.248C84.2859 418.248 90.447 421.213 90.3451 421.444Z" fill="url(#paint103_linear_25_109)"/>
<path d="M129.563 343.694C129.563 343.694 136.808 371.562 137.401 378.335C137.994 385.107 132.435 423.353 132.435 423.353L123.809 422.899C123.809 422.899 124.05 390.916 125.264 382.087L117.426 359.101C117.426 359.101 113.72 378.993 112.423 382.93C110.727 387.924 91.8458 419.128 91.8458 419.128L84.8416 415.422C84.8416 415.422 91.3269 393.427 101.815 378.066C101.815 378.066 99.0353 343.323 103.89 339.506C108.745 335.689 129.563 343.694 129.563 343.694Z" fill="url(#paint104_linear_25_109)"/>
<path d="M124.773 302.975C121.141 307.051 134.464 333.447 137.484 331.103C143.59 329.889 131.916 297.629 124.773 302.975Z" fill="#CE9789"/>
<path d="M136.336 314.991L139.495 323.051C139.495 323.051 148.76 319.151 150.789 318.419C152.818 317.687 162.045 314.361 162.045 314.361L163.732 317.965C163.732 317.965 153.8 324.562 150.64 326.303C147.481 328.045 139.235 332.789 135.817 331.344C132.398 329.898 127.942 318.549 127.942 318.549L136.336 314.991Z" fill="#CE9789"/>
<path d="M135.168 330.176C135.46 330.567 135.848 330.877 136.294 331.075C136.74 331.273 137.23 331.352 137.716 331.306C145.378 330.741 170.032 314.63 168.179 313.351C167.326 312.017 130.943 324.117 135.168 330.176Z" fill="#CE9789"/>
<path d="M171.625 310.581C171.649 310.618 171.664 310.659 171.672 310.701L171.597 312.452C171.581 312.948 171.406 313.426 171.097 313.814L170.226 314.861C169.353 315.778 168.304 316.509 167.141 317.011L164.306 317.761L163.704 317.928L163.342 317.178L162.277 314.861L162.018 314.343L162.119 314.083L162.888 312.23C163.116 311.694 163.468 311.221 163.917 310.85L166.242 309.756C166.264 309.977 166.236 310.199 166.16 310.408C166.085 310.616 165.964 310.805 165.807 310.961C165.538 311.351 165.352 311.793 165.26 312.258L166.483 311.489L169.624 309.812C169.804 309.718 170.001 309.663 170.204 309.651C170.406 309.639 170.609 309.671 170.799 309.744C170.988 309.816 171.16 309.929 171.302 310.073C171.445 310.218 171.555 310.391 171.625 310.581V310.581Z" fill="#CE9789"/>
<path d="M127.728 319.003C126.292 315.899 121.243 303.827 125.301 301.844C130.193 299.472 133.13 306.894 133.751 308.079C134.371 309.265 136.641 314.982 136.641 314.982L127.728 319.003Z" fill="url(#paint105_linear_25_109)"/>
<path d="M103.223 339.367C102.917 341.572 129.396 346.001 129.563 343.694C129.628 334.957 130.981 327.443 131.981 321.143C132.139 320.105 132.296 319.096 132.426 318.123C133.834 308.339 133.501 301.956 123.986 298.963L115.999 297.11C105.808 297.11 105.104 300.964 105.196 310.081C105.196 313.064 105.345 316.613 105.196 320.782C105.069 327.022 104.408 333.239 103.223 339.367V339.367Z" fill="url(#paint106_linear_25_109)"/>
<path d="M184.011 279.505L134.349 286.812C133.276 286.97 132.534 287.968 132.692 289.041L139.999 338.703C140.157 339.776 141.155 340.518 142.228 340.361L191.89 333.054C192.963 332.896 193.705 331.898 193.547 330.825L186.241 281.162C186.083 280.089 185.085 279.347 184.011 279.505Z" fill="url(#paint107_linear_25_109)"/>
<path d="M181.619 323.112L149.189 327.884L149.477 329.836L181.907 325.064L181.619 323.112Z" fill="url(#paint108_linear_25_109)"/>
<path d="M116.963 294.247C116.629 296.601 115.805 297.027 116.175 298.25C116.694 300.103 122.735 305.486 123.643 301.307L123.698 300.918L124.273 296.712C128.905 298.565 127.849 291.449 128.757 284.186C124.838 274.624 111.005 278.062 117.315 291.598C117.352 291.635 117.315 291.894 116.963 294.247Z" fill="#CE9789"/>
<path style="mix-blend-mode:multiply" d="M122.225 295.693C123.105 297.303 123.62 299.087 123.736 300.918L124.31 296.712L122.225 295.693Z" fill="url(#paint109_linear_25_109)"/>
<path d="M117.352 291.634C117.537 291.634 117.092 286.752 118.102 286.826C118.843 286.891 119.029 288.068 119.029 289.235L120.15 288.975C119.992 286.826 120.252 284.25 120.91 283.667C122.095 282.629 124.884 284.436 127.83 285.121C129.683 285.538 130.489 283.417 130.795 281.832C130.91 281.273 130.854 280.692 130.634 280.165C130.415 279.638 130.041 279.189 129.563 278.877C127.376 277.478 124.662 278.247 121.391 277.95C117.361 277.626 116.499 280.035 115.675 283.509C114.85 286.984 117.167 291.662 117.352 291.634Z" fill="url(#paint110_linear_25_109)"/>
<path d="M106.355 302.447C104.993 307.737 129.007 325.062 130.564 321.634C135.428 317.706 110.237 294.414 106.355 302.447Z" fill="#CE9789"/>
<path d="M122.262 307.477L129.822 314.315C129.822 314.315 141.051 309.59 143.618 308.376C146.184 307.162 154.106 304.67 154.106 304.67L155.782 308.256C155.782 308.256 135.854 322.153 129.785 322.246C125.153 322.32 116.398 314.778 116.398 314.778L122.262 307.477Z" fill="#CE9789"/>
<path d="M127.228 320.467C127.515 320.861 127.901 321.173 128.346 321.372C128.792 321.57 129.282 321.648 129.767 321.597C137.429 321.032 162.083 304.92 160.239 303.642C159.387 302.308 122.994 314.407 127.228 320.467Z" fill="#CE9789"/>
<path d="M163.713 300.863C163.717 300.906 163.717 300.949 163.713 300.992L163.639 302.743C163.622 303.239 163.446 303.716 163.139 304.105L162.277 305.152C161.4 306.065 160.352 306.796 159.192 307.302L156.347 308.052L155.745 308.219L155.393 307.459L154.319 305.152L154.068 304.633L154.17 304.374L154.939 302.521C155.161 301.984 155.511 301.51 155.958 301.141L158.293 300.038C158.311 300.26 158.282 300.483 158.207 300.692C158.132 300.901 158.013 301.092 157.858 301.252C157.587 301.641 157.401 302.083 157.311 302.549L158.525 301.78L161.666 300.103C161.847 300.002 162.048 299.941 162.255 299.925C162.462 299.909 162.67 299.939 162.864 300.011C163.059 300.083 163.236 300.197 163.382 300.344C163.529 300.491 163.642 300.668 163.713 300.863V300.863Z" fill="#CE9789"/>
<path d="M116.175 315.473C113.47 313.379 103.631 304.605 106.336 300.983C109.588 296.619 115.601 301.909 116.713 302.641C117.825 303.373 122.448 307.44 122.448 307.44L116.175 315.473Z" fill="url(#paint111_linear_25_109)"/>
<path style="mix-blend-mode:multiply" opacity="0.5" d="M316.268 257.188H193.296C192.968 257.188 192.703 257.453 192.703 257.781V276.811C192.703 277.138 192.968 277.404 193.296 277.404H316.268C316.595 277.404 316.861 277.138 316.861 276.811V257.781C316.861 257.453 316.595 257.188 316.268 257.188Z" fill="url(#paint112_linear_25_109)"/>
<path style="mix-blend-mode:screen" opacity="0.5" d="M318.501 357.35H191.063C190.643 357.35 190.303 357.69 190.303 358.11V388.387C190.303 388.807 190.643 389.147 191.063 389.147H318.501C318.92 389.147 319.26 388.807 319.26 388.387V358.11C319.26 357.69 318.92 357.35 318.501 357.35Z" fill="url(#paint113_linear_25_109)"/>
<g style="mix-blend-mode:multiply" opacity="0.5">
<path style="mix-blend-mode:multiply" opacity="0.5" d="M211.89 365.512H203.422C201.887 365.512 200.643 366.757 200.643 368.292V376.76C200.643 378.295 201.887 379.539 203.422 379.539H211.89C213.425 379.539 214.67 378.295 214.67 376.76V368.292C214.67 366.757 213.425 365.512 211.89 365.512Z" fill="url(#paint114_linear_25_109)"/>
<path style="mix-blend-mode:multiply" opacity="0.5" d="M242.427 365.512H233.959C232.424 365.512 231.18 366.757 231.18 368.292V376.76C231.18 378.295 232.424 379.539 233.959 379.539H242.427C243.962 379.539 245.207 378.295 245.207 376.76V368.292C245.207 366.757 243.962 365.512 242.427 365.512Z" fill="url(#paint115_linear_25_109)"/>
<path style="mix-blend-mode:multiply" opacity="0.5" d="M272.964 365.512H264.496C262.961 365.512 261.717 366.757 261.717 368.292V376.76C261.717 378.295 262.961 379.539 264.496 379.539H272.964C274.499 379.539 275.744 378.295 275.744 376.76V368.292C275.744 366.757 274.499 365.512 272.964 365.512Z" fill="url(#paint116_linear_25_109)"/>
<path style="mix-blend-mode:multiply" opacity="0.5" d="M303.501 365.512H295.033C293.498 365.512 292.253 366.757 292.253 368.292V376.76C292.253 378.295 293.498 379.539 295.033 379.539H303.501C305.036 379.539 306.28 378.295 306.28 376.76V368.292C306.28 366.757 305.036 365.512 303.501 365.512Z" fill="url(#paint117_linear_25_109)"/>
</g>
<g style="mix-blend-mode:multiply" opacity="0.5">
<path style="mix-blend-mode:multiply" opacity="0.5" d="M308.485 384.57H198.771V385.311H308.485V384.57Z" fill="url(#paint118_linear_25_109)"/>
</g>
</g>
<defs>
<linearGradient id="paint0_linear_25_109" x1="85.518" y1="238.288" x2="448.384" y2="238.288" gradientUnits="userSpaceOnUse">
<stop stop-color="#E2F4FF"/>
<stop offset="1" stop-color="#D7ECFF"/>
</linearGradient>
<linearGradient id="paint1_linear_25_109" x1="8962.1" y1="273.553" x2="8962.1" y2="430.552" gradientUnits="userSpaceOnUse">
<stop stop-color="#E2F4FF"/>
<stop offset="1" stop-color="#D7ECFF"/>
</linearGradient>
<linearGradient id="paint2_linear_25_109" x1="3353.59" y1="273.553" x2="3353.59" y2="430.552" gradientUnits="userSpaceOnUse">
<stop stop-color="#E2F4FF"/>
<stop offset="1" stop-color="#D7ECFF"/>
</linearGradient>
<linearGradient id="paint3_linear_25_109" x1="976.836" y1="273.553" x2="976.836" y2="430.552" gradientUnits="userSpaceOnUse">
<stop stop-color="#E2F4FF"/>
<stop offset="1" stop-color="#D7ECFF"/>
</linearGradient>
<linearGradient id="paint4_linear_25_109" x1="5247.74" y1="273.553" x2="5247.74" y2="430.552" gradientUnits="userSpaceOnUse">
<stop stop-color="#E2F4FF"/>
<stop offset="1" stop-color="#D7ECFF"/>
</linearGradient>
<linearGradient id="paint5_linear_25_109" x1="7920.21" y1="273.553" x2="7920.21" y2="430.552" gradientUnits="userSpaceOnUse">
<stop stop-color="#E2F4FF"/>
<stop offset="1" stop-color="#D7ECFF"/>
</linearGradient>
<linearGradient id="paint6_linear_25_109" x1="13049.4" y1="320.563" x2="13049.4" y2="477.561" gradientUnits="userSpaceOnUse">
<stop stop-color="#E2F4FF"/>
<stop offset="1" stop-color="#D7ECFF"/>
</linearGradient>
<linearGradient id="paint7_linear_25_109" x1="976.836" y1="320.563" x2="976.836" y2="477.561" gradientUnits="userSpaceOnUse">
<stop stop-color="#E2F4FF"/>
<stop offset="1" stop-color="#D7ECFF"/>
</linearGradient>
<linearGradient id="paint8_linear_25_109" x1="3050.34" y1="320.563" x2="3050.34" y2="477.561" gradientUnits="userSpaceOnUse">
<stop stop-color="#E2F4FF"/>
<stop offset="1" stop-color="#D7ECFF"/>
</linearGradient>
<linearGradient id="paint9_linear_25_109" x1="7920.21" y1="320.563" x2="7920.21" y2="477.561" gradientUnits="userSpaceOnUse">
<stop stop-color="#E2F4FF"/>
<stop offset="1" stop-color="#D7ECFF"/>
</linearGradient>
<linearGradient id="paint10_linear_25_109" x1="1987.44" y1="281.382" x2="1987.44" y2="438.38" gradientUnits="userSpaceOnUse">
<stop stop-color="#E2F4FF"/>
<stop offset="1" stop-color="#D7ECFF"/>
</linearGradient>
<linearGradient id="paint11_linear_25_109" x1="10860" y1="281.382" x2="10860" y2="438.381" gradientUnits="userSpaceOnUse">
<stop stop-color="#E2F4FF"/>
<stop offset="1" stop-color="#D7ECFF"/>
</linearGradient>
<linearGradient id="paint12_linear_25_109" x1="976.836" y1="281.382" x2="976.836" y2="438.38" gradientUnits="userSpaceOnUse">
<stop stop-color="#E2F4FF"/>
<stop offset="1" stop-color="#D7ECFF"/>
</linearGradient>
<linearGradient id="paint13_linear_25_109" x1="19643.1" y1="281.382" x2="19643.1" y2="438.38" gradientUnits="userSpaceOnUse">
<stop stop-color="#E2F4FF"/>
<stop offset="1" stop-color="#D7ECFF"/>
</linearGradient>
<linearGradient id="paint14_linear_25_109" x1="1987.44" y1="328.401" x2="1987.44" y2="485.4" gradientUnits="userSpaceOnUse">
<stop stop-color="#E2F4FF"/>
<stop offset="1" stop-color="#D7ECFF"/>
</linearGradient>
<linearGradient id="paint15_linear_25_109" x1="2498.84" y1="328.401" x2="2498.84" y2="485.4" gradientUnits="userSpaceOnUse">
<stop stop-color="#E2F4FF"/>
<stop offset="1" stop-color="#D7ECFF"/>
</linearGradient>
<linearGradient id="paint16_linear_25_109" x1="10860" y1="328.401" x2="10860" y2="485.4" gradientUnits="userSpaceOnUse">
<stop stop-color="#E2F4FF"/>
<stop offset="1" stop-color="#D7ECFF"/>
</linearGradient>
<linearGradient id="paint17_linear_25_109" x1="976.836" y1="328.401" x2="976.836" y2="485.4" gradientUnits="userSpaceOnUse">
<stop stop-color="#E2F4FF"/>
<stop offset="1" stop-color="#D7ECFF"/>
</linearGradient>
<linearGradient id="paint18_linear_25_109" x1="14828.6" y1="328.401" x2="14828.6" y2="485.4" gradientUnits="userSpaceOnUse">
<stop stop-color="#E2F4FF"/>
<stop offset="1" stop-color="#D7ECFF"/>
</linearGradient>
<linearGradient id="paint19_linear_25_109" x1="5541.99" y1="289.22" x2="5541.99" y2="446.219" gradientUnits="userSpaceOnUse">
<stop stop-color="#E2F4FF"/>
<stop offset="1" stop-color="#D7ECFF"/>
</linearGradient>
<linearGradient id="paint20_linear_25_109" x1="3111.17" y1="289.22" x2="3111.17" y2="446.219" gradientUnits="userSpaceOnUse">
<stop stop-color="#E2F4FF"/>
<stop offset="1" stop-color="#D7ECFF"/>
</linearGradient>
<linearGradient id="paint21_linear_25_109" x1="976.836" y1="289.22" x2="976.836" y2="446.219" gradientUnits="userSpaceOnUse">
<stop stop-color="#E2F4FF"/>
<stop offset="1" stop-color="#D7ECFF"/>
</linearGradient>
<linearGradient id="paint22_linear_25_109" x1="9856.89" y1="289.22" x2="9856.89" y2="446.219" gradientUnits="userSpaceOnUse">
<stop stop-color="#E2F4FF"/>
<stop offset="1" stop-color="#D7ECFF"/>
</linearGradient>
<linearGradient id="paint23_linear_25_109" x1="13338.6" y1="289.22" x2="13338.6" y2="446.219" gradientUnits="userSpaceOnUse">
<stop stop-color="#E2F4FF"/>
<stop offset="1" stop-color="#D7ECFF"/>
</linearGradient>
<linearGradient id="paint24_linear_25_109" x1="15276.3" y1="297.058" x2="15276.3" y2="454.057" gradientUnits="userSpaceOnUse">
<stop stop-color="#E2F4FF"/>
<stop offset="1" stop-color="#D7ECFF"/>
</linearGradient>
<linearGradient id="paint25_linear_25_109" x1="976.836" y1="297.058" x2="976.836" y2="454.057" gradientUnits="userSpaceOnUse">
<stop stop-color="#E2F4FF"/>
<stop offset="1" stop-color="#D7ECFF"/>
</linearGradient>
<linearGradient id="paint26_linear_25_109" x1="13899.4" y1="297.058" x2="13899.4" y2="454.057" gradientUnits="userSpaceOnUse">
<stop stop-color="#E2F4FF"/>
<stop offset="1" stop-color="#D7ECFF"/>
</linearGradient>
<linearGradient id="paint27_linear_25_109" x1="7548.82" y1="304.896" x2="7548.82" y2="461.894" gradientUnits="userSpaceOnUse">
<stop stop-color="#E2F4FF"/>
<stop offset="1" stop-color="#D7ECFF"/>
</linearGradient>
<linearGradient id="paint28_linear_25_109" x1="976.836" y1="304.896" x2="976.836" y2="461.894" gradientUnits="userSpaceOnUse">
<stop stop-color="#E2F4FF"/>
<stop offset="1" stop-color="#D7ECFF"/>
</linearGradient>
<linearGradient id="paint29_linear_25_109" x1="17854.6" y1="304.896" x2="17854.6" y2="461.894" gradientUnits="userSpaceOnUse">
<stop stop-color="#E2F4FF"/>
<stop offset="1" stop-color="#D7ECFF"/>
</linearGradient>
<linearGradient id="paint30_linear_25_109" x1="3095.96" y1="304.896" x2="3095.96" y2="461.894" gradientUnits="userSpaceOnUse">
<stop stop-color="#E2F4FF"/>
<stop offset="1" stop-color="#D7ECFF"/>
</linearGradient>
<linearGradient id="paint31_linear_25_109" x1="2406.29" y1="304.896" x2="2406.29" y2="461.894" gradientUnits="userSpaceOnUse">
<stop stop-color="#E2F4FF"/>
<stop offset="1" stop-color="#D7ECFF"/>
</linearGradient>
<linearGradient id="paint32_linear_25_109" x1="3842.03" y1="312.725" x2="3842.03" y2="469.724" gradientUnits="userSpaceOnUse">
<stop stop-color="#E2F4FF"/>
<stop offset="1" stop-color="#D7ECFF"/>
</linearGradient>
<linearGradient id="paint33_linear_25_109" x1="4361.24" y1="312.725" x2="4361.24" y2="469.724" gradientUnits="userSpaceOnUse">
<stop stop-color="#E2F4FF"/>
<stop offset="1" stop-color="#D7ECFF"/>
</linearGradient>
<linearGradient id="paint34_linear_25_109" x1="976.836" y1="312.725" x2="976.836" y2="469.724" gradientUnits="userSpaceOnUse">
<stop stop-color="#E2F4FF"/>
<stop offset="1" stop-color="#D7ECFF"/>
</linearGradient>
<linearGradient id="paint35_linear_25_109" x1="12102.7" y1="312.725" x2="12102.7" y2="469.724" gradientUnits="userSpaceOnUse">
<stop stop-color="#E2F4FF"/>
<stop offset="1" stop-color="#D7ECFF"/>
</linearGradient>
<linearGradient id="paint36_linear_25_109" x1="7612.51" y1="312.725" x2="7612.51" y2="469.724" gradientUnits="userSpaceOnUse">
<stop stop-color="#E2F4FF"/>
<stop offset="1" stop-color="#D7ECFF"/>
</linearGradient>
<linearGradient id="paint37_linear_25_109" x1="2270.13" y1="312.725" x2="2270.13" y2="469.724" gradientUnits="userSpaceOnUse">
<stop stop-color="#E2F4FF"/>
<stop offset="1" stop-color="#D7ECFF"/>
</linearGradient>
<linearGradient id="paint38_linear_25_109" x1="50218.2" y1="9120.84" x2="50218.2" y2="9617.58" gradientUnits="userSpaceOnUse">
<stop stop-color="#E2F4FF"/>
<stop offset="1" stop-color="#D7ECFF"/>
</linearGradient>
<linearGradient id="paint39_linear_25_109" x1="26669.7" y1="3625.99" x2="26669.7" y2="3685.36" gradientUnits="userSpaceOnUse">
<stop stop-color="#E2F4FF"/>
<stop offset="1" stop-color="#D7ECFF"/>
</linearGradient>
<linearGradient id="paint40_linear_25_109" x1="7903.78" y1="3625.99" x2="7903.78" y2="3685.36" gradientUnits="userSpaceOnUse">
<stop stop-color="#E2F4FF"/>
<stop offset="1" stop-color="#D7ECFF"/>
</linearGradient>
<linearGradient id="paint41_linear_25_109" x1="254.786" y1="402.164" x2="254.786" y2="153.366" gradientUnits="userSpaceOnUse">
<stop stop-color="#F1FAFF"/>
<stop offset="1" stop-color="white"/>
</linearGradient>
<linearGradient id="paint42_linear_25_109" x1="2692.43" y1="4348.17" x2="2692.43" y2="4255.12" gradientUnits="userSpaceOnUse">
<stop stop-color="#E2F4FF"/>
<stop offset="1" stop-color="#D7ECFF"/>
</linearGradient>
<linearGradient id="paint43_linear_25_109" x1="11824.7" y1="15338.4" x2="11824.7" y2="18212.5" gradientUnits="userSpaceOnUse">
<stop stop-color="#9972FF"/>
<stop offset="1" stop-color="#7F85FF"/>
</linearGradient>
<linearGradient id="paint44_linear_25_109" x1="289.845" y1="290.162" x2="289.845" y2="339.358" gradientUnits="userSpaceOnUse">
<stop stop-color="#294698"/>
<stop offset="1" stop-color="#0E4BA6"/>
</linearGradient>
<linearGradient id="paint45_linear_25_109" x1="9799.02" y1="972.311" x2="9799.02" y2="976.515" gradientUnits="userSpaceOnUse">
<stop stop-color="#9972FF"/>
<stop offset="1" stop-color="#7F85FF"/>
</linearGradient>
<linearGradient id="paint46_linear_25_109" x1="185.912" y1="180.781" x2="185.912" y2="245.709" gradientUnits="userSpaceOnUse">
<stop stop-color="#43D4C3"/>
<stop offset="1" stop-color="#5A98FE"/>
</linearGradient>
<linearGradient id="paint47_linear_25_109" x1="245.716" y1="174.666" x2="126.367" y2="174.666" gradientUnits="userSpaceOnUse">
<stop offset="0.09" stop-color="#374492"/>
<stop offset="1" stop-color="#014DAE"/>
</linearGradient>
<linearGradient id="paint48_linear_25_109" x1="8897.88" y1="529.883" x2="8897.88" y2="634.559" gradientUnits="userSpaceOnUse">
<stop stop-color="#43D4C3"/>
<stop offset="1" stop-color="#5A98FE"/>
</linearGradient>
<linearGradient id="paint49_linear_25_109" x1="178.472" y1="188.137" x2="178.472" y2="235.935" gradientUnits="userSpaceOnUse">
<stop offset="0.04" stop-color="#FFD744"/>
<stop offset="1" stop-color="#F5C144"/>
</linearGradient>
<linearGradient id="paint50_linear_25_109" x1="687.036" y1="529.883" x2="687.036" y2="634.559" gradientUnits="userSpaceOnUse">
<stop stop-color="#43D4C3"/>
<stop offset="1" stop-color="#5A98FE"/>
</linearGradient>
<linearGradient id="paint51_linear_25_109" x1="4612.1" y1="529.883" x2="4612.1" y2="634.559" gradientUnits="userSpaceOnUse">
<stop stop-color="#43D4C3"/>
<stop offset="1" stop-color="#5A98FE"/>
</linearGradient>
<linearGradient id="paint52_linear_25_109" x1="7309.06" y1="529.883" x2="7309.06" y2="634.559" gradientUnits="userSpaceOnUse">
<stop stop-color="#43D4C3"/>
<stop offset="1" stop-color="#5A98FE"/>
</linearGradient>
<linearGradient id="paint53_linear_25_109" x1="12969.1" y1="566.684" x2="12969.1" y2="670.882" gradientUnits="userSpaceOnUse">
<stop stop-color="#43D4C3"/>
<stop offset="1" stop-color="#5A98FE"/>
</linearGradient>
<linearGradient id="paint54_linear_25_109" x1="687.036" y1="568.239" x2="687.036" y2="672.915" gradientUnits="userSpaceOnUse">
<stop stop-color="#43D4C3"/>
<stop offset="1" stop-color="#5A98FE"/>
</linearGradient>
<linearGradient id="paint55_linear_25_109" x1="2550.16" y1="568.239" x2="2550.16" y2="672.915" gradientUnits="userSpaceOnUse">
<stop stop-color="#43D4C3"/>
<stop offset="1" stop-color="#5A98FE"/>
</linearGradient>
<linearGradient id="paint56_linear_25_109" x1="7460.63" y1="568.239" x2="7460.63" y2="672.915" gradientUnits="userSpaceOnUse">
<stop offset="0.04" stop-color="#FFD744"/>
<stop offset="1" stop-color="#F5C144"/>
</linearGradient>
<linearGradient id="paint57_linear_25_109" x1="1739.02" y1="536.275" x2="1739.02" y2="640.951" gradientUnits="userSpaceOnUse">
<stop stop-color="#43D4C3"/>
<stop offset="1" stop-color="#5A98FE"/>
</linearGradient>
<linearGradient id="paint58_linear_25_109" x1="10644.8" y1="536.275" x2="10644.8" y2="640.951" gradientUnits="userSpaceOnUse">
<stop stop-color="#9972FF"/>
<stop offset="1" stop-color="#7F85FF"/>
</linearGradient>
<linearGradient id="paint59_linear_25_109" x1="687.036" y1="536.275" x2="687.036" y2="640.951" gradientUnits="userSpaceOnUse">
<stop stop-color="#43D4C3"/>
<stop offset="1" stop-color="#5A98FE"/>
</linearGradient>
<linearGradient id="paint60_linear_25_109" x1="18284.7" y1="536.275" x2="18284.7" y2="640.951" gradientUnits="userSpaceOnUse">
<stop stop-color="#43D4C3"/>
<stop offset="1" stop-color="#5A98FE"/>
</linearGradient>
<linearGradient id="paint61_linear_25_109" x1="1739.02" y1="574.629" x2="1739.02" y2="679.305" gradientUnits="userSpaceOnUse">
<stop stop-color="#43D4C3"/>
<stop offset="1" stop-color="#5A98FE"/>
</linearGradient>
<linearGradient id="paint62_linear_25_109" x1="2088.29" y1="574.629" x2="2088.29" y2="679.305" gradientUnits="userSpaceOnUse">
<stop stop-color="#43D4C3"/>
<stop offset="1" stop-color="#5A98FE"/>
</linearGradient>
<linearGradient id="paint63_linear_25_109" x1="10644.8" y1="574.629" x2="10644.8" y2="679.305" gradientUnits="userSpaceOnUse">
<stop stop-color="#9972FF"/>
<stop offset="1" stop-color="#7F85FF"/>
</linearGradient>
<linearGradient id="paint64_linear_25_109" x1="687.036" y1="574.629" x2="687.036" y2="679.305" gradientUnits="userSpaceOnUse">
<stop stop-color="#43D4C3"/>
<stop offset="1" stop-color="#5A98FE"/>
</linearGradient>
<linearGradient id="paint65_linear_25_109" x1="13608" y1="574.629" x2="13608" y2="679.305" gradientUnits="userSpaceOnUse">
<stop stop-color="#43D4C3"/>
<stop offset="1" stop-color="#5A98FE"/>
</linearGradient>
<linearGradient id="paint66_linear_25_109" x1="5426.62" y1="542.666" x2="5426.62" y2="647.341" gradientUnits="userSpaceOnUse">
<stop stop-color="#43D4C3"/>
<stop offset="1" stop-color="#5A98FE"/>
</linearGradient>
<linearGradient id="paint67_linear_25_109" x1="2801.68" y1="542.666" x2="2801.68" y2="647.341" gradientUnits="userSpaceOnUse">
<stop stop-color="#43D4C3"/>
<stop offset="1" stop-color="#5A98FE"/>
</linearGradient>
<linearGradient id="paint68_linear_25_109" x1="687.036" y1="542.666" x2="687.036" y2="647.341" gradientUnits="userSpaceOnUse">
<stop stop-color="#43D4C3"/>
<stop offset="1" stop-color="#5A98FE"/>
</linearGradient>
<linearGradient id="paint69_linear_25_109" x1="9304.86" y1="542.666" x2="9304.86" y2="647.341" gradientUnits="userSpaceOnUse">
<stop stop-color="#43D4C3"/>
<stop offset="1" stop-color="#5A98FE"/>
</linearGradient>
<linearGradient id="paint70_linear_25_109" x1="12329.6" y1="542.666" x2="12329.6" y2="647.341" gradientUnits="userSpaceOnUse">
<stop offset="0.04" stop-color="#FFD744"/>
<stop offset="1" stop-color="#F5C144"/>
</linearGradient>
<linearGradient id="paint71_linear_25_109" x1="15153.8" y1="549.061" x2="15153.8" y2="653.737" gradientUnits="userSpaceOnUse">
<stop stop-color="#43D4C3"/>
<stop offset="1" stop-color="#5A98FE"/>
</linearGradient>
<linearGradient id="paint72_linear_25_109" x1="687.036" y1="549.061" x2="687.036" y2="653.737" gradientUnits="userSpaceOnUse">
<stop stop-color="#43D4C3"/>
<stop offset="1" stop-color="#5A98FE"/>
</linearGradient>
<linearGradient id="paint73_linear_25_109" x1="12879.9" y1="549.061" x2="12879.9" y2="653.737" gradientUnits="userSpaceOnUse">
<stop stop-color="#43D4C3"/>
<stop offset="1" stop-color="#5A98FE"/>
</linearGradient>
<linearGradient id="paint74_linear_25_109" x1="7621.41" y1="555.454" x2="7621.41" y2="660.13" gradientUnits="userSpaceOnUse">
<stop offset="0.04" stop-color="#FFD744"/>
<stop offset="1" stop-color="#F5C144"/>
</linearGradient>
<linearGradient id="paint75_linear_25_109" x1="687.036" y1="555.454" x2="687.036" y2="660.13" gradientUnits="userSpaceOnUse">
<stop stop-color="#43D4C3"/>
<stop offset="1" stop-color="#5A98FE"/>
</linearGradient>
<linearGradient id="paint76_linear_25_109" x1="16764.7" y1="555.454" x2="16764.7" y2="660.13" gradientUnits="userSpaceOnUse">
<stop stop-color="#43D4C3"/>
<stop offset="1" stop-color="#5A98FE"/>
</linearGradient>
<linearGradient id="paint77_linear_25_109" x1="2534.13" y1="555.454" x2="2534.13" y2="660.13" gradientUnits="userSpaceOnUse">
<stop stop-color="#43D4C3"/>
<stop offset="1" stop-color="#5A98FE"/>
</linearGradient>
<linearGradient id="paint78_linear_25_109" x1="2063.86" y1="555.454" x2="2063.86" y2="660.13" gradientUnits="userSpaceOnUse">
<stop stop-color="#43D4C3"/>
<stop offset="1" stop-color="#5A98FE"/>
</linearGradient>
<linearGradient id="paint79_linear_25_109" x1="3673.05" y1="561.846" x2="3673.05" y2="666.522" gradientUnits="userSpaceOnUse">
<stop stop-color="#43D4C3"/>
<stop offset="1" stop-color="#5A98FE"/>
</linearGradient>
<linearGradient id="paint80_linear_25_109" x1="4023.26" y1="561.846" x2="4023.26" y2="666.522" gradientUnits="userSpaceOnUse">
<stop stop-color="#43D4C3"/>
<stop offset="1" stop-color="#5A98FE"/>
</linearGradient>
<linearGradient id="paint81_linear_25_109" x1="687.036" y1="561.846" x2="687.036" y2="666.522" gradientUnits="userSpaceOnUse">
<stop stop-color="#43D4C3"/>
<stop offset="1" stop-color="#5A98FE"/>
</linearGradient>
<linearGradient id="paint82_linear_25_109" x1="11320" y1="561.846" x2="11320" y2="666.522" gradientUnits="userSpaceOnUse">
<stop stop-color="#43D4C3"/>
<stop offset="1" stop-color="#5A98FE"/>
</linearGradient>
<linearGradient id="paint83_linear_25_109" x1="6752.25" y1="561.846" x2="6752.25" y2="666.522" gradientUnits="userSpaceOnUse">
<stop stop-color="#9972FF"/>
<stop offset="1" stop-color="#7F85FF"/>
</linearGradient>
<linearGradient id="paint84_linear_25_109" x1="1970.92" y1="561.846" x2="1970.92" y2="666.522" gradientUnits="userSpaceOnUse">
<stop stop-color="#43D4C3"/>
<stop offset="1" stop-color="#5A98FE"/>
</linearGradient>
<linearGradient id="paint85_linear_25_109" x1="150466" y1="1797.88" x2="138818" y2="1797.88" gradientUnits="userSpaceOnUse">
<stop offset="0.09" stop-color="#374492"/>
<stop offset="1" stop-color="#014DAE"/>
</linearGradient>
<linearGradient id="paint86_linear_25_109" x1="9608.92" y1="12012" x2="8752.98" y2="10711" gradientUnits="userSpaceOnUse">
<stop stop-color="#43D4C3"/>
<stop offset="1" stop-color="#5A98FE"/>
</linearGradient>
<linearGradient id="paint87_linear_25_109" x1="43441.6" y1="21094.5" x2="43736.9" y2="20643.5" gradientUnits="userSpaceOnUse">
<stop stop-color="#43D4C3"/>
<stop offset="1" stop-color="#5A98FE"/>
</linearGradient>
<linearGradient id="paint88_linear_25_109" x1="8876.46" y1="23399.5" x2="8339.57" y2="23399.5" gradientUnits="userSpaceOnUse">
<stop stop-color="#43D4C3"/>
<stop offset="1" stop-color="#5A98FE"/>
</linearGradient>
<linearGradient id="paint89_linear_25_109" x1="-7936.57" y1="1337.5" x2="-7936.57" y2="1374.74" gradientUnits="userSpaceOnUse">
<stop stop-color="#43D4C3"/>
<stop offset="1" stop-color="#5A98FE"/>
</linearGradient>
<linearGradient id="paint90_linear_25_109" x1="3061.92" y1="5142.71" x2="3575.31" y2="5142.71" gradientUnits="userSpaceOnUse">
<stop stop-color="#E2F4FF"/>
<stop offset="1" stop-color="#D7ECFF"/>
</linearGradient>
<linearGradient id="paint91_linear_25_109" x1="3722.16" y1="2380.36" x2="4235.56" y2="2380.36" gradientUnits="userSpaceOnUse">
<stop stop-color="#E2F4FF"/>
<stop offset="1" stop-color="#D7ECFF"/>
</linearGradient>
<linearGradient id="paint92_linear_25_109" x1="10232.4" y1="3967.82" x2="10746" y2="3967.82" gradientUnits="userSpaceOnUse">
<stop stop-color="#E2F4FF"/>
<stop offset="1" stop-color="#D7ECFF"/>
</linearGradient>
<linearGradient id="paint93_linear_25_109" x1="380.658" y1="300.038" x2="362.861" y2="300.038" gradientUnits="userSpaceOnUse">
<stop stop-color="#4DB9DD"/>
<stop offset="1" stop-color="#5A98FE"/>
</linearGradient>
<linearGradient id="paint94_linear_25_109" x1="5119.81" y1="4891.96" x2="4760.61" y2="4891.96" gradientUnits="userSpaceOnUse">
<stop stop-color="#294698"/>
<stop offset="1" stop-color="#0E4BA6"/>
</linearGradient>
<linearGradient id="paint95_linear_25_109" x1="2670.18" y1="4224.32" x2="2576.94" y2="4224.32" gradientUnits="userSpaceOnUse">
<stop stop-color="#294698"/>
<stop offset="1" stop-color="#0E4BA6"/>
</linearGradient>
<linearGradient id="paint96_linear_25_109" x1="11980.2" y1="34076.8" x2="13049.1" y2="34076.8" gradientUnits="userSpaceOnUse">
<stop stop-color="#294698"/>
<stop offset="1" stop-color="#0E4BA6"/>
</linearGradient>
<linearGradient id="paint97_linear_25_109" x1="11928.4" y1="13448.5" x2="11928.4" y2="15544.5" gradientUnits="userSpaceOnUse">
<stop stop-color="#43D4C3"/>
<stop offset="1" stop-color="#5A98FE"/>
</linearGradient>
<linearGradient id="paint98_linear_25_109" x1="-11690.9" y1="5477.54" x2="-12767.3" y2="5477.54" gradientUnits="userSpaceOnUse">
<stop stop-color="#294698"/>
<stop offset="1" stop-color="#0E4BA6"/>
</linearGradient>
<linearGradient id="paint99_linear_25_109" x1="4495.66" y1="4573.64" x2="4238.71" y2="4573.64" gradientUnits="userSpaceOnUse">
<stop stop-color="#294698"/>
<stop offset="1" stop-color="#0E4BA6"/>
</linearGradient>
<linearGradient id="paint100_linear_25_109" x1="4794.95" y1="6722.5" x2="4967.37" y2="6722.5" gradientUnits="userSpaceOnUse">
<stop stop-color="#4DB9DD"/>
<stop offset="1" stop-color="#5A98FE"/>
</linearGradient>
<linearGradient id="paint101_linear_25_109" x1="2685.07" y1="2370.14" x2="2583.7" y2="2370.14" gradientUnits="userSpaceOnUse">
<stop stop-color="#294698"/>
<stop offset="1" stop-color="#0E4BA6"/>
</linearGradient>
<linearGradient id="paint102_linear_25_109" x1="9735.24" y1="36399.2" x2="10091.8" y2="36408.8" gradientUnits="userSpaceOnUse">
<stop stop-color="#294698"/>
<stop offset="1" stop-color="#0E4BA6"/>
</linearGradient>
<linearGradient id="paint103_linear_25_109" x1="16928.4" y1="-1815.67" x2="17220.7" y2="-1676.02" gradientUnits="userSpaceOnUse">
<stop stop-color="#294698"/>
<stop offset="1" stop-color="#0E4BA6"/>
</linearGradient>
<linearGradient id="paint104_linear_25_109" x1="3731.85" y1="32251.8" x2="6718.16" y2="32251.8" gradientUnits="userSpaceOnUse">
<stop stop-color="#294698"/>
<stop offset="1" stop-color="#0E4BA6"/>
</linearGradient>
<linearGradient id="paint105_linear_25_109" x1="837.614" y1="33.064" x2="1042.27" y2="138.919" gradientUnits="userSpaceOnUse">
<stop stop-color="#4DB9DD"/>
<stop offset="1" stop-color="#5A98FE"/>
</linearGradient>
<linearGradient id="paint106_linear_25_109" x1="3242.05" y1="13982.8" x2="3242.05" y2="16108.2" gradientUnits="userSpaceOnUse">
<stop stop-color="#43D4C3"/>
<stop offset="1" stop-color="#5A98FE"/>
</linearGradient>
<linearGradient id="paint107_linear_25_109" x1="10207.8" y1="13380.4" x2="10626.3" y2="16224.3" gradientUnits="userSpaceOnUse">
<stop stop-color="#294698"/>
<stop offset="1" stop-color="#0E4BA6"/>
</linearGradient>
<linearGradient id="paint108_linear_25_109" x1="5074.21" y1="229.916" x2="5074.82" y2="234.055" gradientUnits="userSpaceOnUse">
<stop stop-color="#9972FF"/>
<stop offset="1" stop-color="#7F85FF"/>
</linearGradient>
<linearGradient id="paint109_linear_25_109" x1="-587.164" y1="1794.43" x2="-591.875" y2="1794.43" gradientUnits="userSpaceOnUse">
<stop stop-color="#E2F4FF"/>
<stop offset="1" stop-color="#D7ECFF"/>
</linearGradient>
<linearGradient id="paint110_linear_25_109" x1="-7459.96" y1="4011.28" x2="-7714.55" y2="4011.28" gradientUnits="userSpaceOnUse">
<stop stop-color="#294698"/>
<stop offset="1" stop-color="#0E4BA6"/>
</linearGradient>
<linearGradient id="paint111_linear_25_109" x1="1824.3" y1="5005.06" x2="1720.45" y2="5132.96" gradientUnits="userSpaceOnUse">
<stop stop-color="#4DB9DD"/>
<stop offset="1" stop-color="#5A98FE"/>
</linearGradient>
<linearGradient id="paint112_linear_25_109" x1="23255" y1="5378.67" x2="39893.4" y2="5378.67" gradientUnits="userSpaceOnUse">
<stop stop-color="#9972FF"/>
<stop offset="1" stop-color="#7F85FF"/>
</linearGradient>
<linearGradient id="paint113_linear_25_109" x1="23810.1" y1="12049.4" x2="41759.6" y2="12049.4" gradientUnits="userSpaceOnUse">
<stop stop-color="#9972FF"/>
<stop offset="1" stop-color="#7F85FF"/>
</linearGradient>
<linearGradient id="paint114_linear_25_109" x1="3032.54" y1="5415.78" x2="3032.54" y2="5672.47" gradientUnits="userSpaceOnUse">
<stop stop-color="#9972FF"/>
<stop offset="1" stop-color="#7F85FF"/>
</linearGradient>
<linearGradient id="paint115_linear_25_109" x1="3525.41" y1="5415.78" x2="3525.41" y2="5672.47" gradientUnits="userSpaceOnUse">
<stop stop-color="#9972FF"/>
<stop offset="1" stop-color="#7F85FF"/>
</linearGradient>
<linearGradient id="paint116_linear_25_109" x1="4018.28" y1="5415.78" x2="4018.28" y2="5672.47" gradientUnits="userSpaceOnUse">
<stop stop-color="#9972FF"/>
<stop offset="1" stop-color="#7F85FF"/>
</linearGradient>
<linearGradient id="paint117_linear_25_109" x1="4511.13" y1="5415.78" x2="4511.13" y2="5672.47" gradientUnits="userSpaceOnUse">
<stop stop-color="#9972FF"/>
<stop offset="1" stop-color="#7F85FF"/>
</linearGradient>
<linearGradient id="paint118_linear_25_109" x1="27794.1" y1="660.149" x2="27794.1" y2="666.005" gradientUnits="userSpaceOnUse">
<stop stop-color="#9972FF"/>
<stop offset="1" stop-color="#7F85FF"/>
</linearGradient>
<clipPath id="clip0_25_109">
<rect width="110.103" height="192.681" fill="white" transform="translate(542.103 192.681) rotate(-180)"/>
</clipPath>
<clipPath id="clip1_25_109">
<rect y="69.0002" width="519" height="399" rx="36" fill="white"/>
</clipPath>
</defs>
</svg>
