<svg width="38" height="38" viewBox="0 0 38 38" fill="none" xmlns="http://www.w3.org/2000/svg">
<path d="M6.9742 24.5834L14.1467 31.7559C17.0917 34.7009 21.8734 34.7009 24.8342 31.7559L31.785 24.8051C34.73 21.8601 34.73 17.0784 31.785 14.1176L24.5967 6.96092C23.0925 5.45675 21.0184 4.64925 18.8967 4.76008L10.98 5.14008C7.81336 5.28258 5.29586 7.80008 5.13753 10.9509L4.75753 18.8676C4.66253 21.0051 5.47003 23.0792 6.9742 24.5834Z" stroke="white" stroke-width="2" stroke-linecap="round" stroke-linejoin="round"/>
<path d="M15.4134 19.3586C17.5995 19.3586 19.3717 17.5864 19.3717 15.4002C19.3717 13.2141 17.5995 11.4419 15.4134 11.4419C13.2273 11.4419 11.4551 13.2141 11.4551 15.4002C11.4551 17.5864 13.2273 19.3586 15.4134 19.3586Z" stroke="white" stroke-width="2" stroke-linecap="round"/>
<path d="M20.9551 27.2752L27.2884 20.9419" stroke="white" stroke-width="2" stroke-miterlimit="10" stroke-linecap="round" stroke-linejoin="round"/>
</svg>
